SplineFontDB: 3.2
FontName: kvz58binary
FullName: kvz58binary
FamilyName: kvz58binary
Weight: Book
Copyright: modified for hinglish kanglish manglish\nCopyright (c) 2010-2011 by tyPoland Lukasz Dziedzic with Reserved Font Name "Lato". Licensed under the SIL Open Font License, Version 1.1.
Version: 1.000; Western+Polish opensource
ItalicAngle: 0
UnderlinePosition: -200
UnderlineWidth: 120
Ascent: 1610
Descent: 390
InvalidEm: 0
sfntRevision: 0x00010000
LayerCount: 2
Layer: 0 1 "Back" 1
Layer: 1 1 "Fore" 0
XUID: [1021 467 -1121320856 6001233]
StyleMap: 0x0040
FSType: 0
OS2Version: 3
OS2_WeightWidthSlopeOnly: 0
OS2_UseTypoMetrics: 0
CreationTime: 1315810800
ModificationTime: 1638764626
PfmFamily: 17
TTFWeight: 400
TTFWidth: 5
LineGap: 0
VLineGap: 0
Panose: 2 15 5 2 2 2 4 3 2 3
OS2TypoAscent: 1610
OS2TypoAOffset: 0
OS2TypoDescent: -390
OS2TypoDOffset: 0
OS2TypoLinegap: 400
OS2WinAscent: 1974
OS2WinAOffset: 0
OS2WinDescent: 426
OS2WinDOffset: 0
HheadAscent: 1974
HheadAOffset: 0
HheadDescent: -426
HheadDOffset: 0
OS2SubXSize: 1400
OS2SubYSize: 1300
OS2SubXOff: 0
OS2SubYOff: 280
OS2SupXSize: 1400
OS2SupYSize: 1300
OS2SupXOff: 0
OS2SupYOff: 954
OS2StrikeYSize: 120
OS2StrikeYPos: 500
OS2CapHeight: 1433
OS2XHeight: 1013
OS2FamilyClass: 2051
OS2Vendor: 'tyPL'
OS2CodePages: 20000093.00000000
OS2UnicodeRanges: 800000af.4000604a.00000000.00000000
Lookup: 1 0 0 "'case' Case-Sensitive Forms in Latin lookup 0" { "'case' Case-Sensitive Forms in Latin lookup 0 subtable"  } ['case' ('DFLT' <'dflt' > 'latn' <'dflt' > ) ]
Lookup: 4 0 1 "'liga' Standard Ligatures in Latin lookup 1" { "'liga' Standard Ligatures in Latin lookup 1 subtable"  } ['liga' ('DFLT' <'dflt' > 'latn' <'dflt' > ) ]
Lookup: 1 0 0 "'sups' Superscript in Latin lookup 2" { "'sups' Superscript in Latin lookup 2 subtable" ("superior") } ['sups' ('DFLT' <'dflt' > 'latn' <'dflt' > ) ]

StartChar: exclam
Encoding: 33 33 3
Width: 686
Flags: W
LayerCount: 2
Fore
SplineSet
430 1433 m 1,0,-1
 430 861 l 2,1,2
 430 816 430 816 428.5 773 c 128,-1,3
 427 730 427 730 424 686.5 c 128,-1,4
 421 643 421 643 416.5 597.5 c 128,-1,5
 412 552 412 552 406 500 c 1,6,-1
 285 500 l 1,7,8
 279 552 279 552 274.5 597.5 c 128,-1,9
 270 643 270 643 267 686.5 c 128,-1,10
 264 730 264 730 262.5 773 c 128,-1,11
 261 816 261 816 261 861 c 2,12,-1
 261 1433 l 1,13,-1
 430 1433 l 1,0,-1
218 110 m 0,14,15
 218 136 218 136 227.5 159 c 128,-1,16
 237 182 237 182 253.5 199 c 128,-1,17
 270 216 270 216 293 226 c 128,-1,18
 316 236 316 236 342 236 c 256,19,20
 368 236 368 236 391 226 c 128,-1,21
 414 216 414 216 431 199 c 128,-1,22
 448 182 448 182 457.5 159 c 128,-1,23
 467 136 467 136 467 110 c 0,24,25
 467 83 467 83 457.5 60.5 c 128,-1,26
 448 38 448 38 431 21 c 128,-1,27
 414 4 414 4 391 -5.5 c 128,-1,28
 368 -15 368 -15 342 -15 c 256,29,30
 316 -15 316 -15 293 -5.5 c 128,-1,31
 270 4 270 4 253.5 21 c 128,-1,32
 237 38 237 38 227.5 60.5 c 128,-1,33
 218 83 218 83 218 110 c 0,14,15
EndSplineSet
EndChar

StartChar: quotedbl
Encoding: 34 34 4
Width: 794
Flags: W
LayerCount: 2
Fore
SplineSet
307 1433 m 1,0,-1
 307 1143 l 1,1,-1
 291 988 l 2,2,3
 288 956 288 956 274 938.5 c 128,-1,4
 260 921 260 921 229 921 c 0,5,6
 203 921 203 921 188.5 938.5 c 128,-1,7
 174 956 174 956 168 988 c 2,8,-1
 152 1143 l 1,9,-1
 152 1433 l 1,10,-1
 307 1433 l 1,0,-1
640 1433 m 1,11,-1
 640 1143 l 1,12,-1
 624 988 l 2,13,14
 621 956 621 956 607 938.5 c 128,-1,15
 593 921 593 921 562 921 c 0,16,17
 536 921 536 921 521.5 938.5 c 128,-1,18
 507 956 507 956 501 988 c 2,19,-1
 485 1143 l 1,20,-1
 485 1433 l 1,21,-1
 640 1433 l 1,11,-1
EndSplineSet
EndChar

StartChar: numbersign
Encoding: 35 35 5
Width: 1160
Flags: W
LayerCount: 2
Fore
SplineSet
790 423 m 1,0,-1
 706 0 l 1,1,-1
 625 0 l 2,2,3
 602 0 602 0 586 17 c 128,-1,4
 570 34 570 34 570 61 c 0,5,6
 570 65 570 65 570.5 68.5 c 128,-1,7
 571 72 571 72 572 77 c 2,8,-1
 643 423 l 1,9,-1
 396 423 l 1,10,-1
 325 68 l 2,11,12
 317 31 317 31 294.5 15.5 c 128,-1,13
 272 0 272 0 243 0 c 2,14,-1
 164 0 l 1,15,-1
 249 423 l 1,16,-1
 103 423 l 2,17,18
 80 423 80 423 67 434.5 c 128,-1,19
 54 446 54 446 54 474 c 0,20,21
 54 479 54 479 54.5 485 c 128,-1,22
 55 491 55 491 56 497 c 2,23,-1
 64 554 l 1,24,-1
 268 554 l 1,25,-1
 333 880 l 1,26,-1
 101 880 l 1,27,-1
 114 954 l 2,28,29
 119 983 119 983 137 997 c 128,-1,30
 155 1011 155 1011 194 1011 c 2,31,-1
 352 1011 l 1,32,-1
 424 1369 l 2,33,34
 430 1399 430 1399 451.5 1416 c 128,-1,35
 473 1433 473 1433 503 1433 c 2,36,-1
 583 1433 l 1,37,-1
 499 1011 l 1,38,-1
 746 1011 l 1,39,-1
 830 1433 l 1,40,-1
 909 1433 l 2,41,42
 934 1433 934 1433 950.5 1418 c 128,-1,43
 967 1403 967 1403 967 1379 c 0,44,45
 967 1371 967 1371 966 1366 c 2,46,-1
 893 1011 l 1,47,-1
 1105 1011 l 1,48,-1
 1092 936 l 2,49,50
 1087 907 1087 907 1068.5 893.5 c 128,-1,51
 1050 880 1050 880 1012 880 c 2,52,-1
 874 880 l 1,53,-1
 809 554 l 1,54,-1
 988 554 l 2,55,56
 1012 554 1012 554 1025 542.5 c 128,-1,57
 1038 531 1038 531 1038 502 c 0,58,59
 1038 497 1038 497 1037.5 491.5 c 128,-1,60
 1037 486 1037 486 1036 480 c 2,61,-1
 1027 423 l 1,62,-1
 790 423 l 1,0,-1
415 554 m 1,63,-1
 662 554 l 1,64,-1
 727 880 l 1,65,-1
 480 880 l 1,66,-1
 415 554 l 1,63,-1
EndSplineSet
EndChar

StartChar: dollar
Encoding: 36 36 6
Width: 1160
Flags: W
LayerCount: 2
Fore
SplineSet
498 -12 m 1,0,1
 377 -1 377 -1 277.5 47.5 c 128,-1,2
 178 96 178 96 106 171 c 1,3,-1
 159 253 l 2,4,5
 166 264 166 264 179 271 c 128,-1,6
 192 278 192 278 206 278 c 0,7,8
 225 278 225 278 249 259 c 128,-1,9
 273 240 273 240 308 215.5 c 128,-1,10
 343 191 343 191 391.5 168 c 128,-1,11
 440 145 440 145 508 137 c 1,12,-1
 545 668 l 1,13,14
 475 689 475 689 407.5 715.5 c 128,-1,15
 340 742 340 742 286.5 784.5 c 128,-1,16
 233 827 233 827 200.5 891.5 c 128,-1,17
 168 956 168 956 168 1053 c 0,18,19
 168 1126 168 1126 196.5 1195.5 c 128,-1,20
 225 1265 225 1265 279.5 1319 c 128,-1,21
 334 1373 334 1373 414 1407.5 c 128,-1,22
 494 1442 494 1442 598 1446 c 1,23,-1
 608 1590 l 2,24,25
 610 1609 610 1609 623 1624 c 128,-1,26
 636 1639 636 1639 658 1639 c 2,27,-1
 724 1639 l 1,28,-1
 710 1441 l 1,29,30
 815 1428 815 1428 891 1387 c 128,-1,31
 967 1346 967 1346 1027 1288 c 1,32,-1
 984 1222 l 2,33,34
 964 1192 964 1192 938 1192 c 0,35,36
 924 1192 924 1192 903.5 1204.5 c 128,-1,37
 883 1217 883 1217 854 1233.5 c 128,-1,38
 825 1250 825 1250 787 1266.5 c 128,-1,39
 749 1283 749 1283 700 1290 c 1,40,-1
 667 806 l 1,41,42
 739 784 739 784 809 758 c 128,-1,43
 879 732 879 732 935 691 c 128,-1,44
 991 650 991 650 1025.5 588.5 c 128,-1,45
 1060 527 1060 527 1060 435 c 0,46,47
 1060 345 1060 345 1030 266 c 128,-1,48
 1000 187 1000 187 942.5 127 c 128,-1,49
 885 67 885 67 801.5 29.5 c 128,-1,50
 718 -8 718 -8 611 -14 c 1,51,-1
 599 -190 l 2,52,53
 597 -209 597 -209 583.5 -223.5 c 128,-1,54
 570 -238 570 -238 549 -238 c 2,55,-1
 483 -238 l 1,56,-1
 498 -12 l 1,0,1
891 407 m 0,57,58
 891 457 891 457 872.5 493 c 128,-1,59
 854 529 854 529 822 555 c 128,-1,60
 790 581 790 581 747 600 c 128,-1,61
 704 619 704 619 655 635 c 1,62,-1
 621 137 l 1,63,64
 686 143 686 143 736.5 165.5 c 128,-1,65
 787 188 787 188 821.5 223 c 128,-1,66
 856 258 856 258 873.5 304.5 c 128,-1,67
 891 351 891 351 891 407 c 0,57,58
336 1071 m 0,68,69
 336 1023 336 1023 353 987.5 c 128,-1,70
 370 952 370 952 400 925 c 128,-1,71
 430 898 430 898 470 878 c 128,-1,72
 510 858 510 858 557 842 c 1,73,-1
 587 1293 l 1,74,75
 522 1287 522 1287 474.5 1267 c 128,-1,76
 427 1247 427 1247 396.5 1217 c 128,-1,77
 366 1187 366 1187 351 1149.5 c 128,-1,78
 336 1112 336 1112 336 1071 c 0,68,69
EndSplineSet
EndChar

StartChar: percent
Encoding: 37 37 7
Width: 1572
Flags: W
LayerCount: 2
Fore
SplineSet
707 1087 m 0,0,1
 707 1003 707 1003 681 936.5 c 128,-1,2
 655 870 655 870 611.5 824.5 c 128,-1,3
 568 779 568 779 510 755 c 128,-1,4
 452 731 452 731 389 731 c 0,5,6
 321 731 321 731 263.5 755 c 128,-1,7
 206 779 206 779 163 824.5 c 128,-1,8
 120 870 120 870 96 936.5 c 128,-1,9
 72 1003 72 1003 72 1087 c 0,10,11
 72 1173 72 1173 96 1240 c 128,-1,12
 120 1307 120 1307 163 1353 c 128,-1,13
 206 1399 206 1399 263.5 1423 c 128,-1,14
 321 1447 321 1447 389 1447 c 0,15,16
 456 1447 456 1447 514.5 1423 c 128,-1,17
 573 1399 573 1399 615.5 1353 c 128,-1,18
 658 1307 658 1307 682.5 1240 c 128,-1,19
 707 1173 707 1173 707 1087 c 0,0,1
568 1087 m 0,20,21
 568 1153 568 1153 554 1199 c 128,-1,22
 540 1245 540 1245 515.5 1274.5 c 128,-1,23
 491 1304 491 1304 458.5 1317 c 128,-1,24
 426 1330 426 1330 389 1330 c 256,25,26
 352 1330 352 1330 319.5 1317 c 128,-1,27
 287 1304 287 1304 263 1274.5 c 128,-1,28
 239 1245 239 1245 225.5 1199 c 128,-1,29
 212 1153 212 1153 212 1087 c 0,30,31
 212 1022 212 1022 225.5 976.5 c 128,-1,32
 239 931 239 931 263 902.5 c 128,-1,33
 287 874 287 874 319.5 861.5 c 128,-1,34
 352 849 352 849 389 849 c 256,35,36
 426 849 426 849 458.5 861.5 c 128,-1,37
 491 874 491 874 515.5 902.5 c 128,-1,38
 540 931 540 931 554 976.5 c 128,-1,39
 568 1022 568 1022 568 1087 c 0,20,21
1208 1397 m 2,40,41
 1221 1414 1221 1414 1235.5 1423.5 c 128,-1,42
 1250 1433 1250 1433 1274 1433 c 2,43,-1
 1402 1433 l 1,44,-1
 355 29 l 2,45,46
 345 16 345 16 331 8 c 128,-1,47
 317 0 317 0 298 0 c 2,48,-1
 166 0 l 1,49,-1
 1208 1397 l 2,40,41
1499 338 m 0,50,51
 1499 254 1499 254 1473 188 c 128,-1,52
 1447 122 1447 122 1403.5 76.5 c 128,-1,53
 1360 31 1360 31 1302.5 7 c 128,-1,54
 1245 -17 1245 -17 1182 -17 c 0,55,56
 1114 -17 1114 -17 1056.5 7 c 128,-1,57
 999 31 999 31 956 76.5 c 128,-1,58
 913 122 913 122 889 188 c 128,-1,59
 865 254 865 254 865 338 c 0,60,61
 865 424 865 424 889 491.5 c 128,-1,62
 913 559 913 559 956 605 c 128,-1,63
 999 651 999 651 1056.5 675 c 128,-1,64
 1114 699 1114 699 1182 699 c 0,65,66
 1249 699 1249 699 1307 675 c 128,-1,67
 1365 651 1365 651 1408 605 c 128,-1,68
 1451 559 1451 559 1475 491.5 c 128,-1,69
 1499 424 1499 424 1499 338 c 0,50,51
1361 338 m 0,70,71
 1361 404 1361 404 1347 450.5 c 128,-1,72
 1333 497 1333 497 1308.5 526 c 128,-1,73
 1284 555 1284 555 1251.5 568 c 128,-1,74
 1219 581 1219 581 1182 581 c 256,75,76
 1145 581 1145 581 1112.5 568 c 128,-1,77
 1080 555 1080 555 1056 526 c 128,-1,78
 1032 497 1032 497 1018.5 450.5 c 128,-1,79
 1005 404 1005 404 1005 338 c 0,80,81
 1005 273 1005 273 1018.5 228 c 128,-1,82
 1032 183 1032 183 1056 154.5 c 128,-1,83
 1080 126 1080 126 1112.5 113.5 c 128,-1,84
 1145 101 1145 101 1182 101 c 256,85,86
 1219 101 1219 101 1251.5 113.5 c 128,-1,87
 1284 126 1284 126 1308.5 154.5 c 128,-1,88
 1333 183 1333 183 1347 228 c 128,-1,89
 1361 273 1361 273 1361 338 c 0,70,71
EndSplineSet
EndChar

StartChar: ampersand
Encoding: 38 38 8
Width: 1406
Flags: W
LayerCount: 2
Fore
SplineSet
660 1449 m 0,0,1
 739 1449 739 1449 804 1423.5 c 128,-1,2
 869 1398 869 1398 916.5 1356 c 128,-1,3
 964 1314 964 1314 991.5 1258.5 c 128,-1,4
 1019 1203 1019 1203 1023 1143 c 1,5,-1
 912 1121 l 2,6,7
 907 1120 907 1120 903 1120 c 0,8,9
 890 1120 890 1120 878.5 1127 c 128,-1,10
 867 1134 867 1134 862 1152 c 0,11,12
 855 1178 855 1178 839.5 1206 c 128,-1,13
 824 1234 824 1234 799.5 1257 c 128,-1,14
 775 1280 775 1280 740.5 1295 c 128,-1,15
 706 1310 706 1310 660 1310 c 0,16,17
 610 1310 610 1310 570 1294 c 128,-1,18
 530 1278 530 1278 501.5 1249.5 c 128,-1,19
 473 1221 473 1221 457.5 1182.5 c 128,-1,20
 442 1144 442 1144 442 1099 c 0,21,22
 442 1064 442 1064 450.5 1032 c 128,-1,23
 459 1000 459 1000 476 967.5 c 128,-1,24
 493 935 493 935 520 900.5 c 128,-1,25
 547 866 547 866 585 828 c 2,26,-1
 997 409 l 1,27,28
 1035 476 1035 476 1057.5 549.5 c 128,-1,29
 1080 623 1080 623 1088 697 c 0,30,31
 1090 716 1090 716 1100 727 c 128,-1,32
 1110 738 1110 738 1128 738 c 2,33,-1
 1238 738 l 1,34,35
 1236 623 1236 623 1201 512 c 128,-1,36
 1166 401 1166 401 1100 304 c 1,37,-1
 1400 0 l 1,38,-1
 1228 0 l 2,39,40
 1199 0 1199 0 1181 7 c 128,-1,41
 1163 14 1163 14 1141 36 c 2,42,-1
 997 181 l 1,43,44
 903 90 903 90 780.5 37 c 128,-1,45
 658 -16 658 -16 511 -16 c 0,46,47
 431 -16 431 -16 354 11 c 128,-1,48
 277 38 277 38 216.5 89.5 c 128,-1,49
 156 141 156 141 119 215 c 128,-1,50
 82 289 82 289 82 382 c 0,51,52
 82 452 82 452 105.5 514.5 c 128,-1,53
 129 577 129 577 170.5 630 c 128,-1,54
 212 683 212 683 269 725 c 128,-1,55
 326 767 326 767 394 797 c 1,56,57
 333 874 333 874 304 947 c 128,-1,58
 275 1020 275 1020 275 1098 c 0,59,60
 275 1171 275 1171 301.5 1235 c 128,-1,61
 328 1299 328 1299 378 1346.5 c 128,-1,62
 428 1394 428 1394 499.5 1421.5 c 128,-1,63
 571 1449 571 1449 660 1449 c 0,0,1
263 396 m 0,64,65
 263 331 263 331 287 281.5 c 128,-1,66
 311 232 311 232 350 198 c 128,-1,67
 389 164 389 164 439 146.5 c 128,-1,68
 489 129 489 129 541 129 c 0,69,70
 653 129 653 129 742 170 c 128,-1,71
 831 211 831 211 899 279 c 1,72,-1
 476 706 l 1,73,74
 370 649 370 649 316.5 569.5 c 128,-1,75
 263 490 263 490 263 396 c 0,64,65
EndSplineSet
EndChar

StartChar: quotesingle
Encoding: 39 39 9
Width: 460
Flags: W
LayerCount: 2
Fore
SplineSet
307 1433 m 1,0,-1
 307 1143 l 1,1,-1
 291 988 l 2,2,3
 288 956 288 956 274 938.5 c 128,-1,4
 260 921 260 921 229 921 c 0,5,6
 203 921 203 921 188.5 938.5 c 128,-1,7
 174 956 174 956 168 988 c 2,8,-1
 152 1143 l 1,9,-1
 152 1433 l 1,10,-1
 307 1433 l 1,0,-1
EndSplineSet
EndChar

StartChar: parenleft
Encoding: 40 40 10
Width: 600
Flags: W
LayerCount: 2
Fore
SplineSet
289 629 m 256,0,1
 289 415 289 415 344 213.5 c 128,-1,2
 399 12 399 12 503 -171 c 0,3,4
 509 -182 509 -182 511 -190 c 128,-1,5
 513 -198 513 -198 513 -206 c 0,6,7
 513 -220 513 -220 506 -229 c 128,-1,8
 499 -238 499 -238 488 -245 c 2,9,-1
 409 -293 l 1,10,11
 334 -178 334 -178 281.5 -65 c 128,-1,12
 229 48 229 48 196.5 162 c 128,-1,13
 164 276 164 276 149 391.5 c 128,-1,14
 134 507 134 507 134 629 c 0,15,16
 134 750 134 750 149 866 c 128,-1,17
 164 982 164 982 196.5 1095.5 c 128,-1,18
 229 1209 229 1209 281.5 1322 c 128,-1,19
 334 1435 334 1435 409 1551 c 1,20,-1
 488 1502 l 2,21,22
 499 1495 499 1495 506 1486 c 128,-1,23
 513 1477 513 1477 513 1463 c 0,24,25
 513 1448 513 1448 503 1429 c 0,26,27
 398 1247 398 1247 343.5 1045 c 128,-1,28
 289 843 289 843 289 629 c 256,0,1
EndSplineSet
EndChar

StartChar: parenright
Encoding: 41 41 11
Width: 600
Flags: W
LayerCount: 2
Fore
SplineSet
298 629 m 256,0,1
 298 843 298 843 243.5 1045 c 128,-1,2
 189 1247 189 1247 84 1429 c 0,3,4
 74 1448 74 1448 74 1463 c 0,5,6
 74 1477 74 1477 81 1486 c 128,-1,7
 88 1495 88 1495 99 1502 c 2,8,-1
 178 1551 l 1,9,10
 253 1435 253 1435 305.5 1322 c 128,-1,11
 358 1209 358 1209 390.5 1095.5 c 128,-1,12
 423 982 423 982 438 866 c 128,-1,13
 453 750 453 750 453 629 c 0,14,15
 453 507 453 507 438 391.5 c 128,-1,16
 423 276 423 276 390.5 162 c 128,-1,17
 358 48 358 48 305.5 -65 c 128,-1,18
 253 -178 253 -178 178 -293 c 1,19,-1
 99 -245 l 2,20,21
 88 -238 88 -238 81 -229 c 128,-1,22
 74 -220 74 -220 74 -206 c 0,23,24
 74 -198 74 -198 76 -190 c 128,-1,25
 78 -182 78 -182 84 -171 c 0,26,27
 188 12 188 12 243 213.5 c 128,-1,28
 298 415 298 415 298 629 c 256,0,1
EndSplineSet
EndChar

StartChar: asterisk
Encoding: 42 42 12
Width: 800
Flags: W
LayerCount: 2
Fore
SplineSet
354 863 m 1,0,-1
 354 1060 l 2,1,2
 354 1079 354 1079 356.5 1096 c 128,-1,3
 359 1113 359 1113 366 1129 c 1,4,5
 346 1104 346 1104 313 1084 c 2,6,-1
 141 985 l 1,7,-1
 97 1060 l 1,8,-1
 269 1160 l 2,9,10
 305 1181 305 1181 342 1184 c 1,11,12
 322 1186 322 1186 304.5 1191.5 c 128,-1,13
 287 1197 287 1197 269 1209 c 2,14,-1
 96 1310 l 1,15,-1
 140 1385 l 1,16,-1
 313 1285 l 2,17,18
 348 1265 348 1265 370 1233 c 1,19,20
 361 1251 361 1251 357.5 1269.5 c 128,-1,21
 354 1288 354 1288 354 1308 c 2,22,-1
 354 1506 l 1,23,-1
 442 1506 l 1,24,-1
 442 1309 l 2,25,26
 442 1268 442 1268 428 1237 c 1,27,28
 439 1252 439 1252 452.5 1263 c 128,-1,29
 466 1274 466 1274 483 1285 c 2,30,-1
 655 1384 l 1,31,-1
 699 1309 l 1,32,-1
 527 1209 l 2,33,34
 510 1198 510 1198 493.5 1192 c 128,-1,35
 477 1186 477 1186 459 1184 c 1,36,37
 477 1182 477 1182 493.5 1176.5 c 128,-1,38
 510 1171 510 1171 527 1160 c 2,39,-1
 700 1059 l 1,40,-1
 656 984 l 1,41,-1
 483 1084 l 2,42,43
 465 1095 465 1095 451 1106 c 128,-1,44
 437 1117 437 1117 426 1133 c 1,45,46
 442 1100 442 1100 442 1061 c 2,47,-1
 442 863 l 1,48,-1
 354 863 l 1,0,-1
EndSplineSet
EndChar

StartChar: plus
Encoding: 43 43 13
Width: 1160
Flags: W
LayerCount: 2
Fore
SplineSet
651 1166 m 1,0,-1
 651 739 l 1,1,-1
 1058 739 l 1,2,-1
 1058 604 l 1,3,-1
 651 604 l 1,4,-1
 651 174 l 1,5,-1
 505 174 l 1,6,-1
 505 604 l 1,7,-1
 100 604 l 1,8,-1
 100 739 l 1,9,-1
 505 739 l 1,10,-1
 505 1166 l 1,11,-1
 651 1166 l 1,0,-1
EndSplineSet
EndChar

StartChar: comma
Encoding: 44 44 14
Width: 424
Flags: W
LayerCount: 2
Fore
SplineSet
94 123 m 0,0,1
 94 146 94 146 102.5 166.5 c 128,-1,2
 111 187 111 187 126.5 202.5 c 128,-1,3
 142 218 142 218 164 227 c 128,-1,4
 186 236 186 236 212 236 c 0,5,6
 242 236 242 236 265.5 225 c 128,-1,7
 289 214 289 214 304.5 194.5 c 128,-1,8
 320 175 320 175 328 149.5 c 128,-1,9
 336 124 336 124 336 94 c 0,10,11
 336 49 336 49 323 0.5 c 128,-1,12
 310 -48 310 -48 286 -95.5 c 128,-1,13
 262 -143 262 -143 226.5 -188 c 128,-1,14
 191 -233 191 -233 146 -271 c 1,15,-1
 116 -242 l 2,16,17
 103 -230 103 -230 103 -214 c 0,18,19
 103 -201 103 -201 117 -187 c 0,20,21
 127 -176 127 -176 142.5 -157.5 c 128,-1,22
 158 -139 158 -139 174 -115 c 128,-1,23
 190 -91 190 -91 203.5 -62 c 128,-1,24
 217 -33 217 -33 223 0 c 1,25,-1
 210 0 l 2,26,27
 184 0 184 0 163 9 c 128,-1,28
 142 18 142 18 126.5 34.5 c 128,-1,29
 111 51 111 51 102.5 73.5 c 128,-1,30
 94 96 94 96 94 123 c 0,0,1
EndSplineSet
EndChar

StartChar: hyphen
Encoding: 45 45 15
Width: 694
Flags: W
LayerCount: 2
Fore
SplineSet
100 675 m 1,0,-1
 594 675 l 1,1,-1
 594 524 l 1,2,-1
 100 524 l 1,3,-1
 100 675 l 1,0,-1
EndSplineSet
EndChar

StartChar: period
Encoding: 46 46 16
Width: 424
Flags: W
LayerCount: 2
Fore
SplineSet
88 110 m 0,0,1
 88 136 88 136 97.5 159 c 128,-1,2
 107 182 107 182 123.5 199 c 128,-1,3
 140 216 140 216 163 226 c 128,-1,4
 186 236 186 236 212 236 c 256,5,6
 238 236 238 236 261 226 c 128,-1,7
 284 216 284 216 301 199 c 128,-1,8
 318 182 318 182 327.5 159 c 128,-1,9
 337 136 337 136 337 110 c 0,10,11
 337 83 337 83 327.5 60.5 c 128,-1,12
 318 38 318 38 301 21 c 128,-1,13
 284 4 284 4 261 -5.5 c 128,-1,14
 238 -15 238 -15 212 -15 c 256,15,16
 186 -15 186 -15 163 -5.5 c 128,-1,17
 140 4 140 4 123.5 21 c 128,-1,18
 107 38 107 38 97.5 60.5 c 128,-1,19
 88 83 88 83 88 110 c 0,0,1
EndSplineSet
EndChar

StartChar: slash
Encoding: 47 47 17
Width: 746
Flags: W
LayerCount: 2
Fore
SplineSet
161 -21 m 2,0,1
 147 -56 147 -56 119.5 -73 c 128,-1,2
 92 -90 92 -90 63 -90 c 2,3,-1
 -12 -90 l 1,4,-1
 589 1407 l 2,5,6
 602 1439 602 1439 626 1456 c 128,-1,7
 650 1473 650 1473 683 1473 c 2,8,-1
 758 1473 l 1,9,-1
 161 -21 l 2,0,1
EndSplineSet
EndChar

StartChar: zero
Encoding: 48 48 18
Width: 1009
Flags: W
LayerCount: 2
Fore
SplineSet
104.958984375 166.65234375 m 4,0,1
 104.958984375 204.53125 104.958984375 204.53125 135.389648438 237.885742188 c 132,-1,2
 165.8203125 271.241210938 165.8203125 271.241210938 219.376953125 295.833007812 c 132,-1,3
 272.935546875 320.426757812 272.935546875 320.426757812 345.360351562 334.560546875 c 132,-1,4
 417.784179688 348.693359375 417.784179688 348.693359375 501.772460938 348.693359375 c 260,5,6
 585.759765625 348.693359375 585.759765625 348.693359375 658.18359375 334.560546875 c 132,-1,7
 730.608398438 320.426757812 730.608398438 320.426757812 784.166015625 295.833007812 c 132,-1,8
 837.723632812 271.241210938 837.723632812 271.241210938 868.154296875 237.885742188 c 132,-1,9
 898.583984375 204.53125 898.583984375 204.53125 898.583984375 166.65234375 c 4,10,11
 898.583984375 129.337890625 898.583984375 129.337890625 868.154296875 96.263671875 c 132,-1,12
 837.723632812 63.1923828125 837.723632812 63.1923828125 784.166015625 38.5986328125 c 132,-1,13
 730.608398438 14.0068359375 730.608398438 14.0068359375 658.18359375 -0.41015625 c 132,-1,14
 585.759765625 -14.826171875 585.759765625 -14.826171875 501.772460938 -14.826171875 c 260,15,16
 417.784179688 -14.826171875 417.784179688 -14.826171875 345.360351562 -0.41015625 c 132,-1,17
 272.935546875 14.0068359375 272.935546875 14.0068359375 219.376953125 38.5986328125 c 132,-1,18
 165.8203125 63.1923828125 165.8203125 63.1923828125 135.389648438 96.263671875 c 132,-1,19
 104.958984375 129.337890625 104.958984375 129.337890625 104.958984375 166.65234375 c 4,0,1
259.545898438 166.084960938 m 260,20,21
 259.545898438 142.340820312 259.545898438 142.340820312 277.803710938 121.705078125 c 132,-1,22
 296.0625 101.0703125 296.0625 101.0703125 328.927734375 85.806640625 c 132,-1,23
 361.791015625 70.5419921875 361.791015625 70.5419921875 406.220703125 61.7783203125 c 132,-1,24
 450.6484375 53.015625 450.6484375 53.015625 501.772460938 53.015625 c 260,25,26
 552.89453125 53.015625 552.89453125 53.015625 596.713867188 61.7783203125 c 132,-1,27
 640.53515625 70.5419921875 640.53515625 70.5419921875 673.3984375 85.806640625 c 132,-1,28
 706.263671875 101.0703125 706.263671875 101.0703125 724.5234375 121.705078125 c 132,-1,29
 742.780273438 142.340820312 742.780273438 142.340820312 742.780273438 166.084960938 c 260,30,31
 742.780273438 189.831054688 742.780273438 189.831054688 724.5234375 210.748046875 c 132,-1,32
 706.263671875 231.666015625 706.263671875 231.666015625 673.3984375 247.213867188 c 132,-1,33
 640.53515625 262.760742188 640.53515625 262.760742188 596.713867188 271.5234375 c 132,-1,34
 552.89453125 280.287109375 552.89453125 280.287109375 501.772460938 280.287109375 c 260,35,36
 450.6484375 280.287109375 450.6484375 280.287109375 406.220703125 271.5234375 c 132,-1,37
 361.791015625 262.760742188 361.791015625 262.760742188 328.927734375 247.213867188 c 132,-1,38
 296.0625 231.666015625 296.0625 231.666015625 277.803710938 210.748046875 c 132,-1,39
 259.545898438 189.831054688 259.545898438 189.831054688 259.545898438 166.084960938 c 260,20,21
104.958984375 576.107421875 m 4,40,41
 104.958984375 613.986328125 104.958984375 613.986328125 135.389648438 647.341796875 c 132,-1,42
 165.8203125 680.698242188 165.8203125 680.698242188 219.376953125 705.291015625 c 132,-1,43
 272.935546875 729.8828125 272.935546875 729.8828125 345.360351562 744.016601562 c 132,-1,44
 417.784179688 758.150390625 417.784179688 758.150390625 501.772460938 758.150390625 c 260,45,46
 585.759765625 758.150390625 585.759765625 758.150390625 658.18359375 744.016601562 c 132,-1,47
 730.608398438 729.8828125 730.608398438 729.8828125 784.166015625 705.291015625 c 132,-1,48
 837.723632812 680.698242188 837.723632812 680.698242188 868.154296875 647.341796875 c 132,-1,49
 898.583984375 613.986328125 898.583984375 613.986328125 898.583984375 576.107421875 c 4,50,51
 898.583984375 538.793945312 898.583984375 538.793945312 868.154296875 505.721679688 c 132,-1,52
 837.723632812 472.6484375 837.723632812 472.6484375 784.166015625 448.055664062 c 132,-1,53
 730.608398438 423.462890625 730.608398438 423.462890625 658.18359375 409.046875 c 132,-1,54
 585.759765625 394.630859375 585.759765625 394.630859375 501.772460938 394.630859375 c 260,55,56
 417.784179688 394.630859375 417.784179688 394.630859375 345.360351562 409.046875 c 132,-1,57
 272.935546875 423.462890625 272.935546875 423.462890625 219.376953125 448.055664062 c 132,-1,58
 165.8203125 472.6484375 165.8203125 472.6484375 135.389648438 505.721679688 c 132,-1,59
 104.958984375 538.793945312 104.958984375 538.793945312 104.958984375 576.107421875 c 4,40,41
259.545898438 575.54296875 m 260,60,61
 259.545898438 551.796875 259.545898438 551.796875 277.803710938 531.162109375 c 132,-1,62
 296.0625 510.52734375 296.0625 510.52734375 328.927734375 495.262695312 c 132,-1,63
 361.791015625 479.998046875 361.791015625 479.998046875 406.220703125 471.235351562 c 132,-1,64
 450.6484375 462.470703125 450.6484375 462.470703125 501.772460938 462.470703125 c 260,65,66
 552.89453125 462.470703125 552.89453125 462.470703125 596.713867188 471.235351562 c 132,-1,67
 640.53515625 479.998046875 640.53515625 479.998046875 673.3984375 495.262695312 c 132,-1,68
 706.263671875 510.52734375 706.263671875 510.52734375 724.5234375 531.162109375 c 132,-1,69
 742.780273438 551.796875 742.780273438 551.796875 742.780273438 575.54296875 c 260,70,71
 742.780273438 599.286132812 742.780273438 599.286132812 724.5234375 620.205078125 c 132,-1,72
 706.263671875 641.123046875 706.263671875 641.123046875 673.3984375 656.669921875 c 132,-1,73
 640.53515625 672.215820312 640.53515625 672.215820312 596.713867188 680.979492188 c 132,-1,74
 552.89453125 689.7421875 552.89453125 689.7421875 501.772460938 689.7421875 c 260,75,76
 450.6484375 689.7421875 450.6484375 689.7421875 406.220703125 680.979492188 c 132,-1,77
 361.791015625 672.215820312 361.791015625 672.215820312 328.927734375 656.669921875 c 132,-1,78
 296.0625 641.123046875 296.0625 641.123046875 277.803710938 620.205078125 c 132,-1,79
 259.545898438 599.286132812 259.545898438 599.286132812 259.545898438 575.54296875 c 260,60,61
104.958984375 989.3203125 m 4,80,81
 104.958984375 1027.19921875 104.958984375 1027.19921875 135.389648438 1060.55566406 c 132,-1,82
 165.8203125 1093.91015625 165.8203125 1093.91015625 219.376953125 1118.50292969 c 132,-1,83
 272.935546875 1143.09570312 272.935546875 1143.09570312 345.360351562 1157.22949219 c 132,-1,84
 417.784179688 1171.36328125 417.784179688 1171.36328125 501.772460938 1171.36328125 c 260,85,86
 585.759765625 1171.36328125 585.759765625 1171.36328125 658.18359375 1157.22949219 c 132,-1,87
 730.608398438 1143.09570312 730.608398438 1143.09570312 784.166015625 1118.50292969 c 132,-1,88
 837.723632812 1093.91015625 837.723632812 1093.91015625 868.154296875 1060.55566406 c 132,-1,89
 898.583984375 1027.19921875 898.583984375 1027.19921875 898.583984375 989.3203125 c 4,90,91
 898.583984375 952.0078125 898.583984375 952.0078125 868.154296875 918.934570312 c 132,-1,92
 837.723632812 885.861328125 837.723632812 885.861328125 784.166015625 861.268554688 c 132,-1,93
 730.608398438 836.674804688 730.608398438 836.674804688 658.18359375 822.260742188 c 132,-1,94
 585.759765625 807.842773438 585.759765625 807.842773438 501.772460938 807.842773438 c 260,95,96
 417.784179688 807.842773438 417.784179688 807.842773438 345.360351562 822.260742188 c 132,-1,97
 272.935546875 836.674804688 272.935546875 836.674804688 219.376953125 861.268554688 c 132,-1,98
 165.8203125 885.861328125 165.8203125 885.861328125 135.389648438 918.934570312 c 132,-1,99
 104.958984375 952.0078125 104.958984375 952.0078125 104.958984375 989.3203125 c 4,80,81
259.545898438 988.754882812 m 260,100,101
 259.545898438 965.009765625 259.545898438 965.009765625 277.803710938 944.375 c 132,-1,102
 296.0625 923.740234375 296.0625 923.740234375 328.927734375 908.475585938 c 132,-1,103
 361.791015625 893.2109375 361.791015625 893.2109375 406.220703125 884.448242188 c 132,-1,104
 450.6484375 875.684570312 450.6484375 875.684570312 501.772460938 875.684570312 c 260,105,106
 552.89453125 875.684570312 552.89453125 875.684570312 596.713867188 884.448242188 c 132,-1,107
 640.53515625 893.2109375 640.53515625 893.2109375 673.3984375 908.475585938 c 132,-1,108
 706.263671875 923.740234375 706.263671875 923.740234375 724.5234375 944.375 c 132,-1,109
 742.780273438 965.009765625 742.780273438 965.009765625 742.780273438 988.754882812 c 260,110,111
 742.780273438 1012.49902344 742.780273438 1012.49902344 724.5234375 1033.41796875 c 132,-1,112
 706.263671875 1054.3359375 706.263671875 1054.3359375 673.3984375 1069.8828125 c 132,-1,113
 640.53515625 1085.42871094 640.53515625 1085.42871094 596.713867188 1094.19335938 c 132,-1,114
 552.89453125 1102.95605469 552.89453125 1102.95605469 501.772460938 1102.95605469 c 260,115,116
 450.6484375 1102.95605469 450.6484375 1102.95605469 406.220703125 1094.19335938 c 132,-1,117
 361.791015625 1085.42871094 361.791015625 1085.42871094 328.927734375 1069.8828125 c 132,-1,118
 296.0625 1054.3359375 296.0625 1054.3359375 277.803710938 1033.41796875 c 132,-1,119
 259.545898438 1012.49902344 259.545898438 1012.49902344 259.545898438 988.754882812 c 260,100,101
104.958984375 1398.77636719 m 4,120,121
 104.958984375 1436.65527344 104.958984375 1436.65527344 135.389648438 1470.01074219 c 132,-1,122
 165.8203125 1503.3671875 165.8203125 1503.3671875 219.376953125 1527.95898438 c 132,-1,123
 272.935546875 1552.55175781 272.935546875 1552.55175781 345.360351562 1566.68457031 c 132,-1,124
 417.784179688 1580.81835938 417.784179688 1580.81835938 501.772460938 1580.81835938 c 260,125,126
 585.759765625 1580.81835938 585.759765625 1580.81835938 658.18359375 1566.68457031 c 132,-1,127
 730.608398438 1552.55175781 730.608398438 1552.55175781 784.166015625 1527.95898438 c 132,-1,128
 837.723632812 1503.3671875 837.723632812 1503.3671875 868.154296875 1470.01074219 c 132,-1,129
 898.583984375 1436.65527344 898.583984375 1436.65527344 898.583984375 1398.77636719 c 4,130,131
 898.583984375 1361.46386719 898.583984375 1361.46386719 868.154296875 1328.390625 c 132,-1,132
 837.723632812 1295.31738281 837.723632812 1295.31738281 784.166015625 1270.72460938 c 132,-1,133
 730.608398438 1246.1328125 730.608398438 1246.1328125 658.18359375 1231.71679688 c 132,-1,134
 585.759765625 1217.29882812 585.759765625 1217.29882812 501.772460938 1217.29882812 c 260,135,136
 417.784179688 1217.29882812 417.784179688 1217.29882812 345.360351562 1231.71679688 c 132,-1,137
 272.935546875 1246.1328125 272.935546875 1246.1328125 219.376953125 1270.72460938 c 132,-1,138
 165.8203125 1295.31738281 165.8203125 1295.31738281 135.389648438 1328.390625 c 132,-1,139
 104.958984375 1361.46386719 104.958984375 1361.46386719 104.958984375 1398.77636719 c 4,120,121
259.545898438 1398.2109375 m 260,140,141
 259.545898438 1374.46679688 259.545898438 1374.46679688 277.803710938 1353.83105469 c 132,-1,142
 296.0625 1333.19628906 296.0625 1333.19628906 328.927734375 1317.93164062 c 132,-1,143
 361.791015625 1302.66699219 361.791015625 1302.66699219 406.220703125 1293.90332031 c 132,-1,144
 450.6484375 1285.14160156 450.6484375 1285.14160156 501.772460938 1285.14160156 c 260,145,146
 552.89453125 1285.14160156 552.89453125 1285.14160156 596.713867188 1293.90332031 c 132,-1,147
 640.53515625 1302.66699219 640.53515625 1302.66699219 673.3984375 1317.93164062 c 132,-1,148
 706.263671875 1333.19628906 706.263671875 1333.19628906 724.5234375 1353.83105469 c 132,-1,149
 742.780273438 1374.46679688 742.780273438 1374.46679688 742.780273438 1398.2109375 c 260,150,151
 742.780273438 1421.95605469 742.780273438 1421.95605469 724.5234375 1442.87402344 c 132,-1,152
 706.263671875 1463.79199219 706.263671875 1463.79199219 673.3984375 1479.33886719 c 132,-1,153
 640.53515625 1494.88671875 640.53515625 1494.88671875 596.713867188 1503.64941406 c 132,-1,154
 552.89453125 1512.41210938 552.89453125 1512.41210938 501.772460938 1512.41210938 c 260,155,156
 450.6484375 1512.41210938 450.6484375 1512.41210938 406.220703125 1503.64941406 c 132,-1,157
 361.791015625 1494.88671875 361.791015625 1494.88671875 328.927734375 1479.33886719 c 132,-1,158
 296.0625 1463.79199219 296.0625 1463.79199219 277.803710938 1442.87402344 c 132,-1,159
 259.545898438 1421.95605469 259.545898438 1421.95605469 259.545898438 1398.2109375 c 260,140,141
EndSplineSet
EndChar

StartChar: one
Encoding: 49 49 19
Width: 1009
Flags: W
LayerCount: 2
Fore
SplineSet
104.958984375 166.65234375 m 0,0,1
 104.958984375 204.53125 104.958984375 204.53125 135.389648438 237.885742188 c 128,-1,2
 165.8203125 271.241210938 165.8203125 271.241210938 219.376953125 295.833007812 c 128,-1,3
 272.935546875 320.426757812 272.935546875 320.426757812 345.360351562 334.560546875 c 128,-1,4
 417.784179688 348.693359375 417.784179688 348.693359375 501.772460938 348.693359375 c 256,5,6
 585.759765625 348.693359375 585.759765625 348.693359375 658.18359375 334.560546875 c 128,-1,7
 730.608398438 320.426757812 730.608398438 320.426757812 784.166015625 295.833007812 c 128,-1,8
 837.723632812 271.241210938 837.723632812 271.241210938 868.154296875 237.885742188 c 128,-1,9
 898.583984375 204.53125 898.583984375 204.53125 898.583984375 166.65234375 c 0,10,11
 898.583984375 129.337890625 898.583984375 129.337890625 868.154296875 96.263671875 c 128,-1,12
 837.723632812 63.1923828125 837.723632812 63.1923828125 784.166015625 38.5986328125 c 128,-1,13
 730.608398438 14.0068359375 730.608398438 14.0068359375 658.18359375 -0.41015625 c 128,-1,14
 585.759765625 -14.826171875 585.759765625 -14.826171875 501.772460938 -14.826171875 c 256,15,16
 417.784179688 -14.826171875 417.784179688 -14.826171875 345.360351562 -0.41015625 c 128,-1,17
 272.935546875 14.0068359375 272.935546875 14.0068359375 219.376953125 38.5986328125 c 128,-1,18
 165.8203125 63.1923828125 165.8203125 63.1923828125 135.389648438 96.263671875 c 128,-1,19
 104.958984375 129.337890625 104.958984375 129.337890625 104.958984375 166.65234375 c 0,0,1
104.958984375 576.107421875 m 0,20,21
 104.958984375 613.986328125 104.958984375 613.986328125 135.389648438 647.341796875 c 128,-1,22
 165.8203125 680.698242188 165.8203125 680.698242188 219.376953125 705.291015625 c 128,-1,23
 272.935546875 729.8828125 272.935546875 729.8828125 345.360351562 744.016601562 c 128,-1,24
 417.784179688 758.150390625 417.784179688 758.150390625 501.772460938 758.150390625 c 256,25,26
 585.759765625 758.150390625 585.759765625 758.150390625 658.18359375 744.016601562 c 128,-1,27
 730.608398438 729.8828125 730.608398438 729.8828125 784.166015625 705.291015625 c 128,-1,28
 837.723632812 680.698242188 837.723632812 680.698242188 868.154296875 647.341796875 c 128,-1,29
 898.583984375 613.986328125 898.583984375 613.986328125 898.583984375 576.107421875 c 0,30,31
 898.583984375 538.793945312 898.583984375 538.793945312 868.154296875 505.721679688 c 128,-1,32
 837.723632812 472.6484375 837.723632812 472.6484375 784.166015625 448.055664062 c 128,-1,33
 730.608398438 423.462890625 730.608398438 423.462890625 658.18359375 409.046875 c 128,-1,34
 585.759765625 394.630859375 585.759765625 394.630859375 501.772460938 394.630859375 c 256,35,36
 417.784179688 394.630859375 417.784179688 394.630859375 345.360351562 409.046875 c 128,-1,37
 272.935546875 423.462890625 272.935546875 423.462890625 219.376953125 448.055664062 c 128,-1,38
 165.8203125 472.6484375 165.8203125 472.6484375 135.389648438 505.721679688 c 128,-1,39
 104.958984375 538.793945312 104.958984375 538.793945312 104.958984375 576.107421875 c 0,20,21
259.545898438 575.54296875 m 256,40,41
 259.545898438 551.796875 259.545898438 551.796875 277.803710938 531.162109375 c 128,-1,42
 296.0625 510.52734375 296.0625 510.52734375 328.927734375 495.262695312 c 128,-1,43
 361.791015625 479.998046875 361.791015625 479.998046875 406.220703125 471.235351562 c 128,-1,44
 450.6484375 462.470703125 450.6484375 462.470703125 501.772460938 462.470703125 c 256,45,46
 552.89453125 462.470703125 552.89453125 462.470703125 596.713867188 471.235351562 c 128,-1,47
 640.53515625 479.998046875 640.53515625 479.998046875 673.3984375 495.262695312 c 128,-1,48
 706.263671875 510.52734375 706.263671875 510.52734375 724.5234375 531.162109375 c 128,-1,49
 742.780273438 551.796875 742.780273438 551.796875 742.780273438 575.54296875 c 256,50,51
 742.780273438 599.286132812 742.780273438 599.286132812 724.5234375 620.205078125 c 128,-1,52
 706.263671875 641.123046875 706.263671875 641.123046875 673.3984375 656.669921875 c 128,-1,53
 640.53515625 672.215820312 640.53515625 672.215820312 596.713867188 680.979492188 c 128,-1,54
 552.89453125 689.7421875 552.89453125 689.7421875 501.772460938 689.7421875 c 256,55,56
 450.6484375 689.7421875 450.6484375 689.7421875 406.220703125 680.979492188 c 128,-1,57
 361.791015625 672.215820312 361.791015625 672.215820312 328.927734375 656.669921875 c 128,-1,58
 296.0625 641.123046875 296.0625 641.123046875 277.803710938 620.205078125 c 128,-1,59
 259.545898438 599.286132812 259.545898438 599.286132812 259.545898438 575.54296875 c 256,40,41
104.958984375 989.3203125 m 0,60,61
 104.958984375 1027.19921875 104.958984375 1027.19921875 135.389648438 1060.55566406 c 128,-1,62
 165.8203125 1093.91015625 165.8203125 1093.91015625 219.376953125 1118.50292969 c 128,-1,63
 272.935546875 1143.09570312 272.935546875 1143.09570312 345.360351562 1157.22949219 c 128,-1,64
 417.784179688 1171.36328125 417.784179688 1171.36328125 501.772460938 1171.36328125 c 256,65,66
 585.759765625 1171.36328125 585.759765625 1171.36328125 658.18359375 1157.22949219 c 128,-1,67
 730.608398438 1143.09570312 730.608398438 1143.09570312 784.166015625 1118.50292969 c 128,-1,68
 837.723632812 1093.91015625 837.723632812 1093.91015625 868.154296875 1060.55566406 c 128,-1,69
 898.583984375 1027.19921875 898.583984375 1027.19921875 898.583984375 989.3203125 c 0,70,71
 898.583984375 952.0078125 898.583984375 952.0078125 868.154296875 918.934570312 c 128,-1,72
 837.723632812 885.861328125 837.723632812 885.861328125 784.166015625 861.268554688 c 128,-1,73
 730.608398438 836.674804688 730.608398438 836.674804688 658.18359375 822.260742188 c 128,-1,74
 585.759765625 807.842773438 585.759765625 807.842773438 501.772460938 807.842773438 c 256,75,76
 417.784179688 807.842773438 417.784179688 807.842773438 345.360351562 822.260742188 c 128,-1,77
 272.935546875 836.674804688 272.935546875 836.674804688 219.376953125 861.268554688 c 128,-1,78
 165.8203125 885.861328125 165.8203125 885.861328125 135.389648438 918.934570312 c 128,-1,79
 104.958984375 952.0078125 104.958984375 952.0078125 104.958984375 989.3203125 c 0,60,61
259.545898438 988.754882812 m 256,80,81
 259.545898438 965.009765625 259.545898438 965.009765625 277.803710938 944.375 c 128,-1,82
 296.0625 923.740234375 296.0625 923.740234375 328.927734375 908.475585938 c 128,-1,83
 361.791015625 893.2109375 361.791015625 893.2109375 406.220703125 884.448242188 c 128,-1,84
 450.6484375 875.684570312 450.6484375 875.684570312 501.772460938 875.684570312 c 256,85,86
 552.89453125 875.684570312 552.89453125 875.684570312 596.713867188 884.448242188 c 128,-1,87
 640.53515625 893.2109375 640.53515625 893.2109375 673.3984375 908.475585938 c 128,-1,88
 706.263671875 923.740234375 706.263671875 923.740234375 724.5234375 944.375 c 128,-1,89
 742.780273438 965.009765625 742.780273438 965.009765625 742.780273438 988.754882812 c 256,90,91
 742.780273438 1012.49902344 742.780273438 1012.49902344 724.5234375 1033.41796875 c 128,-1,92
 706.263671875 1054.3359375 706.263671875 1054.3359375 673.3984375 1069.8828125 c 128,-1,93
 640.53515625 1085.42871094 640.53515625 1085.42871094 596.713867188 1094.19335938 c 128,-1,94
 552.89453125 1102.95605469 552.89453125 1102.95605469 501.772460938 1102.95605469 c 256,95,96
 450.6484375 1102.95605469 450.6484375 1102.95605469 406.220703125 1094.19335938 c 128,-1,97
 361.791015625 1085.42871094 361.791015625 1085.42871094 328.927734375 1069.8828125 c 128,-1,98
 296.0625 1054.3359375 296.0625 1054.3359375 277.803710938 1033.41796875 c 128,-1,99
 259.545898438 1012.49902344 259.545898438 1012.49902344 259.545898438 988.754882812 c 256,80,81
104.958984375 1398.77636719 m 0,100,101
 104.958984375 1436.65527344 104.958984375 1436.65527344 135.389648438 1470.01074219 c 128,-1,102
 165.8203125 1503.3671875 165.8203125 1503.3671875 219.376953125 1527.95898438 c 128,-1,103
 272.935546875 1552.55175781 272.935546875 1552.55175781 345.360351562 1566.68457031 c 128,-1,104
 417.784179688 1580.81835938 417.784179688 1580.81835938 501.772460938 1580.81835938 c 256,105,106
 585.759765625 1580.81835938 585.759765625 1580.81835938 658.18359375 1566.68457031 c 128,-1,107
 730.608398438 1552.55175781 730.608398438 1552.55175781 784.166015625 1527.95898438 c 128,-1,108
 837.723632812 1503.3671875 837.723632812 1503.3671875 868.154296875 1470.01074219 c 128,-1,109
 898.583984375 1436.65527344 898.583984375 1436.65527344 898.583984375 1398.77636719 c 0,110,111
 898.583984375 1361.46386719 898.583984375 1361.46386719 868.154296875 1328.390625 c 128,-1,112
 837.723632812 1295.31738281 837.723632812 1295.31738281 784.166015625 1270.72460938 c 128,-1,113
 730.608398438 1246.1328125 730.608398438 1246.1328125 658.18359375 1231.71679688 c 128,-1,114
 585.759765625 1217.29882812 585.759765625 1217.29882812 501.772460938 1217.29882812 c 256,115,116
 417.784179688 1217.29882812 417.784179688 1217.29882812 345.360351562 1231.71679688 c 128,-1,117
 272.935546875 1246.1328125 272.935546875 1246.1328125 219.376953125 1270.72460938 c 128,-1,118
 165.8203125 1295.31738281 165.8203125 1295.31738281 135.389648438 1328.390625 c 128,-1,119
 104.958984375 1361.46386719 104.958984375 1361.46386719 104.958984375 1398.77636719 c 0,100,101
259.545898438 1398.2109375 m 256,120,121
 259.545898438 1374.46679688 259.545898438 1374.46679688 277.803710938 1353.83105469 c 128,-1,122
 296.0625 1333.19628906 296.0625 1333.19628906 328.927734375 1317.93164062 c 128,-1,123
 361.791015625 1302.66699219 361.791015625 1302.66699219 406.220703125 1293.90332031 c 128,-1,124
 450.6484375 1285.14160156 450.6484375 1285.14160156 501.772460938 1285.14160156 c 256,125,126
 552.89453125 1285.14160156 552.89453125 1285.14160156 596.713867188 1293.90332031 c 128,-1,127
 640.53515625 1302.66699219 640.53515625 1302.66699219 673.3984375 1317.93164062 c 128,-1,128
 706.263671875 1333.19628906 706.263671875 1333.19628906 724.5234375 1353.83105469 c 128,-1,129
 742.780273438 1374.46679688 742.780273438 1374.46679688 742.780273438 1398.2109375 c 256,130,131
 742.780273438 1421.95605469 742.780273438 1421.95605469 724.5234375 1442.87402344 c 128,-1,132
 706.263671875 1463.79199219 706.263671875 1463.79199219 673.3984375 1479.33886719 c 128,-1,133
 640.53515625 1494.88671875 640.53515625 1494.88671875 596.713867188 1503.64941406 c 128,-1,134
 552.89453125 1512.41210938 552.89453125 1512.41210938 501.772460938 1512.41210938 c 256,135,136
 450.6484375 1512.41210938 450.6484375 1512.41210938 406.220703125 1503.64941406 c 128,-1,137
 361.791015625 1494.88671875 361.791015625 1494.88671875 328.927734375 1479.33886719 c 128,-1,138
 296.0625 1463.79199219 296.0625 1463.79199219 277.803710938 1442.87402344 c 128,-1,139
 259.545898438 1421.95605469 259.545898438 1421.95605469 259.545898438 1398.2109375 c 256,120,121
EndSplineSet
Substitution2: "'sups' Superscript in Latin lookup 2 subtable" onesuperior
EndChar

StartChar: two
Encoding: 50 50 20
Width: 1009
Flags: W
LayerCount: 2
Fore
SplineSet
104.958984375 166.65234375 m 0,0,1
 104.958984375 204.53125 104.958984375 204.53125 135.389648438 237.885742188 c 128,-1,2
 165.8203125 271.241210938 165.8203125 271.241210938 219.376953125 295.833007812 c 128,-1,3
 272.935546875 320.426757812 272.935546875 320.426757812 345.360351562 334.560546875 c 128,-1,4
 417.784179688 348.693359375 417.784179688 348.693359375 501.772460938 348.693359375 c 256,5,6
 585.759765625 348.693359375 585.759765625 348.693359375 658.18359375 334.560546875 c 128,-1,7
 730.608398438 320.426757812 730.608398438 320.426757812 784.166015625 295.833007812 c 128,-1,8
 837.723632812 271.241210938 837.723632812 271.241210938 868.154296875 237.885742188 c 128,-1,9
 898.583984375 204.53125 898.583984375 204.53125 898.583984375 166.65234375 c 0,10,11
 898.583984375 129.337890625 898.583984375 129.337890625 868.154296875 96.263671875 c 128,-1,12
 837.723632812 63.1923828125 837.723632812 63.1923828125 784.166015625 38.5986328125 c 128,-1,13
 730.608398438 14.0068359375 730.608398438 14.0068359375 658.18359375 -0.41015625 c 128,-1,14
 585.759765625 -14.826171875 585.759765625 -14.826171875 501.772460938 -14.826171875 c 256,15,16
 417.784179688 -14.826171875 417.784179688 -14.826171875 345.360351562 -0.41015625 c 128,-1,17
 272.935546875 14.0068359375 272.935546875 14.0068359375 219.376953125 38.5986328125 c 128,-1,18
 165.8203125 63.1923828125 165.8203125 63.1923828125 135.389648438 96.263671875 c 128,-1,19
 104.958984375 129.337890625 104.958984375 129.337890625 104.958984375 166.65234375 c 0,0,1
259.545898438 166.084960938 m 256,20,21
 259.545898438 142.340820312 259.545898438 142.340820312 277.803710938 121.705078125 c 128,-1,22
 296.0625 101.0703125 296.0625 101.0703125 328.927734375 85.806640625 c 128,-1,23
 361.791015625 70.5419921875 361.791015625 70.5419921875 406.220703125 61.7783203125 c 128,-1,24
 450.6484375 53.015625 450.6484375 53.015625 501.772460938 53.015625 c 256,25,26
 552.89453125 53.015625 552.89453125 53.015625 596.713867188 61.7783203125 c 128,-1,27
 640.53515625 70.5419921875 640.53515625 70.5419921875 673.3984375 85.806640625 c 128,-1,28
 706.263671875 101.0703125 706.263671875 101.0703125 724.5234375 121.705078125 c 128,-1,29
 742.780273438 142.340820312 742.780273438 142.340820312 742.780273438 166.084960938 c 256,30,31
 742.780273438 189.831054688 742.780273438 189.831054688 724.5234375 210.748046875 c 128,-1,32
 706.263671875 231.666015625 706.263671875 231.666015625 673.3984375 247.213867188 c 128,-1,33
 640.53515625 262.760742188 640.53515625 262.760742188 596.713867188 271.5234375 c 128,-1,34
 552.89453125 280.287109375 552.89453125 280.287109375 501.772460938 280.287109375 c 256,35,36
 450.6484375 280.287109375 450.6484375 280.287109375 406.220703125 271.5234375 c 128,-1,37
 361.791015625 262.760742188 361.791015625 262.760742188 328.927734375 247.213867188 c 128,-1,38
 296.0625 231.666015625 296.0625 231.666015625 277.803710938 210.748046875 c 128,-1,39
 259.545898438 189.831054688 259.545898438 189.831054688 259.545898438 166.084960938 c 256,20,21
104.958984375 576.107421875 m 0,40,41
 104.958984375 613.986328125 104.958984375 613.986328125 135.389648438 647.341796875 c 128,-1,42
 165.8203125 680.698242188 165.8203125 680.698242188 219.376953125 705.291015625 c 128,-1,43
 272.935546875 729.8828125 272.935546875 729.8828125 345.360351562 744.016601562 c 128,-1,44
 417.784179688 758.150390625 417.784179688 758.150390625 501.772460938 758.150390625 c 256,45,46
 585.759765625 758.150390625 585.759765625 758.150390625 658.18359375 744.016601562 c 128,-1,47
 730.608398438 729.8828125 730.608398438 729.8828125 784.166015625 705.291015625 c 128,-1,48
 837.723632812 680.698242188 837.723632812 680.698242188 868.154296875 647.341796875 c 128,-1,49
 898.583984375 613.986328125 898.583984375 613.986328125 898.583984375 576.107421875 c 0,50,51
 898.583984375 538.793945312 898.583984375 538.793945312 868.154296875 505.721679688 c 128,-1,52
 837.723632812 472.6484375 837.723632812 472.6484375 784.166015625 448.055664062 c 128,-1,53
 730.608398438 423.462890625 730.608398438 423.462890625 658.18359375 409.046875 c 128,-1,54
 585.759765625 394.630859375 585.759765625 394.630859375 501.772460938 394.630859375 c 256,55,56
 417.784179688 394.630859375 417.784179688 394.630859375 345.360351562 409.046875 c 128,-1,57
 272.935546875 423.462890625 272.935546875 423.462890625 219.376953125 448.055664062 c 128,-1,58
 165.8203125 472.6484375 165.8203125 472.6484375 135.389648438 505.721679688 c 128,-1,59
 104.958984375 538.793945312 104.958984375 538.793945312 104.958984375 576.107421875 c 0,40,41
104.958984375 989.3203125 m 0,60,61
 104.958984375 1027.19921875 104.958984375 1027.19921875 135.389648438 1060.55566406 c 128,-1,62
 165.8203125 1093.91015625 165.8203125 1093.91015625 219.376953125 1118.50292969 c 128,-1,63
 272.935546875 1143.09570312 272.935546875 1143.09570312 345.360351562 1157.22949219 c 128,-1,64
 417.784179688 1171.36328125 417.784179688 1171.36328125 501.772460938 1171.36328125 c 256,65,66
 585.759765625 1171.36328125 585.759765625 1171.36328125 658.18359375 1157.22949219 c 128,-1,67
 730.608398438 1143.09570312 730.608398438 1143.09570312 784.166015625 1118.50292969 c 128,-1,68
 837.723632812 1093.91015625 837.723632812 1093.91015625 868.154296875 1060.55566406 c 128,-1,69
 898.583984375 1027.19921875 898.583984375 1027.19921875 898.583984375 989.3203125 c 0,70,71
 898.583984375 952.0078125 898.583984375 952.0078125 868.154296875 918.934570312 c 128,-1,72
 837.723632812 885.861328125 837.723632812 885.861328125 784.166015625 861.268554688 c 128,-1,73
 730.608398438 836.674804688 730.608398438 836.674804688 658.18359375 822.260742188 c 128,-1,74
 585.759765625 807.842773438 585.759765625 807.842773438 501.772460938 807.842773438 c 256,75,76
 417.784179688 807.842773438 417.784179688 807.842773438 345.360351562 822.260742188 c 128,-1,77
 272.935546875 836.674804688 272.935546875 836.674804688 219.376953125 861.268554688 c 128,-1,78
 165.8203125 885.861328125 165.8203125 885.861328125 135.389648438 918.934570312 c 128,-1,79
 104.958984375 952.0078125 104.958984375 952.0078125 104.958984375 989.3203125 c 0,60,61
259.545898438 988.754882812 m 256,80,81
 259.545898438 965.009765625 259.545898438 965.009765625 277.803710938 944.375 c 128,-1,82
 296.0625 923.740234375 296.0625 923.740234375 328.927734375 908.475585938 c 128,-1,83
 361.791015625 893.2109375 361.791015625 893.2109375 406.220703125 884.448242188 c 128,-1,84
 450.6484375 875.684570312 450.6484375 875.684570312 501.772460938 875.684570312 c 256,85,86
 552.89453125 875.684570312 552.89453125 875.684570312 596.713867188 884.448242188 c 128,-1,87
 640.53515625 893.2109375 640.53515625 893.2109375 673.3984375 908.475585938 c 128,-1,88
 706.263671875 923.740234375 706.263671875 923.740234375 724.5234375 944.375 c 128,-1,89
 742.780273438 965.009765625 742.780273438 965.009765625 742.780273438 988.754882812 c 256,90,91
 742.780273438 1012.49902344 742.780273438 1012.49902344 724.5234375 1033.41796875 c 128,-1,92
 706.263671875 1054.3359375 706.263671875 1054.3359375 673.3984375 1069.8828125 c 128,-1,93
 640.53515625 1085.42871094 640.53515625 1085.42871094 596.713867188 1094.19335938 c 128,-1,94
 552.89453125 1102.95605469 552.89453125 1102.95605469 501.772460938 1102.95605469 c 256,95,96
 450.6484375 1102.95605469 450.6484375 1102.95605469 406.220703125 1094.19335938 c 128,-1,97
 361.791015625 1085.42871094 361.791015625 1085.42871094 328.927734375 1069.8828125 c 128,-1,98
 296.0625 1054.3359375 296.0625 1054.3359375 277.803710938 1033.41796875 c 128,-1,99
 259.545898438 1012.49902344 259.545898438 1012.49902344 259.545898438 988.754882812 c 256,80,81
104.958984375 1398.77636719 m 0,100,101
 104.958984375 1436.65527344 104.958984375 1436.65527344 135.389648438 1470.01074219 c 128,-1,102
 165.8203125 1503.3671875 165.8203125 1503.3671875 219.376953125 1527.95898438 c 128,-1,103
 272.935546875 1552.55175781 272.935546875 1552.55175781 345.360351562 1566.68457031 c 128,-1,104
 417.784179688 1580.81835938 417.784179688 1580.81835938 501.772460938 1580.81835938 c 256,105,106
 585.759765625 1580.81835938 585.759765625 1580.81835938 658.18359375 1566.68457031 c 128,-1,107
 730.608398438 1552.55175781 730.608398438 1552.55175781 784.166015625 1527.95898438 c 128,-1,108
 837.723632812 1503.3671875 837.723632812 1503.3671875 868.154296875 1470.01074219 c 128,-1,109
 898.583984375 1436.65527344 898.583984375 1436.65527344 898.583984375 1398.77636719 c 0,110,111
 898.583984375 1361.46386719 898.583984375 1361.46386719 868.154296875 1328.390625 c 128,-1,112
 837.723632812 1295.31738281 837.723632812 1295.31738281 784.166015625 1270.72460938 c 128,-1,113
 730.608398438 1246.1328125 730.608398438 1246.1328125 658.18359375 1231.71679688 c 128,-1,114
 585.759765625 1217.29882812 585.759765625 1217.29882812 501.772460938 1217.29882812 c 256,115,116
 417.784179688 1217.29882812 417.784179688 1217.29882812 345.360351562 1231.71679688 c 128,-1,117
 272.935546875 1246.1328125 272.935546875 1246.1328125 219.376953125 1270.72460938 c 128,-1,118
 165.8203125 1295.31738281 165.8203125 1295.31738281 135.389648438 1328.390625 c 128,-1,119
 104.958984375 1361.46386719 104.958984375 1361.46386719 104.958984375 1398.77636719 c 0,100,101
259.545898438 1398.2109375 m 256,120,121
 259.545898438 1374.46679688 259.545898438 1374.46679688 277.803710938 1353.83105469 c 128,-1,122
 296.0625 1333.19628906 296.0625 1333.19628906 328.927734375 1317.93164062 c 128,-1,123
 361.791015625 1302.66699219 361.791015625 1302.66699219 406.220703125 1293.90332031 c 128,-1,124
 450.6484375 1285.14160156 450.6484375 1285.14160156 501.772460938 1285.14160156 c 256,125,126
 552.89453125 1285.14160156 552.89453125 1285.14160156 596.713867188 1293.90332031 c 128,-1,127
 640.53515625 1302.66699219 640.53515625 1302.66699219 673.3984375 1317.93164062 c 128,-1,128
 706.263671875 1333.19628906 706.263671875 1333.19628906 724.5234375 1353.83105469 c 128,-1,129
 742.780273438 1374.46679688 742.780273438 1374.46679688 742.780273438 1398.2109375 c 256,130,131
 742.780273438 1421.95605469 742.780273438 1421.95605469 724.5234375 1442.87402344 c 128,-1,132
 706.263671875 1463.79199219 706.263671875 1463.79199219 673.3984375 1479.33886719 c 128,-1,133
 640.53515625 1494.88671875 640.53515625 1494.88671875 596.713867188 1503.64941406 c 128,-1,134
 552.89453125 1512.41210938 552.89453125 1512.41210938 501.772460938 1512.41210938 c 256,135,136
 450.6484375 1512.41210938 450.6484375 1512.41210938 406.220703125 1503.64941406 c 128,-1,137
 361.791015625 1494.88671875 361.791015625 1494.88671875 328.927734375 1479.33886719 c 128,-1,138
 296.0625 1463.79199219 296.0625 1463.79199219 277.803710938 1442.87402344 c 128,-1,139
 259.545898438 1421.95605469 259.545898438 1421.95605469 259.545898438 1398.2109375 c 256,120,121
EndSplineSet
Substitution2: "'sups' Superscript in Latin lookup 2 subtable" twosuperior
EndChar

StartChar: three
Encoding: 51 51 21
Width: 1009
Flags: W
LayerCount: 2
Fore
SplineSet
104.958984375 166.65234375 m 0,0,1
 104.958984375 204.53125 104.958984375 204.53125 135.389648438 237.885742188 c 128,-1,2
 165.8203125 271.241210938 165.8203125 271.241210938 219.376953125 295.833007812 c 128,-1,3
 272.935546875 320.426757812 272.935546875 320.426757812 345.360351562 334.560546875 c 128,-1,4
 417.784179688 348.693359375 417.784179688 348.693359375 501.772460938 348.693359375 c 256,5,6
 585.759765625 348.693359375 585.759765625 348.693359375 658.18359375 334.560546875 c 128,-1,7
 730.608398438 320.426757812 730.608398438 320.426757812 784.166015625 295.833007812 c 128,-1,8
 837.723632812 271.241210938 837.723632812 271.241210938 868.154296875 237.885742188 c 128,-1,9
 898.583984375 204.53125 898.583984375 204.53125 898.583984375 166.65234375 c 0,10,11
 898.583984375 129.337890625 898.583984375 129.337890625 868.154296875 96.263671875 c 128,-1,12
 837.723632812 63.1923828125 837.723632812 63.1923828125 784.166015625 38.5986328125 c 128,-1,13
 730.608398438 14.0068359375 730.608398438 14.0068359375 658.18359375 -0.41015625 c 128,-1,14
 585.759765625 -14.826171875 585.759765625 -14.826171875 501.772460938 -14.826171875 c 256,15,16
 417.784179688 -14.826171875 417.784179688 -14.826171875 345.360351562 -0.41015625 c 128,-1,17
 272.935546875 14.0068359375 272.935546875 14.0068359375 219.376953125 38.5986328125 c 128,-1,18
 165.8203125 63.1923828125 165.8203125 63.1923828125 135.389648438 96.263671875 c 128,-1,19
 104.958984375 129.337890625 104.958984375 129.337890625 104.958984375 166.65234375 c 0,0,1
104.958984375 576.107421875 m 0,20,21
 104.958984375 613.986328125 104.958984375 613.986328125 135.389648438 647.341796875 c 128,-1,22
 165.8203125 680.698242188 165.8203125 680.698242188 219.376953125 705.291015625 c 128,-1,23
 272.935546875 729.8828125 272.935546875 729.8828125 345.360351562 744.016601562 c 128,-1,24
 417.784179688 758.150390625 417.784179688 758.150390625 501.772460938 758.150390625 c 256,25,26
 585.759765625 758.150390625 585.759765625 758.150390625 658.18359375 744.016601562 c 128,-1,27
 730.608398438 729.8828125 730.608398438 729.8828125 784.166015625 705.291015625 c 128,-1,28
 837.723632812 680.698242188 837.723632812 680.698242188 868.154296875 647.341796875 c 128,-1,29
 898.583984375 613.986328125 898.583984375 613.986328125 898.583984375 576.107421875 c 0,30,31
 898.583984375 538.793945312 898.583984375 538.793945312 868.154296875 505.721679688 c 128,-1,32
 837.723632812 472.6484375 837.723632812 472.6484375 784.166015625 448.055664062 c 128,-1,33
 730.608398438 423.462890625 730.608398438 423.462890625 658.18359375 409.046875 c 128,-1,34
 585.759765625 394.630859375 585.759765625 394.630859375 501.772460938 394.630859375 c 256,35,36
 417.784179688 394.630859375 417.784179688 394.630859375 345.360351562 409.046875 c 128,-1,37
 272.935546875 423.462890625 272.935546875 423.462890625 219.376953125 448.055664062 c 128,-1,38
 165.8203125 472.6484375 165.8203125 472.6484375 135.389648438 505.721679688 c 128,-1,39
 104.958984375 538.793945312 104.958984375 538.793945312 104.958984375 576.107421875 c 0,20,21
104.958984375 989.3203125 m 0,40,41
 104.958984375 1027.19921875 104.958984375 1027.19921875 135.389648438 1060.55566406 c 128,-1,42
 165.8203125 1093.91015625 165.8203125 1093.91015625 219.376953125 1118.50292969 c 128,-1,43
 272.935546875 1143.09570312 272.935546875 1143.09570312 345.360351562 1157.22949219 c 128,-1,44
 417.784179688 1171.36328125 417.784179688 1171.36328125 501.772460938 1171.36328125 c 256,45,46
 585.759765625 1171.36328125 585.759765625 1171.36328125 658.18359375 1157.22949219 c 128,-1,47
 730.608398438 1143.09570312 730.608398438 1143.09570312 784.166015625 1118.50292969 c 128,-1,48
 837.723632812 1093.91015625 837.723632812 1093.91015625 868.154296875 1060.55566406 c 128,-1,49
 898.583984375 1027.19921875 898.583984375 1027.19921875 898.583984375 989.3203125 c 0,50,51
 898.583984375 952.0078125 898.583984375 952.0078125 868.154296875 918.934570312 c 128,-1,52
 837.723632812 885.861328125 837.723632812 885.861328125 784.166015625 861.268554688 c 128,-1,53
 730.608398438 836.674804688 730.608398438 836.674804688 658.18359375 822.260742188 c 128,-1,54
 585.759765625 807.842773438 585.759765625 807.842773438 501.772460938 807.842773438 c 256,55,56
 417.784179688 807.842773438 417.784179688 807.842773438 345.360351562 822.260742188 c 128,-1,57
 272.935546875 836.674804688 272.935546875 836.674804688 219.376953125 861.268554688 c 128,-1,58
 165.8203125 885.861328125 165.8203125 885.861328125 135.389648438 918.934570312 c 128,-1,59
 104.958984375 952.0078125 104.958984375 952.0078125 104.958984375 989.3203125 c 0,40,41
259.545898438 988.754882812 m 256,60,61
 259.545898438 965.009765625 259.545898438 965.009765625 277.803710938 944.375 c 128,-1,62
 296.0625 923.740234375 296.0625 923.740234375 328.927734375 908.475585938 c 128,-1,63
 361.791015625 893.2109375 361.791015625 893.2109375 406.220703125 884.448242188 c 128,-1,64
 450.6484375 875.684570312 450.6484375 875.684570312 501.772460938 875.684570312 c 256,65,66
 552.89453125 875.684570312 552.89453125 875.684570312 596.713867188 884.448242188 c 128,-1,67
 640.53515625 893.2109375 640.53515625 893.2109375 673.3984375 908.475585938 c 128,-1,68
 706.263671875 923.740234375 706.263671875 923.740234375 724.5234375 944.375 c 128,-1,69
 742.780273438 965.009765625 742.780273438 965.009765625 742.780273438 988.754882812 c 256,70,71
 742.780273438 1012.49902344 742.780273438 1012.49902344 724.5234375 1033.41796875 c 128,-1,72
 706.263671875 1054.3359375 706.263671875 1054.3359375 673.3984375 1069.8828125 c 128,-1,73
 640.53515625 1085.42871094 640.53515625 1085.42871094 596.713867188 1094.19335938 c 128,-1,74
 552.89453125 1102.95605469 552.89453125 1102.95605469 501.772460938 1102.95605469 c 256,75,76
 450.6484375 1102.95605469 450.6484375 1102.95605469 406.220703125 1094.19335938 c 128,-1,77
 361.791015625 1085.42871094 361.791015625 1085.42871094 328.927734375 1069.8828125 c 128,-1,78
 296.0625 1054.3359375 296.0625 1054.3359375 277.803710938 1033.41796875 c 128,-1,79
 259.545898438 1012.49902344 259.545898438 1012.49902344 259.545898438 988.754882812 c 256,60,61
104.958984375 1398.77636719 m 0,80,81
 104.958984375 1436.65527344 104.958984375 1436.65527344 135.389648438 1470.01074219 c 128,-1,82
 165.8203125 1503.3671875 165.8203125 1503.3671875 219.376953125 1527.95898438 c 128,-1,83
 272.935546875 1552.55175781 272.935546875 1552.55175781 345.360351562 1566.68457031 c 128,-1,84
 417.784179688 1580.81835938 417.784179688 1580.81835938 501.772460938 1580.81835938 c 256,85,86
 585.759765625 1580.81835938 585.759765625 1580.81835938 658.18359375 1566.68457031 c 128,-1,87
 730.608398438 1552.55175781 730.608398438 1552.55175781 784.166015625 1527.95898438 c 128,-1,88
 837.723632812 1503.3671875 837.723632812 1503.3671875 868.154296875 1470.01074219 c 128,-1,89
 898.583984375 1436.65527344 898.583984375 1436.65527344 898.583984375 1398.77636719 c 0,90,91
 898.583984375 1361.46386719 898.583984375 1361.46386719 868.154296875 1328.390625 c 128,-1,92
 837.723632812 1295.31738281 837.723632812 1295.31738281 784.166015625 1270.72460938 c 128,-1,93
 730.608398438 1246.1328125 730.608398438 1246.1328125 658.18359375 1231.71679688 c 128,-1,94
 585.759765625 1217.29882812 585.759765625 1217.29882812 501.772460938 1217.29882812 c 256,95,96
 417.784179688 1217.29882812 417.784179688 1217.29882812 345.360351562 1231.71679688 c 128,-1,97
 272.935546875 1246.1328125 272.935546875 1246.1328125 219.376953125 1270.72460938 c 128,-1,98
 165.8203125 1295.31738281 165.8203125 1295.31738281 135.389648438 1328.390625 c 128,-1,99
 104.958984375 1361.46386719 104.958984375 1361.46386719 104.958984375 1398.77636719 c 0,80,81
259.545898438 1398.2109375 m 256,100,101
 259.545898438 1374.46679688 259.545898438 1374.46679688 277.803710938 1353.83105469 c 128,-1,102
 296.0625 1333.19628906 296.0625 1333.19628906 328.927734375 1317.93164062 c 128,-1,103
 361.791015625 1302.66699219 361.791015625 1302.66699219 406.220703125 1293.90332031 c 128,-1,104
 450.6484375 1285.14160156 450.6484375 1285.14160156 501.772460938 1285.14160156 c 256,105,106
 552.89453125 1285.14160156 552.89453125 1285.14160156 596.713867188 1293.90332031 c 128,-1,107
 640.53515625 1302.66699219 640.53515625 1302.66699219 673.3984375 1317.93164062 c 128,-1,108
 706.263671875 1333.19628906 706.263671875 1333.19628906 724.5234375 1353.83105469 c 128,-1,109
 742.780273438 1374.46679688 742.780273438 1374.46679688 742.780273438 1398.2109375 c 256,110,111
 742.780273438 1421.95605469 742.780273438 1421.95605469 724.5234375 1442.87402344 c 128,-1,112
 706.263671875 1463.79199219 706.263671875 1463.79199219 673.3984375 1479.33886719 c 128,-1,113
 640.53515625 1494.88671875 640.53515625 1494.88671875 596.713867188 1503.64941406 c 128,-1,114
 552.89453125 1512.41210938 552.89453125 1512.41210938 501.772460938 1512.41210938 c 256,115,116
 450.6484375 1512.41210938 450.6484375 1512.41210938 406.220703125 1503.64941406 c 128,-1,117
 361.791015625 1494.88671875 361.791015625 1494.88671875 328.927734375 1479.33886719 c 128,-1,118
 296.0625 1463.79199219 296.0625 1463.79199219 277.803710938 1442.87402344 c 128,-1,119
 259.545898438 1421.95605469 259.545898438 1421.95605469 259.545898438 1398.2109375 c 256,100,101
EndSplineSet
Substitution2: "'sups' Superscript in Latin lookup 2 subtable" threesuperior
EndChar

StartChar: four
Encoding: 52 52 22
Width: 1009
Flags: W
LayerCount: 2
Fore
SplineSet
104.958984375 166.65234375 m 0,0,1
 104.958984375 204.53125 104.958984375 204.53125 135.389648438 237.885742188 c 128,-1,2
 165.8203125 271.241210938 165.8203125 271.241210938 219.376953125 295.833007812 c 128,-1,3
 272.935546875 320.426757812 272.935546875 320.426757812 345.360351562 334.560546875 c 128,-1,4
 417.784179688 348.693359375 417.784179688 348.693359375 501.772460938 348.693359375 c 256,5,6
 585.759765625 348.693359375 585.759765625 348.693359375 658.18359375 334.560546875 c 128,-1,7
 730.608398438 320.426757812 730.608398438 320.426757812 784.166015625 295.833007812 c 128,-1,8
 837.723632812 271.241210938 837.723632812 271.241210938 868.154296875 237.885742188 c 128,-1,9
 898.583984375 204.53125 898.583984375 204.53125 898.583984375 166.65234375 c 0,10,11
 898.583984375 129.337890625 898.583984375 129.337890625 868.154296875 96.263671875 c 128,-1,12
 837.723632812 63.1923828125 837.723632812 63.1923828125 784.166015625 38.5986328125 c 128,-1,13
 730.608398438 14.0068359375 730.608398438 14.0068359375 658.18359375 -0.41015625 c 128,-1,14
 585.759765625 -14.826171875 585.759765625 -14.826171875 501.772460938 -14.826171875 c 256,15,16
 417.784179688 -14.826171875 417.784179688 -14.826171875 345.360351562 -0.41015625 c 128,-1,17
 272.935546875 14.0068359375 272.935546875 14.0068359375 219.376953125 38.5986328125 c 128,-1,18
 165.8203125 63.1923828125 165.8203125 63.1923828125 135.389648438 96.263671875 c 128,-1,19
 104.958984375 129.337890625 104.958984375 129.337890625 104.958984375 166.65234375 c 0,0,1
259.545898438 166.084960938 m 256,20,21
 259.545898438 142.340820312 259.545898438 142.340820312 277.803710938 121.705078125 c 128,-1,22
 296.0625 101.0703125 296.0625 101.0703125 328.927734375 85.806640625 c 128,-1,23
 361.791015625 70.5419921875 361.791015625 70.5419921875 406.220703125 61.7783203125 c 128,-1,24
 450.6484375 53.015625 450.6484375 53.015625 501.772460938 53.015625 c 256,25,26
 552.89453125 53.015625 552.89453125 53.015625 596.713867188 61.7783203125 c 128,-1,27
 640.53515625 70.5419921875 640.53515625 70.5419921875 673.3984375 85.806640625 c 128,-1,28
 706.263671875 101.0703125 706.263671875 101.0703125 724.5234375 121.705078125 c 128,-1,29
 742.780273438 142.340820312 742.780273438 142.340820312 742.780273438 166.084960938 c 256,30,31
 742.780273438 189.831054688 742.780273438 189.831054688 724.5234375 210.748046875 c 128,-1,32
 706.263671875 231.666015625 706.263671875 231.666015625 673.3984375 247.213867188 c 128,-1,33
 640.53515625 262.760742188 640.53515625 262.760742188 596.713867188 271.5234375 c 128,-1,34
 552.89453125 280.287109375 552.89453125 280.287109375 501.772460938 280.287109375 c 256,35,36
 450.6484375 280.287109375 450.6484375 280.287109375 406.220703125 271.5234375 c 128,-1,37
 361.791015625 262.760742188 361.791015625 262.760742188 328.927734375 247.213867188 c 128,-1,38
 296.0625 231.666015625 296.0625 231.666015625 277.803710938 210.748046875 c 128,-1,39
 259.545898438 189.831054688 259.545898438 189.831054688 259.545898438 166.084960938 c 256,20,21
104.958984375 576.107421875 m 0,40,41
 104.958984375 613.986328125 104.958984375 613.986328125 135.389648438 647.341796875 c 128,-1,42
 165.8203125 680.698242188 165.8203125 680.698242188 219.376953125 705.291015625 c 128,-1,43
 272.935546875 729.8828125 272.935546875 729.8828125 345.360351562 744.016601562 c 128,-1,44
 417.784179688 758.150390625 417.784179688 758.150390625 501.772460938 758.150390625 c 256,45,46
 585.759765625 758.150390625 585.759765625 758.150390625 658.18359375 744.016601562 c 128,-1,47
 730.608398438 729.8828125 730.608398438 729.8828125 784.166015625 705.291015625 c 128,-1,48
 837.723632812 680.698242188 837.723632812 680.698242188 868.154296875 647.341796875 c 128,-1,49
 898.583984375 613.986328125 898.583984375 613.986328125 898.583984375 576.107421875 c 0,50,51
 898.583984375 538.793945312 898.583984375 538.793945312 868.154296875 505.721679688 c 128,-1,52
 837.723632812 472.6484375 837.723632812 472.6484375 784.166015625 448.055664062 c 128,-1,53
 730.608398438 423.462890625 730.608398438 423.462890625 658.18359375 409.046875 c 128,-1,54
 585.759765625 394.630859375 585.759765625 394.630859375 501.772460938 394.630859375 c 256,55,56
 417.784179688 394.630859375 417.784179688 394.630859375 345.360351562 409.046875 c 128,-1,57
 272.935546875 423.462890625 272.935546875 423.462890625 219.376953125 448.055664062 c 128,-1,58
 165.8203125 472.6484375 165.8203125 472.6484375 135.389648438 505.721679688 c 128,-1,59
 104.958984375 538.793945312 104.958984375 538.793945312 104.958984375 576.107421875 c 0,40,41
259.545898438 575.54296875 m 256,60,61
 259.545898438 551.796875 259.545898438 551.796875 277.803710938 531.162109375 c 128,-1,62
 296.0625 510.52734375 296.0625 510.52734375 328.927734375 495.262695312 c 128,-1,63
 361.791015625 479.998046875 361.791015625 479.998046875 406.220703125 471.235351562 c 128,-1,64
 450.6484375 462.470703125 450.6484375 462.470703125 501.772460938 462.470703125 c 256,65,66
 552.89453125 462.470703125 552.89453125 462.470703125 596.713867188 471.235351562 c 128,-1,67
 640.53515625 479.998046875 640.53515625 479.998046875 673.3984375 495.262695312 c 128,-1,68
 706.263671875 510.52734375 706.263671875 510.52734375 724.5234375 531.162109375 c 128,-1,69
 742.780273438 551.796875 742.780273438 551.796875 742.780273438 575.54296875 c 256,70,71
 742.780273438 599.286132812 742.780273438 599.286132812 724.5234375 620.205078125 c 128,-1,72
 706.263671875 641.123046875 706.263671875 641.123046875 673.3984375 656.669921875 c 128,-1,73
 640.53515625 672.215820312 640.53515625 672.215820312 596.713867188 680.979492188 c 128,-1,74
 552.89453125 689.7421875 552.89453125 689.7421875 501.772460938 689.7421875 c 256,75,76
 450.6484375 689.7421875 450.6484375 689.7421875 406.220703125 680.979492188 c 128,-1,77
 361.791015625 672.215820312 361.791015625 672.215820312 328.927734375 656.669921875 c 128,-1,78
 296.0625 641.123046875 296.0625 641.123046875 277.803710938 620.205078125 c 128,-1,79
 259.545898438 599.286132812 259.545898438 599.286132812 259.545898438 575.54296875 c 256,60,61
104.958984375 989.3203125 m 0,80,81
 104.958984375 1027.19921875 104.958984375 1027.19921875 135.389648438 1060.55566406 c 128,-1,82
 165.8203125 1093.91015625 165.8203125 1093.91015625 219.376953125 1118.50292969 c 128,-1,83
 272.935546875 1143.09570312 272.935546875 1143.09570312 345.360351562 1157.22949219 c 128,-1,84
 417.784179688 1171.36328125 417.784179688 1171.36328125 501.772460938 1171.36328125 c 256,85,86
 585.759765625 1171.36328125 585.759765625 1171.36328125 658.18359375 1157.22949219 c 128,-1,87
 730.608398438 1143.09570312 730.608398438 1143.09570312 784.166015625 1118.50292969 c 128,-1,88
 837.723632812 1093.91015625 837.723632812 1093.91015625 868.154296875 1060.55566406 c 128,-1,89
 898.583984375 1027.19921875 898.583984375 1027.19921875 898.583984375 989.3203125 c 0,90,91
 898.583984375 952.0078125 898.583984375 952.0078125 868.154296875 918.934570312 c 128,-1,92
 837.723632812 885.861328125 837.723632812 885.861328125 784.166015625 861.268554688 c 128,-1,93
 730.608398438 836.674804688 730.608398438 836.674804688 658.18359375 822.260742188 c 128,-1,94
 585.759765625 807.842773438 585.759765625 807.842773438 501.772460938 807.842773438 c 256,95,96
 417.784179688 807.842773438 417.784179688 807.842773438 345.360351562 822.260742188 c 128,-1,97
 272.935546875 836.674804688 272.935546875 836.674804688 219.376953125 861.268554688 c 128,-1,98
 165.8203125 885.861328125 165.8203125 885.861328125 135.389648438 918.934570312 c 128,-1,99
 104.958984375 952.0078125 104.958984375 952.0078125 104.958984375 989.3203125 c 0,80,81
104.958984375 1398.77636719 m 0,100,101
 104.958984375 1436.65527344 104.958984375 1436.65527344 135.389648438 1470.01074219 c 128,-1,102
 165.8203125 1503.3671875 165.8203125 1503.3671875 219.376953125 1527.95898438 c 128,-1,103
 272.935546875 1552.55175781 272.935546875 1552.55175781 345.360351562 1566.68457031 c 128,-1,104
 417.784179688 1580.81835938 417.784179688 1580.81835938 501.772460938 1580.81835938 c 256,105,106
 585.759765625 1580.81835938 585.759765625 1580.81835938 658.18359375 1566.68457031 c 128,-1,107
 730.608398438 1552.55175781 730.608398438 1552.55175781 784.166015625 1527.95898438 c 128,-1,108
 837.723632812 1503.3671875 837.723632812 1503.3671875 868.154296875 1470.01074219 c 128,-1,109
 898.583984375 1436.65527344 898.583984375 1436.65527344 898.583984375 1398.77636719 c 0,110,111
 898.583984375 1361.46386719 898.583984375 1361.46386719 868.154296875 1328.390625 c 128,-1,112
 837.723632812 1295.31738281 837.723632812 1295.31738281 784.166015625 1270.72460938 c 128,-1,113
 730.608398438 1246.1328125 730.608398438 1246.1328125 658.18359375 1231.71679688 c 128,-1,114
 585.759765625 1217.29882812 585.759765625 1217.29882812 501.772460938 1217.29882812 c 256,115,116
 417.784179688 1217.29882812 417.784179688 1217.29882812 345.360351562 1231.71679688 c 128,-1,117
 272.935546875 1246.1328125 272.935546875 1246.1328125 219.376953125 1270.72460938 c 128,-1,118
 165.8203125 1295.31738281 165.8203125 1295.31738281 135.389648438 1328.390625 c 128,-1,119
 104.958984375 1361.46386719 104.958984375 1361.46386719 104.958984375 1398.77636719 c 0,100,101
259.545898438 1398.2109375 m 256,120,121
 259.545898438 1374.46679688 259.545898438 1374.46679688 277.803710938 1353.83105469 c 128,-1,122
 296.0625 1333.19628906 296.0625 1333.19628906 328.927734375 1317.93164062 c 128,-1,123
 361.791015625 1302.66699219 361.791015625 1302.66699219 406.220703125 1293.90332031 c 128,-1,124
 450.6484375 1285.14160156 450.6484375 1285.14160156 501.772460938 1285.14160156 c 256,125,126
 552.89453125 1285.14160156 552.89453125 1285.14160156 596.713867188 1293.90332031 c 128,-1,127
 640.53515625 1302.66699219 640.53515625 1302.66699219 673.3984375 1317.93164062 c 128,-1,128
 706.263671875 1333.19628906 706.263671875 1333.19628906 724.5234375 1353.83105469 c 128,-1,129
 742.780273438 1374.46679688 742.780273438 1374.46679688 742.780273438 1398.2109375 c 256,130,131
 742.780273438 1421.95605469 742.780273438 1421.95605469 724.5234375 1442.87402344 c 128,-1,132
 706.263671875 1463.79199219 706.263671875 1463.79199219 673.3984375 1479.33886719 c 128,-1,133
 640.53515625 1494.88671875 640.53515625 1494.88671875 596.713867188 1503.64941406 c 128,-1,134
 552.89453125 1512.41210938 552.89453125 1512.41210938 501.772460938 1512.41210938 c 256,135,136
 450.6484375 1512.41210938 450.6484375 1512.41210938 406.220703125 1503.64941406 c 128,-1,137
 361.791015625 1494.88671875 361.791015625 1494.88671875 328.927734375 1479.33886719 c 128,-1,138
 296.0625 1463.79199219 296.0625 1463.79199219 277.803710938 1442.87402344 c 128,-1,139
 259.545898438 1421.95605469 259.545898438 1421.95605469 259.545898438 1398.2109375 c 256,120,121
EndSplineSet
EndChar

StartChar: five
Encoding: 53 53 23
Width: 1009
Flags: W
LayerCount: 2
Fore
SplineSet
104.958984375 166.65234375 m 0,0,1
 104.958984375 204.53125 104.958984375 204.53125 135.389648438 237.885742188 c 128,-1,2
 165.8203125 271.241210938 165.8203125 271.241210938 219.376953125 295.833007812 c 128,-1,3
 272.935546875 320.426757812 272.935546875 320.426757812 345.360351562 334.560546875 c 128,-1,4
 417.784179688 348.693359375 417.784179688 348.693359375 501.772460938 348.693359375 c 256,5,6
 585.759765625 348.693359375 585.759765625 348.693359375 658.18359375 334.560546875 c 128,-1,7
 730.608398438 320.426757812 730.608398438 320.426757812 784.166015625 295.833007812 c 128,-1,8
 837.723632812 271.241210938 837.723632812 271.241210938 868.154296875 237.885742188 c 128,-1,9
 898.583984375 204.53125 898.583984375 204.53125 898.583984375 166.65234375 c 0,10,11
 898.583984375 129.337890625 898.583984375 129.337890625 868.154296875 96.263671875 c 128,-1,12
 837.723632812 63.1923828125 837.723632812 63.1923828125 784.166015625 38.5986328125 c 128,-1,13
 730.608398438 14.0068359375 730.608398438 14.0068359375 658.18359375 -0.41015625 c 128,-1,14
 585.759765625 -14.826171875 585.759765625 -14.826171875 501.772460938 -14.826171875 c 256,15,16
 417.784179688 -14.826171875 417.784179688 -14.826171875 345.360351562 -0.41015625 c 128,-1,17
 272.935546875 14.0068359375 272.935546875 14.0068359375 219.376953125 38.5986328125 c 128,-1,18
 165.8203125 63.1923828125 165.8203125 63.1923828125 135.389648438 96.263671875 c 128,-1,19
 104.958984375 129.337890625 104.958984375 129.337890625 104.958984375 166.65234375 c 0,0,1
104.958984375 576.107421875 m 0,20,21
 104.958984375 613.986328125 104.958984375 613.986328125 135.389648438 647.341796875 c 128,-1,22
 165.8203125 680.698242188 165.8203125 680.698242188 219.376953125 705.291015625 c 128,-1,23
 272.935546875 729.8828125 272.935546875 729.8828125 345.360351562 744.016601562 c 128,-1,24
 417.784179688 758.150390625 417.784179688 758.150390625 501.772460938 758.150390625 c 256,25,26
 585.759765625 758.150390625 585.759765625 758.150390625 658.18359375 744.016601562 c 128,-1,27
 730.608398438 729.8828125 730.608398438 729.8828125 784.166015625 705.291015625 c 128,-1,28
 837.723632812 680.698242188 837.723632812 680.698242188 868.154296875 647.341796875 c 128,-1,29
 898.583984375 613.986328125 898.583984375 613.986328125 898.583984375 576.107421875 c 0,30,31
 898.583984375 538.793945312 898.583984375 538.793945312 868.154296875 505.721679688 c 128,-1,32
 837.723632812 472.6484375 837.723632812 472.6484375 784.166015625 448.055664062 c 128,-1,33
 730.608398438 423.462890625 730.608398438 423.462890625 658.18359375 409.046875 c 128,-1,34
 585.759765625 394.630859375 585.759765625 394.630859375 501.772460938 394.630859375 c 256,35,36
 417.784179688 394.630859375 417.784179688 394.630859375 345.360351562 409.046875 c 128,-1,37
 272.935546875 423.462890625 272.935546875 423.462890625 219.376953125 448.055664062 c 128,-1,38
 165.8203125 472.6484375 165.8203125 472.6484375 135.389648438 505.721679688 c 128,-1,39
 104.958984375 538.793945312 104.958984375 538.793945312 104.958984375 576.107421875 c 0,20,21
259.545898438 575.54296875 m 256,40,41
 259.545898438 551.796875 259.545898438 551.796875 277.803710938 531.162109375 c 128,-1,42
 296.0625 510.52734375 296.0625 510.52734375 328.927734375 495.262695312 c 128,-1,43
 361.791015625 479.998046875 361.791015625 479.998046875 406.220703125 471.235351562 c 128,-1,44
 450.6484375 462.470703125 450.6484375 462.470703125 501.772460938 462.470703125 c 256,45,46
 552.89453125 462.470703125 552.89453125 462.470703125 596.713867188 471.235351562 c 128,-1,47
 640.53515625 479.998046875 640.53515625 479.998046875 673.3984375 495.262695312 c 128,-1,48
 706.263671875 510.52734375 706.263671875 510.52734375 724.5234375 531.162109375 c 128,-1,49
 742.780273438 551.796875 742.780273438 551.796875 742.780273438 575.54296875 c 256,50,51
 742.780273438 599.286132812 742.780273438 599.286132812 724.5234375 620.205078125 c 128,-1,52
 706.263671875 641.123046875 706.263671875 641.123046875 673.3984375 656.669921875 c 128,-1,53
 640.53515625 672.215820312 640.53515625 672.215820312 596.713867188 680.979492188 c 128,-1,54
 552.89453125 689.7421875 552.89453125 689.7421875 501.772460938 689.7421875 c 256,55,56
 450.6484375 689.7421875 450.6484375 689.7421875 406.220703125 680.979492188 c 128,-1,57
 361.791015625 672.215820312 361.791015625 672.215820312 328.927734375 656.669921875 c 128,-1,58
 296.0625 641.123046875 296.0625 641.123046875 277.803710938 620.205078125 c 128,-1,59
 259.545898438 599.286132812 259.545898438 599.286132812 259.545898438 575.54296875 c 256,40,41
104.958984375 989.3203125 m 0,60,61
 104.958984375 1027.19921875 104.958984375 1027.19921875 135.389648438 1060.55566406 c 128,-1,62
 165.8203125 1093.91015625 165.8203125 1093.91015625 219.376953125 1118.50292969 c 128,-1,63
 272.935546875 1143.09570312 272.935546875 1143.09570312 345.360351562 1157.22949219 c 128,-1,64
 417.784179688 1171.36328125 417.784179688 1171.36328125 501.772460938 1171.36328125 c 256,65,66
 585.759765625 1171.36328125 585.759765625 1171.36328125 658.18359375 1157.22949219 c 128,-1,67
 730.608398438 1143.09570312 730.608398438 1143.09570312 784.166015625 1118.50292969 c 128,-1,68
 837.723632812 1093.91015625 837.723632812 1093.91015625 868.154296875 1060.55566406 c 128,-1,69
 898.583984375 1027.19921875 898.583984375 1027.19921875 898.583984375 989.3203125 c 0,70,71
 898.583984375 952.0078125 898.583984375 952.0078125 868.154296875 918.934570312 c 128,-1,72
 837.723632812 885.861328125 837.723632812 885.861328125 784.166015625 861.268554688 c 128,-1,73
 730.608398438 836.674804688 730.608398438 836.674804688 658.18359375 822.260742188 c 128,-1,74
 585.759765625 807.842773438 585.759765625 807.842773438 501.772460938 807.842773438 c 256,75,76
 417.784179688 807.842773438 417.784179688 807.842773438 345.360351562 822.260742188 c 128,-1,77
 272.935546875 836.674804688 272.935546875 836.674804688 219.376953125 861.268554688 c 128,-1,78
 165.8203125 885.861328125 165.8203125 885.861328125 135.389648438 918.934570312 c 128,-1,79
 104.958984375 952.0078125 104.958984375 952.0078125 104.958984375 989.3203125 c 0,60,61
104.958984375 1398.77636719 m 0,80,81
 104.958984375 1436.65527344 104.958984375 1436.65527344 135.389648438 1470.01074219 c 128,-1,82
 165.8203125 1503.3671875 165.8203125 1503.3671875 219.376953125 1527.95898438 c 128,-1,83
 272.935546875 1552.55175781 272.935546875 1552.55175781 345.360351562 1566.68457031 c 128,-1,84
 417.784179688 1580.81835938 417.784179688 1580.81835938 501.772460938 1580.81835938 c 256,85,86
 585.759765625 1580.81835938 585.759765625 1580.81835938 658.18359375 1566.68457031 c 128,-1,87
 730.608398438 1552.55175781 730.608398438 1552.55175781 784.166015625 1527.95898438 c 128,-1,88
 837.723632812 1503.3671875 837.723632812 1503.3671875 868.154296875 1470.01074219 c 128,-1,89
 898.583984375 1436.65527344 898.583984375 1436.65527344 898.583984375 1398.77636719 c 0,90,91
 898.583984375 1361.46386719 898.583984375 1361.46386719 868.154296875 1328.390625 c 128,-1,92
 837.723632812 1295.31738281 837.723632812 1295.31738281 784.166015625 1270.72460938 c 128,-1,93
 730.608398438 1246.1328125 730.608398438 1246.1328125 658.18359375 1231.71679688 c 128,-1,94
 585.759765625 1217.29882812 585.759765625 1217.29882812 501.772460938 1217.29882812 c 256,95,96
 417.784179688 1217.29882812 417.784179688 1217.29882812 345.360351562 1231.71679688 c 128,-1,97
 272.935546875 1246.1328125 272.935546875 1246.1328125 219.376953125 1270.72460938 c 128,-1,98
 165.8203125 1295.31738281 165.8203125 1295.31738281 135.389648438 1328.390625 c 128,-1,99
 104.958984375 1361.46386719 104.958984375 1361.46386719 104.958984375 1398.77636719 c 0,80,81
259.545898438 1398.2109375 m 256,100,101
 259.545898438 1374.46679688 259.545898438 1374.46679688 277.803710938 1353.83105469 c 128,-1,102
 296.0625 1333.19628906 296.0625 1333.19628906 328.927734375 1317.93164062 c 128,-1,103
 361.791015625 1302.66699219 361.791015625 1302.66699219 406.220703125 1293.90332031 c 128,-1,104
 450.6484375 1285.14160156 450.6484375 1285.14160156 501.772460938 1285.14160156 c 256,105,106
 552.89453125 1285.14160156 552.89453125 1285.14160156 596.713867188 1293.90332031 c 128,-1,107
 640.53515625 1302.66699219 640.53515625 1302.66699219 673.3984375 1317.93164062 c 128,-1,108
 706.263671875 1333.19628906 706.263671875 1333.19628906 724.5234375 1353.83105469 c 128,-1,109
 742.780273438 1374.46679688 742.780273438 1374.46679688 742.780273438 1398.2109375 c 256,110,111
 742.780273438 1421.95605469 742.780273438 1421.95605469 724.5234375 1442.87402344 c 128,-1,112
 706.263671875 1463.79199219 706.263671875 1463.79199219 673.3984375 1479.33886719 c 128,-1,113
 640.53515625 1494.88671875 640.53515625 1494.88671875 596.713867188 1503.64941406 c 128,-1,114
 552.89453125 1512.41210938 552.89453125 1512.41210938 501.772460938 1512.41210938 c 256,115,116
 450.6484375 1512.41210938 450.6484375 1512.41210938 406.220703125 1503.64941406 c 128,-1,117
 361.791015625 1494.88671875 361.791015625 1494.88671875 328.927734375 1479.33886719 c 128,-1,118
 296.0625 1463.79199219 296.0625 1463.79199219 277.803710938 1442.87402344 c 128,-1,119
 259.545898438 1421.95605469 259.545898438 1421.95605469 259.545898438 1398.2109375 c 256,100,101
EndSplineSet
EndChar

StartChar: six
Encoding: 54 54 24
Width: 1009
Flags: W
LayerCount: 2
Fore
SplineSet
104.958984375 166.65234375 m 0,0,1
 104.958984375 204.53125 104.958984375 204.53125 135.389648438 237.885742188 c 128,-1,2
 165.8203125 271.241210938 165.8203125 271.241210938 219.376953125 295.833007812 c 128,-1,3
 272.935546875 320.426757812 272.935546875 320.426757812 345.360351562 334.560546875 c 128,-1,4
 417.784179688 348.693359375 417.784179688 348.693359375 501.772460938 348.693359375 c 256,5,6
 585.759765625 348.693359375 585.759765625 348.693359375 658.18359375 334.560546875 c 128,-1,7
 730.608398438 320.426757812 730.608398438 320.426757812 784.166015625 295.833007812 c 128,-1,8
 837.723632812 271.241210938 837.723632812 271.241210938 868.154296875 237.885742188 c 128,-1,9
 898.583984375 204.53125 898.583984375 204.53125 898.583984375 166.65234375 c 0,10,11
 898.583984375 129.337890625 898.583984375 129.337890625 868.154296875 96.263671875 c 128,-1,12
 837.723632812 63.1923828125 837.723632812 63.1923828125 784.166015625 38.5986328125 c 128,-1,13
 730.608398438 14.0068359375 730.608398438 14.0068359375 658.18359375 -0.41015625 c 128,-1,14
 585.759765625 -14.826171875 585.759765625 -14.826171875 501.772460938 -14.826171875 c 256,15,16
 417.784179688 -14.826171875 417.784179688 -14.826171875 345.360351562 -0.41015625 c 128,-1,17
 272.935546875 14.0068359375 272.935546875 14.0068359375 219.376953125 38.5986328125 c 128,-1,18
 165.8203125 63.1923828125 165.8203125 63.1923828125 135.389648438 96.263671875 c 128,-1,19
 104.958984375 129.337890625 104.958984375 129.337890625 104.958984375 166.65234375 c 0,0,1
259.545898438 166.084960938 m 256,20,21
 259.545898438 142.340820312 259.545898438 142.340820312 277.803710938 121.705078125 c 128,-1,22
 296.0625 101.0703125 296.0625 101.0703125 328.927734375 85.806640625 c 128,-1,23
 361.791015625 70.5419921875 361.791015625 70.5419921875 406.220703125 61.7783203125 c 128,-1,24
 450.6484375 53.015625 450.6484375 53.015625 501.772460938 53.015625 c 256,25,26
 552.89453125 53.015625 552.89453125 53.015625 596.713867188 61.7783203125 c 128,-1,27
 640.53515625 70.5419921875 640.53515625 70.5419921875 673.3984375 85.806640625 c 128,-1,28
 706.263671875 101.0703125 706.263671875 101.0703125 724.5234375 121.705078125 c 128,-1,29
 742.780273438 142.340820312 742.780273438 142.340820312 742.780273438 166.084960938 c 256,30,31
 742.780273438 189.831054688 742.780273438 189.831054688 724.5234375 210.748046875 c 128,-1,32
 706.263671875 231.666015625 706.263671875 231.666015625 673.3984375 247.213867188 c 128,-1,33
 640.53515625 262.760742188 640.53515625 262.760742188 596.713867188 271.5234375 c 128,-1,34
 552.89453125 280.287109375 552.89453125 280.287109375 501.772460938 280.287109375 c 256,35,36
 450.6484375 280.287109375 450.6484375 280.287109375 406.220703125 271.5234375 c 128,-1,37
 361.791015625 262.760742188 361.791015625 262.760742188 328.927734375 247.213867188 c 128,-1,38
 296.0625 231.666015625 296.0625 231.666015625 277.803710938 210.748046875 c 128,-1,39
 259.545898438 189.831054688 259.545898438 189.831054688 259.545898438 166.084960938 c 256,20,21
104.958984375 576.107421875 m 0,40,41
 104.958984375 613.986328125 104.958984375 613.986328125 135.389648438 647.341796875 c 128,-1,42
 165.8203125 680.698242188 165.8203125 680.698242188 219.376953125 705.291015625 c 128,-1,43
 272.935546875 729.8828125 272.935546875 729.8828125 345.360351562 744.016601562 c 128,-1,44
 417.784179688 758.150390625 417.784179688 758.150390625 501.772460938 758.150390625 c 256,45,46
 585.759765625 758.150390625 585.759765625 758.150390625 658.18359375 744.016601562 c 128,-1,47
 730.608398438 729.8828125 730.608398438 729.8828125 784.166015625 705.291015625 c 128,-1,48
 837.723632812 680.698242188 837.723632812 680.698242188 868.154296875 647.341796875 c 128,-1,49
 898.583984375 613.986328125 898.583984375 613.986328125 898.583984375 576.107421875 c 0,50,51
 898.583984375 538.793945312 898.583984375 538.793945312 868.154296875 505.721679688 c 128,-1,52
 837.723632812 472.6484375 837.723632812 472.6484375 784.166015625 448.055664062 c 128,-1,53
 730.608398438 423.462890625 730.608398438 423.462890625 658.18359375 409.046875 c 128,-1,54
 585.759765625 394.630859375 585.759765625 394.630859375 501.772460938 394.630859375 c 256,55,56
 417.784179688 394.630859375 417.784179688 394.630859375 345.360351562 409.046875 c 128,-1,57
 272.935546875 423.462890625 272.935546875 423.462890625 219.376953125 448.055664062 c 128,-1,58
 165.8203125 472.6484375 165.8203125 472.6484375 135.389648438 505.721679688 c 128,-1,59
 104.958984375 538.793945312 104.958984375 538.793945312 104.958984375 576.107421875 c 0,40,41
104.958984375 989.3203125 m 0,60,61
 104.958984375 1027.19921875 104.958984375 1027.19921875 135.389648438 1060.55566406 c 128,-1,62
 165.8203125 1093.91015625 165.8203125 1093.91015625 219.376953125 1118.50292969 c 128,-1,63
 272.935546875 1143.09570312 272.935546875 1143.09570312 345.360351562 1157.22949219 c 128,-1,64
 417.784179688 1171.36328125 417.784179688 1171.36328125 501.772460938 1171.36328125 c 256,65,66
 585.759765625 1171.36328125 585.759765625 1171.36328125 658.18359375 1157.22949219 c 128,-1,67
 730.608398438 1143.09570312 730.608398438 1143.09570312 784.166015625 1118.50292969 c 128,-1,68
 837.723632812 1093.91015625 837.723632812 1093.91015625 868.154296875 1060.55566406 c 128,-1,69
 898.583984375 1027.19921875 898.583984375 1027.19921875 898.583984375 989.3203125 c 0,70,71
 898.583984375 952.0078125 898.583984375 952.0078125 868.154296875 918.934570312 c 128,-1,72
 837.723632812 885.861328125 837.723632812 885.861328125 784.166015625 861.268554688 c 128,-1,73
 730.608398438 836.674804688 730.608398438 836.674804688 658.18359375 822.260742188 c 128,-1,74
 585.759765625 807.842773438 585.759765625 807.842773438 501.772460938 807.842773438 c 256,75,76
 417.784179688 807.842773438 417.784179688 807.842773438 345.360351562 822.260742188 c 128,-1,77
 272.935546875 836.674804688 272.935546875 836.674804688 219.376953125 861.268554688 c 128,-1,78
 165.8203125 885.861328125 165.8203125 885.861328125 135.389648438 918.934570312 c 128,-1,79
 104.958984375 952.0078125 104.958984375 952.0078125 104.958984375 989.3203125 c 0,60,61
104.958984375 1398.77636719 m 0,80,81
 104.958984375 1436.65527344 104.958984375 1436.65527344 135.389648438 1470.01074219 c 128,-1,82
 165.8203125 1503.3671875 165.8203125 1503.3671875 219.376953125 1527.95898438 c 128,-1,83
 272.935546875 1552.55175781 272.935546875 1552.55175781 345.360351562 1566.68457031 c 128,-1,84
 417.784179688 1580.81835938 417.784179688 1580.81835938 501.772460938 1580.81835938 c 256,85,86
 585.759765625 1580.81835938 585.759765625 1580.81835938 658.18359375 1566.68457031 c 128,-1,87
 730.608398438 1552.55175781 730.608398438 1552.55175781 784.166015625 1527.95898438 c 128,-1,88
 837.723632812 1503.3671875 837.723632812 1503.3671875 868.154296875 1470.01074219 c 128,-1,89
 898.583984375 1436.65527344 898.583984375 1436.65527344 898.583984375 1398.77636719 c 0,90,91
 898.583984375 1361.46386719 898.583984375 1361.46386719 868.154296875 1328.390625 c 128,-1,92
 837.723632812 1295.31738281 837.723632812 1295.31738281 784.166015625 1270.72460938 c 128,-1,93
 730.608398438 1246.1328125 730.608398438 1246.1328125 658.18359375 1231.71679688 c 128,-1,94
 585.759765625 1217.29882812 585.759765625 1217.29882812 501.772460938 1217.29882812 c 256,95,96
 417.784179688 1217.29882812 417.784179688 1217.29882812 345.360351562 1231.71679688 c 128,-1,97
 272.935546875 1246.1328125 272.935546875 1246.1328125 219.376953125 1270.72460938 c 128,-1,98
 165.8203125 1295.31738281 165.8203125 1295.31738281 135.389648438 1328.390625 c 128,-1,99
 104.958984375 1361.46386719 104.958984375 1361.46386719 104.958984375 1398.77636719 c 0,80,81
259.545898438 1398.2109375 m 256,100,101
 259.545898438 1374.46679688 259.545898438 1374.46679688 277.803710938 1353.83105469 c 128,-1,102
 296.0625 1333.19628906 296.0625 1333.19628906 328.927734375 1317.93164062 c 128,-1,103
 361.791015625 1302.66699219 361.791015625 1302.66699219 406.220703125 1293.90332031 c 128,-1,104
 450.6484375 1285.14160156 450.6484375 1285.14160156 501.772460938 1285.14160156 c 256,105,106
 552.89453125 1285.14160156 552.89453125 1285.14160156 596.713867188 1293.90332031 c 128,-1,107
 640.53515625 1302.66699219 640.53515625 1302.66699219 673.3984375 1317.93164062 c 128,-1,108
 706.263671875 1333.19628906 706.263671875 1333.19628906 724.5234375 1353.83105469 c 128,-1,109
 742.780273438 1374.46679688 742.780273438 1374.46679688 742.780273438 1398.2109375 c 256,110,111
 742.780273438 1421.95605469 742.780273438 1421.95605469 724.5234375 1442.87402344 c 128,-1,112
 706.263671875 1463.79199219 706.263671875 1463.79199219 673.3984375 1479.33886719 c 128,-1,113
 640.53515625 1494.88671875 640.53515625 1494.88671875 596.713867188 1503.64941406 c 128,-1,114
 552.89453125 1512.41210938 552.89453125 1512.41210938 501.772460938 1512.41210938 c 256,115,116
 450.6484375 1512.41210938 450.6484375 1512.41210938 406.220703125 1503.64941406 c 128,-1,117
 361.791015625 1494.88671875 361.791015625 1494.88671875 328.927734375 1479.33886719 c 128,-1,118
 296.0625 1463.79199219 296.0625 1463.79199219 277.803710938 1442.87402344 c 128,-1,119
 259.545898438 1421.95605469 259.545898438 1421.95605469 259.545898438 1398.2109375 c 256,100,101
EndSplineSet
EndChar

StartChar: seven
Encoding: 55 55 25
Width: 1009
Flags: W
LayerCount: 2
Fore
SplineSet
104.958984375 166.65234375 m 0,0,1
 104.958984375 204.53125 104.958984375 204.53125 135.389648438 237.885742188 c 128,-1,2
 165.8203125 271.241210938 165.8203125 271.241210938 219.376953125 295.833007812 c 128,-1,3
 272.935546875 320.426757812 272.935546875 320.426757812 345.360351562 334.560546875 c 128,-1,4
 417.784179688 348.693359375 417.784179688 348.693359375 501.772460938 348.693359375 c 256,5,6
 585.759765625 348.693359375 585.759765625 348.693359375 658.18359375 334.560546875 c 128,-1,7
 730.608398438 320.426757812 730.608398438 320.426757812 784.166015625 295.833007812 c 128,-1,8
 837.723632812 271.241210938 837.723632812 271.241210938 868.154296875 237.885742188 c 128,-1,9
 898.583984375 204.53125 898.583984375 204.53125 898.583984375 166.65234375 c 0,10,11
 898.583984375 129.337890625 898.583984375 129.337890625 868.154296875 96.263671875 c 128,-1,12
 837.723632812 63.1923828125 837.723632812 63.1923828125 784.166015625 38.5986328125 c 128,-1,13
 730.608398438 14.0068359375 730.608398438 14.0068359375 658.18359375 -0.41015625 c 128,-1,14
 585.759765625 -14.826171875 585.759765625 -14.826171875 501.772460938 -14.826171875 c 256,15,16
 417.784179688 -14.826171875 417.784179688 -14.826171875 345.360351562 -0.41015625 c 128,-1,17
 272.935546875 14.0068359375 272.935546875 14.0068359375 219.376953125 38.5986328125 c 128,-1,18
 165.8203125 63.1923828125 165.8203125 63.1923828125 135.389648438 96.263671875 c 128,-1,19
 104.958984375 129.337890625 104.958984375 129.337890625 104.958984375 166.65234375 c 0,0,1
104.958984375 576.107421875 m 0,20,21
 104.958984375 613.986328125 104.958984375 613.986328125 135.389648438 647.341796875 c 128,-1,22
 165.8203125 680.698242188 165.8203125 680.698242188 219.376953125 705.291015625 c 128,-1,23
 272.935546875 729.8828125 272.935546875 729.8828125 345.360351562 744.016601562 c 128,-1,24
 417.784179688 758.150390625 417.784179688 758.150390625 501.772460938 758.150390625 c 256,25,26
 585.759765625 758.150390625 585.759765625 758.150390625 658.18359375 744.016601562 c 128,-1,27
 730.608398438 729.8828125 730.608398438 729.8828125 784.166015625 705.291015625 c 128,-1,28
 837.723632812 680.698242188 837.723632812 680.698242188 868.154296875 647.341796875 c 128,-1,29
 898.583984375 613.986328125 898.583984375 613.986328125 898.583984375 576.107421875 c 0,30,31
 898.583984375 538.793945312 898.583984375 538.793945312 868.154296875 505.721679688 c 128,-1,32
 837.723632812 472.6484375 837.723632812 472.6484375 784.166015625 448.055664062 c 128,-1,33
 730.608398438 423.462890625 730.608398438 423.462890625 658.18359375 409.046875 c 128,-1,34
 585.759765625 394.630859375 585.759765625 394.630859375 501.772460938 394.630859375 c 256,35,36
 417.784179688 394.630859375 417.784179688 394.630859375 345.360351562 409.046875 c 128,-1,37
 272.935546875 423.462890625 272.935546875 423.462890625 219.376953125 448.055664062 c 128,-1,38
 165.8203125 472.6484375 165.8203125 472.6484375 135.389648438 505.721679688 c 128,-1,39
 104.958984375 538.793945312 104.958984375 538.793945312 104.958984375 576.107421875 c 0,20,21
104.958984375 989.3203125 m 0,40,41
 104.958984375 1027.19921875 104.958984375 1027.19921875 135.389648438 1060.55566406 c 128,-1,42
 165.8203125 1093.91015625 165.8203125 1093.91015625 219.376953125 1118.50292969 c 128,-1,43
 272.935546875 1143.09570312 272.935546875 1143.09570312 345.360351562 1157.22949219 c 128,-1,44
 417.784179688 1171.36328125 417.784179688 1171.36328125 501.772460938 1171.36328125 c 256,45,46
 585.759765625 1171.36328125 585.759765625 1171.36328125 658.18359375 1157.22949219 c 128,-1,47
 730.608398438 1143.09570312 730.608398438 1143.09570312 784.166015625 1118.50292969 c 128,-1,48
 837.723632812 1093.91015625 837.723632812 1093.91015625 868.154296875 1060.55566406 c 128,-1,49
 898.583984375 1027.19921875 898.583984375 1027.19921875 898.583984375 989.3203125 c 0,50,51
 898.583984375 952.0078125 898.583984375 952.0078125 868.154296875 918.934570312 c 128,-1,52
 837.723632812 885.861328125 837.723632812 885.861328125 784.166015625 861.268554688 c 128,-1,53
 730.608398438 836.674804688 730.608398438 836.674804688 658.18359375 822.260742188 c 128,-1,54
 585.759765625 807.842773438 585.759765625 807.842773438 501.772460938 807.842773438 c 256,55,56
 417.784179688 807.842773438 417.784179688 807.842773438 345.360351562 822.260742188 c 128,-1,57
 272.935546875 836.674804688 272.935546875 836.674804688 219.376953125 861.268554688 c 128,-1,58
 165.8203125 885.861328125 165.8203125 885.861328125 135.389648438 918.934570312 c 128,-1,59
 104.958984375 952.0078125 104.958984375 952.0078125 104.958984375 989.3203125 c 0,40,41
104.958984375 1398.77636719 m 0,60,61
 104.958984375 1436.65527344 104.958984375 1436.65527344 135.389648438 1470.01074219 c 128,-1,62
 165.8203125 1503.3671875 165.8203125 1503.3671875 219.376953125 1527.95898438 c 128,-1,63
 272.935546875 1552.55175781 272.935546875 1552.55175781 345.360351562 1566.68457031 c 128,-1,64
 417.784179688 1580.81835938 417.784179688 1580.81835938 501.772460938 1580.81835938 c 256,65,66
 585.759765625 1580.81835938 585.759765625 1580.81835938 658.18359375 1566.68457031 c 128,-1,67
 730.608398438 1552.55175781 730.608398438 1552.55175781 784.166015625 1527.95898438 c 128,-1,68
 837.723632812 1503.3671875 837.723632812 1503.3671875 868.154296875 1470.01074219 c 128,-1,69
 898.583984375 1436.65527344 898.583984375 1436.65527344 898.583984375 1398.77636719 c 0,70,71
 898.583984375 1361.46386719 898.583984375 1361.46386719 868.154296875 1328.390625 c 128,-1,72
 837.723632812 1295.31738281 837.723632812 1295.31738281 784.166015625 1270.72460938 c 128,-1,73
 730.608398438 1246.1328125 730.608398438 1246.1328125 658.18359375 1231.71679688 c 128,-1,74
 585.759765625 1217.29882812 585.759765625 1217.29882812 501.772460938 1217.29882812 c 256,75,76
 417.784179688 1217.29882812 417.784179688 1217.29882812 345.360351562 1231.71679688 c 128,-1,77
 272.935546875 1246.1328125 272.935546875 1246.1328125 219.376953125 1270.72460938 c 128,-1,78
 165.8203125 1295.31738281 165.8203125 1295.31738281 135.389648438 1328.390625 c 128,-1,79
 104.958984375 1361.46386719 104.958984375 1361.46386719 104.958984375 1398.77636719 c 0,60,61
259.545898438 1398.2109375 m 256,80,81
 259.545898438 1374.46679688 259.545898438 1374.46679688 277.803710938 1353.83105469 c 128,-1,82
 296.0625 1333.19628906 296.0625 1333.19628906 328.927734375 1317.93164062 c 128,-1,83
 361.791015625 1302.66699219 361.791015625 1302.66699219 406.220703125 1293.90332031 c 128,-1,84
 450.6484375 1285.14160156 450.6484375 1285.14160156 501.772460938 1285.14160156 c 256,85,86
 552.89453125 1285.14160156 552.89453125 1285.14160156 596.713867188 1293.90332031 c 128,-1,87
 640.53515625 1302.66699219 640.53515625 1302.66699219 673.3984375 1317.93164062 c 128,-1,88
 706.263671875 1333.19628906 706.263671875 1333.19628906 724.5234375 1353.83105469 c 128,-1,89
 742.780273438 1374.46679688 742.780273438 1374.46679688 742.780273438 1398.2109375 c 256,90,91
 742.780273438 1421.95605469 742.780273438 1421.95605469 724.5234375 1442.87402344 c 128,-1,92
 706.263671875 1463.79199219 706.263671875 1463.79199219 673.3984375 1479.33886719 c 128,-1,93
 640.53515625 1494.88671875 640.53515625 1494.88671875 596.713867188 1503.64941406 c 128,-1,94
 552.89453125 1512.41210938 552.89453125 1512.41210938 501.772460938 1512.41210938 c 256,95,96
 450.6484375 1512.41210938 450.6484375 1512.41210938 406.220703125 1503.64941406 c 128,-1,97
 361.791015625 1494.88671875 361.791015625 1494.88671875 328.927734375 1479.33886719 c 128,-1,98
 296.0625 1463.79199219 296.0625 1463.79199219 277.803710938 1442.87402344 c 128,-1,99
 259.545898438 1421.95605469 259.545898438 1421.95605469 259.545898438 1398.2109375 c 256,80,81
EndSplineSet
EndChar

StartChar: eight
Encoding: 56 56 26
Width: 1009
Flags: W
LayerCount: 2
Fore
SplineSet
104.958984375 166.65234375 m 0,0,1
 104.958984375 204.53125 104.958984375 204.53125 135.389648438 237.885742188 c 128,-1,2
 165.8203125 271.241210938 165.8203125 271.241210938 219.376953125 295.833007812 c 128,-1,3
 272.935546875 320.426757812 272.935546875 320.426757812 345.360351562 334.560546875 c 128,-1,4
 417.784179688 348.693359375 417.784179688 348.693359375 501.772460938 348.693359375 c 256,5,6
 585.759765625 348.693359375 585.759765625 348.693359375 658.18359375 334.560546875 c 128,-1,7
 730.608398438 320.426757812 730.608398438 320.426757812 784.166015625 295.833007812 c 128,-1,8
 837.723632812 271.241210938 837.723632812 271.241210938 868.154296875 237.885742188 c 128,-1,9
 898.583984375 204.53125 898.583984375 204.53125 898.583984375 166.65234375 c 0,10,11
 898.583984375 129.337890625 898.583984375 129.337890625 868.154296875 96.263671875 c 128,-1,12
 837.723632812 63.1923828125 837.723632812 63.1923828125 784.166015625 38.5986328125 c 128,-1,13
 730.608398438 14.0068359375 730.608398438 14.0068359375 658.18359375 -0.41015625 c 128,-1,14
 585.759765625 -14.826171875 585.759765625 -14.826171875 501.772460938 -14.826171875 c 256,15,16
 417.784179688 -14.826171875 417.784179688 -14.826171875 345.360351562 -0.41015625 c 128,-1,17
 272.935546875 14.0068359375 272.935546875 14.0068359375 219.376953125 38.5986328125 c 128,-1,18
 165.8203125 63.1923828125 165.8203125 63.1923828125 135.389648438 96.263671875 c 128,-1,19
 104.958984375 129.337890625 104.958984375 129.337890625 104.958984375 166.65234375 c 0,0,1
259.545898438 166.084960938 m 256,20,21
 259.545898438 142.340820312 259.545898438 142.340820312 277.803710938 121.705078125 c 128,-1,22
 296.0625 101.0703125 296.0625 101.0703125 328.927734375 85.806640625 c 128,-1,23
 361.791015625 70.5419921875 361.791015625 70.5419921875 406.220703125 61.7783203125 c 128,-1,24
 450.6484375 53.015625 450.6484375 53.015625 501.772460938 53.015625 c 256,25,26
 552.89453125 53.015625 552.89453125 53.015625 596.713867188 61.7783203125 c 128,-1,27
 640.53515625 70.5419921875 640.53515625 70.5419921875 673.3984375 85.806640625 c 128,-1,28
 706.263671875 101.0703125 706.263671875 101.0703125 724.5234375 121.705078125 c 128,-1,29
 742.780273438 142.340820312 742.780273438 142.340820312 742.780273438 166.084960938 c 256,30,31
 742.780273438 189.831054688 742.780273438 189.831054688 724.5234375 210.748046875 c 128,-1,32
 706.263671875 231.666015625 706.263671875 231.666015625 673.3984375 247.213867188 c 128,-1,33
 640.53515625 262.760742188 640.53515625 262.760742188 596.713867188 271.5234375 c 128,-1,34
 552.89453125 280.287109375 552.89453125 280.287109375 501.772460938 280.287109375 c 256,35,36
 450.6484375 280.287109375 450.6484375 280.287109375 406.220703125 271.5234375 c 128,-1,37
 361.791015625 262.760742188 361.791015625 262.760742188 328.927734375 247.213867188 c 128,-1,38
 296.0625 231.666015625 296.0625 231.666015625 277.803710938 210.748046875 c 128,-1,39
 259.545898438 189.831054688 259.545898438 189.831054688 259.545898438 166.084960938 c 256,20,21
104.958984375 576.107421875 m 0,40,41
 104.958984375 613.986328125 104.958984375 613.986328125 135.389648438 647.341796875 c 128,-1,42
 165.8203125 680.698242188 165.8203125 680.698242188 219.376953125 705.291015625 c 128,-1,43
 272.935546875 729.8828125 272.935546875 729.8828125 345.360351562 744.016601562 c 128,-1,44
 417.784179688 758.150390625 417.784179688 758.150390625 501.772460938 758.150390625 c 256,45,46
 585.759765625 758.150390625 585.759765625 758.150390625 658.18359375 744.016601562 c 128,-1,47
 730.608398438 729.8828125 730.608398438 729.8828125 784.166015625 705.291015625 c 128,-1,48
 837.723632812 680.698242188 837.723632812 680.698242188 868.154296875 647.341796875 c 128,-1,49
 898.583984375 613.986328125 898.583984375 613.986328125 898.583984375 576.107421875 c 0,50,51
 898.583984375 538.793945312 898.583984375 538.793945312 868.154296875 505.721679688 c 128,-1,52
 837.723632812 472.6484375 837.723632812 472.6484375 784.166015625 448.055664062 c 128,-1,53
 730.608398438 423.462890625 730.608398438 423.462890625 658.18359375 409.046875 c 128,-1,54
 585.759765625 394.630859375 585.759765625 394.630859375 501.772460938 394.630859375 c 256,55,56
 417.784179688 394.630859375 417.784179688 394.630859375 345.360351562 409.046875 c 128,-1,57
 272.935546875 423.462890625 272.935546875 423.462890625 219.376953125 448.055664062 c 128,-1,58
 165.8203125 472.6484375 165.8203125 472.6484375 135.389648438 505.721679688 c 128,-1,59
 104.958984375 538.793945312 104.958984375 538.793945312 104.958984375 576.107421875 c 0,40,41
259.545898438 575.54296875 m 256,60,61
 259.545898438 551.796875 259.545898438 551.796875 277.803710938 531.162109375 c 128,-1,62
 296.0625 510.52734375 296.0625 510.52734375 328.927734375 495.262695312 c 128,-1,63
 361.791015625 479.998046875 361.791015625 479.998046875 406.220703125 471.235351562 c 128,-1,64
 450.6484375 462.470703125 450.6484375 462.470703125 501.772460938 462.470703125 c 256,65,66
 552.89453125 462.470703125 552.89453125 462.470703125 596.713867188 471.235351562 c 128,-1,67
 640.53515625 479.998046875 640.53515625 479.998046875 673.3984375 495.262695312 c 128,-1,68
 706.263671875 510.52734375 706.263671875 510.52734375 724.5234375 531.162109375 c 128,-1,69
 742.780273438 551.796875 742.780273438 551.796875 742.780273438 575.54296875 c 256,70,71
 742.780273438 599.286132812 742.780273438 599.286132812 724.5234375 620.205078125 c 128,-1,72
 706.263671875 641.123046875 706.263671875 641.123046875 673.3984375 656.669921875 c 128,-1,73
 640.53515625 672.215820312 640.53515625 672.215820312 596.713867188 680.979492188 c 128,-1,74
 552.89453125 689.7421875 552.89453125 689.7421875 501.772460938 689.7421875 c 256,75,76
 450.6484375 689.7421875 450.6484375 689.7421875 406.220703125 680.979492188 c 128,-1,77
 361.791015625 672.215820312 361.791015625 672.215820312 328.927734375 656.669921875 c 128,-1,78
 296.0625 641.123046875 296.0625 641.123046875 277.803710938 620.205078125 c 128,-1,79
 259.545898438 599.286132812 259.545898438 599.286132812 259.545898438 575.54296875 c 256,60,61
104.958984375 989.3203125 m 0,80,81
 104.958984375 1027.19921875 104.958984375 1027.19921875 135.389648438 1060.55566406 c 128,-1,82
 165.8203125 1093.91015625 165.8203125 1093.91015625 219.376953125 1118.50292969 c 128,-1,83
 272.935546875 1143.09570312 272.935546875 1143.09570312 345.360351562 1157.22949219 c 128,-1,84
 417.784179688 1171.36328125 417.784179688 1171.36328125 501.772460938 1171.36328125 c 256,85,86
 585.759765625 1171.36328125 585.759765625 1171.36328125 658.18359375 1157.22949219 c 128,-1,87
 730.608398438 1143.09570312 730.608398438 1143.09570312 784.166015625 1118.50292969 c 128,-1,88
 837.723632812 1093.91015625 837.723632812 1093.91015625 868.154296875 1060.55566406 c 128,-1,89
 898.583984375 1027.19921875 898.583984375 1027.19921875 898.583984375 989.3203125 c 0,90,91
 898.583984375 952.0078125 898.583984375 952.0078125 868.154296875 918.934570312 c 128,-1,92
 837.723632812 885.861328125 837.723632812 885.861328125 784.166015625 861.268554688 c 128,-1,93
 730.608398438 836.674804688 730.608398438 836.674804688 658.18359375 822.260742188 c 128,-1,94
 585.759765625 807.842773438 585.759765625 807.842773438 501.772460938 807.842773438 c 256,95,96
 417.784179688 807.842773438 417.784179688 807.842773438 345.360351562 822.260742188 c 128,-1,97
 272.935546875 836.674804688 272.935546875 836.674804688 219.376953125 861.268554688 c 128,-1,98
 165.8203125 885.861328125 165.8203125 885.861328125 135.389648438 918.934570312 c 128,-1,99
 104.958984375 952.0078125 104.958984375 952.0078125 104.958984375 989.3203125 c 0,80,81
259.545898438 988.754882812 m 256,100,101
 259.545898438 965.009765625 259.545898438 965.009765625 277.803710938 944.375 c 128,-1,102
 296.0625 923.740234375 296.0625 923.740234375 328.927734375 908.475585938 c 128,-1,103
 361.791015625 893.2109375 361.791015625 893.2109375 406.220703125 884.448242188 c 128,-1,104
 450.6484375 875.684570312 450.6484375 875.684570312 501.772460938 875.684570312 c 256,105,106
 552.89453125 875.684570312 552.89453125 875.684570312 596.713867188 884.448242188 c 128,-1,107
 640.53515625 893.2109375 640.53515625 893.2109375 673.3984375 908.475585938 c 128,-1,108
 706.263671875 923.740234375 706.263671875 923.740234375 724.5234375 944.375 c 128,-1,109
 742.780273438 965.009765625 742.780273438 965.009765625 742.780273438 988.754882812 c 256,110,111
 742.780273438 1012.49902344 742.780273438 1012.49902344 724.5234375 1033.41796875 c 128,-1,112
 706.263671875 1054.3359375 706.263671875 1054.3359375 673.3984375 1069.8828125 c 128,-1,113
 640.53515625 1085.42871094 640.53515625 1085.42871094 596.713867188 1094.19335938 c 128,-1,114
 552.89453125 1102.95605469 552.89453125 1102.95605469 501.772460938 1102.95605469 c 256,115,116
 450.6484375 1102.95605469 450.6484375 1102.95605469 406.220703125 1094.19335938 c 128,-1,117
 361.791015625 1085.42871094 361.791015625 1085.42871094 328.927734375 1069.8828125 c 128,-1,118
 296.0625 1054.3359375 296.0625 1054.3359375 277.803710938 1033.41796875 c 128,-1,119
 259.545898438 1012.49902344 259.545898438 1012.49902344 259.545898438 988.754882812 c 256,100,101
104.958984375 1398.77636719 m 0,120,121
 104.958984375 1436.65527344 104.958984375 1436.65527344 135.389648438 1470.01074219 c 128,-1,122
 165.8203125 1503.3671875 165.8203125 1503.3671875 219.376953125 1527.95898438 c 128,-1,123
 272.935546875 1552.55175781 272.935546875 1552.55175781 345.360351562 1566.68457031 c 128,-1,124
 417.784179688 1580.81835938 417.784179688 1580.81835938 501.772460938 1580.81835938 c 256,125,126
 585.759765625 1580.81835938 585.759765625 1580.81835938 658.18359375 1566.68457031 c 128,-1,127
 730.608398438 1552.55175781 730.608398438 1552.55175781 784.166015625 1527.95898438 c 128,-1,128
 837.723632812 1503.3671875 837.723632812 1503.3671875 868.154296875 1470.01074219 c 128,-1,129
 898.583984375 1436.65527344 898.583984375 1436.65527344 898.583984375 1398.77636719 c 0,130,131
 898.583984375 1361.46386719 898.583984375 1361.46386719 868.154296875 1328.390625 c 128,-1,132
 837.723632812 1295.31738281 837.723632812 1295.31738281 784.166015625 1270.72460938 c 128,-1,133
 730.608398438 1246.1328125 730.608398438 1246.1328125 658.18359375 1231.71679688 c 128,-1,134
 585.759765625 1217.29882812 585.759765625 1217.29882812 501.772460938 1217.29882812 c 256,135,136
 417.784179688 1217.29882812 417.784179688 1217.29882812 345.360351562 1231.71679688 c 128,-1,137
 272.935546875 1246.1328125 272.935546875 1246.1328125 219.376953125 1270.72460938 c 128,-1,138
 165.8203125 1295.31738281 165.8203125 1295.31738281 135.389648438 1328.390625 c 128,-1,139
 104.958984375 1361.46386719 104.958984375 1361.46386719 104.958984375 1398.77636719 c 0,120,121
EndSplineSet
EndChar

StartChar: nine
Encoding: 57 57 27
Width: 1009
Flags: W
LayerCount: 2
Fore
SplineSet
104.958984375 166.65234375 m 0,0,1
 104.958984375 204.53125 104.958984375 204.53125 135.389648438 237.885742188 c 128,-1,2
 165.8203125 271.241210938 165.8203125 271.241210938 219.376953125 295.833007812 c 128,-1,3
 272.935546875 320.426757812 272.935546875 320.426757812 345.360351562 334.560546875 c 128,-1,4
 417.784179688 348.693359375 417.784179688 348.693359375 501.772460938 348.693359375 c 256,5,6
 585.759765625 348.693359375 585.759765625 348.693359375 658.18359375 334.560546875 c 128,-1,7
 730.608398438 320.426757812 730.608398438 320.426757812 784.166015625 295.833007812 c 128,-1,8
 837.723632812 271.241210938 837.723632812 271.241210938 868.154296875 237.885742188 c 128,-1,9
 898.583984375 204.53125 898.583984375 204.53125 898.583984375 166.65234375 c 0,10,11
 898.583984375 129.337890625 898.583984375 129.337890625 868.154296875 96.263671875 c 128,-1,12
 837.723632812 63.1923828125 837.723632812 63.1923828125 784.166015625 38.5986328125 c 128,-1,13
 730.608398438 14.0068359375 730.608398438 14.0068359375 658.18359375 -0.41015625 c 128,-1,14
 585.759765625 -14.826171875 585.759765625 -14.826171875 501.772460938 -14.826171875 c 256,15,16
 417.784179688 -14.826171875 417.784179688 -14.826171875 345.360351562 -0.41015625 c 128,-1,17
 272.935546875 14.0068359375 272.935546875 14.0068359375 219.376953125 38.5986328125 c 128,-1,18
 165.8203125 63.1923828125 165.8203125 63.1923828125 135.389648438 96.263671875 c 128,-1,19
 104.958984375 129.337890625 104.958984375 129.337890625 104.958984375 166.65234375 c 0,0,1
104.958984375 576.107421875 m 0,20,21
 104.958984375 613.986328125 104.958984375 613.986328125 135.389648438 647.341796875 c 128,-1,22
 165.8203125 680.698242188 165.8203125 680.698242188 219.376953125 705.291015625 c 128,-1,23
 272.935546875 729.8828125 272.935546875 729.8828125 345.360351562 744.016601562 c 128,-1,24
 417.784179688 758.150390625 417.784179688 758.150390625 501.772460938 758.150390625 c 256,25,26
 585.759765625 758.150390625 585.759765625 758.150390625 658.18359375 744.016601562 c 128,-1,27
 730.608398438 729.8828125 730.608398438 729.8828125 784.166015625 705.291015625 c 128,-1,28
 837.723632812 680.698242188 837.723632812 680.698242188 868.154296875 647.341796875 c 128,-1,29
 898.583984375 613.986328125 898.583984375 613.986328125 898.583984375 576.107421875 c 0,30,31
 898.583984375 538.793945312 898.583984375 538.793945312 868.154296875 505.721679688 c 128,-1,32
 837.723632812 472.6484375 837.723632812 472.6484375 784.166015625 448.055664062 c 128,-1,33
 730.608398438 423.462890625 730.608398438 423.462890625 658.18359375 409.046875 c 128,-1,34
 585.759765625 394.630859375 585.759765625 394.630859375 501.772460938 394.630859375 c 256,35,36
 417.784179688 394.630859375 417.784179688 394.630859375 345.360351562 409.046875 c 128,-1,37
 272.935546875 423.462890625 272.935546875 423.462890625 219.376953125 448.055664062 c 128,-1,38
 165.8203125 472.6484375 165.8203125 472.6484375 135.389648438 505.721679688 c 128,-1,39
 104.958984375 538.793945312 104.958984375 538.793945312 104.958984375 576.107421875 c 0,20,21
259.545898438 575.54296875 m 256,40,41
 259.545898438 551.796875 259.545898438 551.796875 277.803710938 531.162109375 c 128,-1,42
 296.0625 510.52734375 296.0625 510.52734375 328.927734375 495.262695312 c 128,-1,43
 361.791015625 479.998046875 361.791015625 479.998046875 406.220703125 471.235351562 c 128,-1,44
 450.6484375 462.470703125 450.6484375 462.470703125 501.772460938 462.470703125 c 256,45,46
 552.89453125 462.470703125 552.89453125 462.470703125 596.713867188 471.235351562 c 128,-1,47
 640.53515625 479.998046875 640.53515625 479.998046875 673.3984375 495.262695312 c 128,-1,48
 706.263671875 510.52734375 706.263671875 510.52734375 724.5234375 531.162109375 c 128,-1,49
 742.780273438 551.796875 742.780273438 551.796875 742.780273438 575.54296875 c 256,50,51
 742.780273438 599.286132812 742.780273438 599.286132812 724.5234375 620.205078125 c 128,-1,52
 706.263671875 641.123046875 706.263671875 641.123046875 673.3984375 656.669921875 c 128,-1,53
 640.53515625 672.215820312 640.53515625 672.215820312 596.713867188 680.979492188 c 128,-1,54
 552.89453125 689.7421875 552.89453125 689.7421875 501.772460938 689.7421875 c 256,55,56
 450.6484375 689.7421875 450.6484375 689.7421875 406.220703125 680.979492188 c 128,-1,57
 361.791015625 672.215820312 361.791015625 672.215820312 328.927734375 656.669921875 c 128,-1,58
 296.0625 641.123046875 296.0625 641.123046875 277.803710938 620.205078125 c 128,-1,59
 259.545898438 599.286132812 259.545898438 599.286132812 259.545898438 575.54296875 c 256,40,41
104.958984375 989.3203125 m 0,60,61
 104.958984375 1027.19921875 104.958984375 1027.19921875 135.389648438 1060.55566406 c 128,-1,62
 165.8203125 1093.91015625 165.8203125 1093.91015625 219.376953125 1118.50292969 c 128,-1,63
 272.935546875 1143.09570312 272.935546875 1143.09570312 345.360351562 1157.22949219 c 128,-1,64
 417.784179688 1171.36328125 417.784179688 1171.36328125 501.772460938 1171.36328125 c 256,65,66
 585.759765625 1171.36328125 585.759765625 1171.36328125 658.18359375 1157.22949219 c 128,-1,67
 730.608398438 1143.09570312 730.608398438 1143.09570312 784.166015625 1118.50292969 c 128,-1,68
 837.723632812 1093.91015625 837.723632812 1093.91015625 868.154296875 1060.55566406 c 128,-1,69
 898.583984375 1027.19921875 898.583984375 1027.19921875 898.583984375 989.3203125 c 0,70,71
 898.583984375 952.0078125 898.583984375 952.0078125 868.154296875 918.934570312 c 128,-1,72
 837.723632812 885.861328125 837.723632812 885.861328125 784.166015625 861.268554688 c 128,-1,73
 730.608398438 836.674804688 730.608398438 836.674804688 658.18359375 822.260742188 c 128,-1,74
 585.759765625 807.842773438 585.759765625 807.842773438 501.772460938 807.842773438 c 256,75,76
 417.784179688 807.842773438 417.784179688 807.842773438 345.360351562 822.260742188 c 128,-1,77
 272.935546875 836.674804688 272.935546875 836.674804688 219.376953125 861.268554688 c 128,-1,78
 165.8203125 885.861328125 165.8203125 885.861328125 135.389648438 918.934570312 c 128,-1,79
 104.958984375 952.0078125 104.958984375 952.0078125 104.958984375 989.3203125 c 0,60,61
259.545898438 988.754882812 m 256,80,81
 259.545898438 965.009765625 259.545898438 965.009765625 277.803710938 944.375 c 128,-1,82
 296.0625 923.740234375 296.0625 923.740234375 328.927734375 908.475585938 c 128,-1,83
 361.791015625 893.2109375 361.791015625 893.2109375 406.220703125 884.448242188 c 128,-1,84
 450.6484375 875.684570312 450.6484375 875.684570312 501.772460938 875.684570312 c 256,85,86
 552.89453125 875.684570312 552.89453125 875.684570312 596.713867188 884.448242188 c 128,-1,87
 640.53515625 893.2109375 640.53515625 893.2109375 673.3984375 908.475585938 c 128,-1,88
 706.263671875 923.740234375 706.263671875 923.740234375 724.5234375 944.375 c 128,-1,89
 742.780273438 965.009765625 742.780273438 965.009765625 742.780273438 988.754882812 c 256,90,91
 742.780273438 1012.49902344 742.780273438 1012.49902344 724.5234375 1033.41796875 c 128,-1,92
 706.263671875 1054.3359375 706.263671875 1054.3359375 673.3984375 1069.8828125 c 128,-1,93
 640.53515625 1085.42871094 640.53515625 1085.42871094 596.713867188 1094.19335938 c 128,-1,94
 552.89453125 1102.95605469 552.89453125 1102.95605469 501.772460938 1102.95605469 c 256,95,96
 450.6484375 1102.95605469 450.6484375 1102.95605469 406.220703125 1094.19335938 c 128,-1,97
 361.791015625 1085.42871094 361.791015625 1085.42871094 328.927734375 1069.8828125 c 128,-1,98
 296.0625 1054.3359375 296.0625 1054.3359375 277.803710938 1033.41796875 c 128,-1,99
 259.545898438 1012.49902344 259.545898438 1012.49902344 259.545898438 988.754882812 c 256,80,81
104.958984375 1398.77636719 m 0,100,101
 104.958984375 1436.65527344 104.958984375 1436.65527344 135.389648438 1470.01074219 c 128,-1,102
 165.8203125 1503.3671875 165.8203125 1503.3671875 219.376953125 1527.95898438 c 128,-1,103
 272.935546875 1552.55175781 272.935546875 1552.55175781 345.360351562 1566.68457031 c 128,-1,104
 417.784179688 1580.81835938 417.784179688 1580.81835938 501.772460938 1580.81835938 c 256,105,106
 585.759765625 1580.81835938 585.759765625 1580.81835938 658.18359375 1566.68457031 c 128,-1,107
 730.608398438 1552.55175781 730.608398438 1552.55175781 784.166015625 1527.95898438 c 128,-1,108
 837.723632812 1503.3671875 837.723632812 1503.3671875 868.154296875 1470.01074219 c 128,-1,109
 898.583984375 1436.65527344 898.583984375 1436.65527344 898.583984375 1398.77636719 c 0,110,111
 898.583984375 1361.46386719 898.583984375 1361.46386719 868.154296875 1328.390625 c 128,-1,112
 837.723632812 1295.31738281 837.723632812 1295.31738281 784.166015625 1270.72460938 c 128,-1,113
 730.608398438 1246.1328125 730.608398438 1246.1328125 658.18359375 1231.71679688 c 128,-1,114
 585.759765625 1217.29882812 585.759765625 1217.29882812 501.772460938 1217.29882812 c 256,115,116
 417.784179688 1217.29882812 417.784179688 1217.29882812 345.360351562 1231.71679688 c 128,-1,117
 272.935546875 1246.1328125 272.935546875 1246.1328125 219.376953125 1270.72460938 c 128,-1,118
 165.8203125 1295.31738281 165.8203125 1295.31738281 135.389648438 1328.390625 c 128,-1,119
 104.958984375 1361.46386719 104.958984375 1361.46386719 104.958984375 1398.77636719 c 0,100,101
EndSplineSet
EndChar

StartChar: colon
Encoding: 58 58 28
Width: 504
Flags: W
LayerCount: 2
Fore
SplineSet
128 110 m 0,0,1
 128 136 128 136 137.5 159 c 128,-1,2
 147 182 147 182 163.5 199 c 128,-1,3
 180 216 180 216 203 226 c 128,-1,4
 226 236 226 236 252 236 c 256,5,6
 278 236 278 236 301 226 c 128,-1,7
 324 216 324 216 341 199 c 128,-1,8
 358 182 358 182 367.5 159 c 128,-1,9
 377 136 377 136 377 110 c 0,10,11
 377 83 377 83 367.5 60.5 c 128,-1,12
 358 38 358 38 341 21 c 128,-1,13
 324 4 324 4 301 -5.5 c 128,-1,14
 278 -15 278 -15 252 -15 c 256,15,16
 226 -15 226 -15 203 -5.5 c 128,-1,17
 180 4 180 4 163.5 21 c 128,-1,18
 147 38 147 38 137.5 60.5 c 128,-1,19
 128 83 128 83 128 110 c 0,0,1
128 860 m 0,20,21
 128 886 128 886 137.5 909 c 128,-1,22
 147 932 147 932 163.5 949 c 128,-1,23
 180 966 180 966 203 976 c 128,-1,24
 226 986 226 986 252 986 c 256,25,26
 278 986 278 986 301 976 c 128,-1,27
 324 966 324 966 341 949 c 128,-1,28
 358 932 358 932 367.5 909 c 128,-1,29
 377 886 377 886 377 860 c 0,30,31
 377 833 377 833 367.5 810.5 c 128,-1,32
 358 788 358 788 341 771 c 128,-1,33
 324 754 324 754 301 744.5 c 128,-1,34
 278 735 278 735 252 735 c 256,35,36
 226 735 226 735 203 744.5 c 128,-1,37
 180 754 180 754 163.5 771 c 128,-1,38
 147 788 147 788 137.5 810.5 c 128,-1,39
 128 833 128 833 128 860 c 0,20,21
EndSplineSet
EndChar

StartChar: semicolon
Encoding: 59 59 29
Width: 504
Flags: W
LayerCount: 2
Fore
SplineSet
134 123 m 0,0,1
 134 146 134 146 142.5 166.5 c 128,-1,2
 151 187 151 187 166.5 202.5 c 128,-1,3
 182 218 182 218 204 227 c 128,-1,4
 226 236 226 236 252 236 c 0,5,6
 282 236 282 236 305.5 225 c 128,-1,7
 329 214 329 214 344.5 194.5 c 128,-1,8
 360 175 360 175 368 149.5 c 128,-1,9
 376 124 376 124 376 94 c 0,10,11
 376 49 376 49 363 0.5 c 128,-1,12
 350 -48 350 -48 326 -95.5 c 128,-1,13
 302 -143 302 -143 266.5 -188 c 128,-1,14
 231 -233 231 -233 186 -271 c 1,15,-1
 156 -242 l 2,16,17
 143 -230 143 -230 143 -214 c 0,18,19
 143 -201 143 -201 157 -187 c 0,20,21
 167 -176 167 -176 182.5 -157.5 c 128,-1,22
 198 -139 198 -139 214 -115 c 128,-1,23
 230 -91 230 -91 243.5 -62 c 128,-1,24
 257 -33 257 -33 263 0 c 1,25,-1
 250 0 l 2,26,27
 224 0 224 0 203 9 c 128,-1,28
 182 18 182 18 166.5 34.5 c 128,-1,29
 151 51 151 51 142.5 73.5 c 128,-1,30
 134 96 134 96 134 123 c 0,0,1
128 860 m 0,31,32
 128 886 128 886 137.5 909 c 128,-1,33
 147 932 147 932 163.5 949 c 128,-1,34
 180 966 180 966 203 976 c 128,-1,35
 226 986 226 986 252 986 c 256,36,37
 278 986 278 986 301 976 c 128,-1,38
 324 966 324 966 341 949 c 128,-1,39
 358 932 358 932 367.5 909 c 128,-1,40
 377 886 377 886 377 860 c 0,41,42
 377 833 377 833 367.5 810.5 c 128,-1,43
 358 788 358 788 341 771 c 128,-1,44
 324 754 324 754 301 744.5 c 128,-1,45
 278 735 278 735 252 735 c 256,46,47
 226 735 226 735 203 744.5 c 128,-1,48
 180 754 180 754 163.5 771 c 128,-1,49
 147 788 147 788 137.5 810.5 c 128,-1,50
 128 833 128 833 128 860 c 0,31,32
EndSplineSet
EndChar

StartChar: less
Encoding: 60 60 30
Width: 1160
Flags: W
LayerCount: 2
Fore
SplineSet
148 710 m 1,0,-1
 922 1111 l 1,1,-1
 922 984 l 2,2,3
 922 967 922 967 914 954.5 c 128,-1,4
 906 942 906 942 886 932 c 2,5,-1
 437 704 l 2,6,7
 417 693 417 693 394.5 685.5 c 128,-1,8
 372 678 372 678 347 672 c 1,9,10
 372 667 372 667 394.5 659 c 128,-1,11
 417 651 417 651 437 641 c 2,12,-1
 886 414 l 2,13,14
 906 404 906 404 914 391 c 128,-1,15
 922 378 922 378 922 362 c 2,16,-1
 922 234 l 1,17,-1
 148 636 l 1,18,-1
 148 710 l 1,0,-1
EndSplineSet
EndChar

StartChar: equal
Encoding: 61 61 31
Width: 1160
Flags: W
LayerCount: 2
Fore
SplineSet
150 574 m 1,0,-1
 1009 574 l 1,1,-1
 1009 439 l 1,2,-1
 150 439 l 1,3,-1
 150 574 l 1,0,-1
150 909 m 1,4,-1
 1009 909 l 1,5,-1
 1009 774 l 1,6,-1
 150 774 l 1,7,-1
 150 909 l 1,4,-1
EndSplineSet
EndChar

StartChar: greater
Encoding: 62 62 32
Width: 1160
Flags: W
LayerCount: 2
Fore
SplineSet
238 234 m 1,0,-1
 238 362 l 2,1,2
 238 378 238 378 246 391 c 128,-1,3
 254 404 254 404 274 414 c 2,4,-1
 723 641 l 2,5,6
 743 651 743 651 764.5 659 c 128,-1,7
 786 667 786 667 811 672 c 1,8,9
 786 678 786 678 764.5 685.5 c 128,-1,10
 743 693 743 693 723 704 c 2,11,-1
 274 932 l 2,12,13
 254 942 254 942 246 954.5 c 128,-1,14
 238 967 238 967 238 984 c 2,15,-1
 238 1111 l 1,16,-1
 1011 710 l 1,17,-1
 1011 636 l 1,18,-1
 238 234 l 1,0,-1
EndSplineSet
EndChar

StartChar: question
Encoding: 63 63 33
Width: 796
Flags: W
LayerCount: 2
Fore
SplineSet
34 1305 m 1,0,1
 65 1334 65 1334 102.5 1360 c 128,-1,2
 140 1386 140 1386 184.5 1406 c 128,-1,3
 229 1426 229 1426 280.5 1437.5 c 128,-1,4
 332 1449 332 1449 392 1449 c 0,5,6
 471 1449 471 1449 538.5 1426 c 128,-1,7
 606 1403 606 1403 655 1361 c 128,-1,8
 704 1319 704 1319 732 1259 c 128,-1,9
 760 1199 760 1199 760 1124 c 0,10,11
 760 1048 760 1048 737.5 993 c 128,-1,12
 715 938 715 938 680.5 896.5 c 128,-1,13
 646 855 646 855 605 824.5 c 128,-1,14
 564 794 564 794 528.5 767 c 128,-1,15
 493 740 493 740 467.5 713 c 128,-1,16
 442 686 442 686 438 653 c 2,17,-1
 420 500 l 1,18,-1
 298 500 l 1,19,-1
 286 666 l 1,20,-1
 286 677 l 2,21,22
 286 719 286 719 308.5 751.5 c 128,-1,23
 331 784 331 784 365.5 812.5 c 128,-1,24
 400 841 400 841 439.5 869.5 c 128,-1,25
 479 898 479 898 513.5 932.5 c 128,-1,26
 548 967 548 967 570.5 1011 c 128,-1,27
 593 1055 593 1055 593 1115 c 0,28,29
 593 1158 593 1158 576 1193 c 128,-1,30
 559 1228 559 1228 530 1252.5 c 128,-1,31
 501 1277 501 1277 461.5 1290 c 128,-1,32
 422 1303 422 1303 377 1303 c 0,33,34
 316 1303 316 1303 272.5 1288 c 128,-1,35
 229 1273 229 1273 199 1255 c 128,-1,36
 169 1237 169 1237 150.5 1222 c 128,-1,37
 132 1207 132 1207 120 1207 c 0,38,39
 95 1207 95 1207 81 1230 c 2,40,-1
 34 1305 l 1,0,1
230 110 m 0,41,42
 230 136 230 136 239.5 159 c 128,-1,43
 249 182 249 182 265.5 199 c 128,-1,44
 282 216 282 216 305 226 c 128,-1,45
 328 236 328 236 354 236 c 256,46,47
 380 236 380 236 403 226 c 128,-1,48
 426 216 426 216 443 199 c 128,-1,49
 460 182 460 182 469.5 159 c 128,-1,50
 479 136 479 136 479 110 c 0,51,52
 479 83 479 83 469.5 60.5 c 128,-1,53
 460 38 460 38 443 21 c 128,-1,54
 426 4 426 4 403 -5.5 c 128,-1,55
 380 -15 380 -15 354 -15 c 256,56,57
 328 -15 328 -15 305 -5.5 c 128,-1,58
 282 4 282 4 265.5 21 c 128,-1,59
 249 38 249 38 239.5 60.5 c 128,-1,60
 230 83 230 83 230 110 c 0,41,42
EndSplineSet
EndChar

StartChar: at
Encoding: 64 64 34
Width: 1644
Flags: W
LayerCount: 2
Fore
SplineSet
1167 186 m 0,0,1
 1089 186 1089 186 1040 223.5 c 128,-1,2
 991 261 991 261 978 339 c 1,3,4
 920 258 920 258 852 223 c 128,-1,5
 784 188 784 188 706 188 c 0,6,7
 646 188 646 188 602 208.5 c 128,-1,8
 558 229 558 229 528.5 265.5 c 128,-1,9
 499 302 499 302 484.5 352 c 128,-1,10
 470 402 470 402 470 460 c 0,11,12
 470 545 470 545 502.5 631.5 c 128,-1,13
 535 718 535 718 599 787.5 c 128,-1,14
 663 857 663 857 758.5 901 c 128,-1,15
 854 945 854 945 979 945 c 0,16,17
 1046 945 1046 945 1096.5 934.5 c 128,-1,18
 1147 924 1147 924 1192 904 c 1,19,-1
 1099 543 l 2,20,21
 1080 468 1080 468 1080 419 c 0,22,23
 1080 383 1080 383 1089 359.5 c 128,-1,24
 1098 336 1098 336 1113.5 322.5 c 128,-1,25
 1129 309 1129 309 1149.5 304 c 128,-1,26
 1170 299 1170 299 1193 299 c 0,27,28
 1242 299 1242 299 1286 327 c 128,-1,29
 1330 355 1330 355 1363.5 406 c 128,-1,30
 1397 457 1397 457 1416.5 528.5 c 128,-1,31
 1436 600 1436 600 1436 687 c 0,32,33
 1436 825 1436 825 1391.5 929 c 128,-1,34
 1347 1033 1347 1033 1269.5 1102.5 c 128,-1,35
 1192 1172 1192 1172 1086.5 1206.5 c 128,-1,36
 981 1241 981 1241 859 1241 c 0,37,38
 725 1241 725 1241 608 1190 c 128,-1,39
 491 1139 491 1139 404 1049 c 128,-1,40
 317 959 317 959 267 836 c 128,-1,41
 217 713 217 713 217 568 c 0,42,43
 217 398 217 398 270.5 269.5 c 128,-1,44
 324 141 324 141 416.5 54 c 128,-1,45
 509 -33 509 -33 633.5 -77 c 128,-1,46
 758 -121 758 -121 901 -121 c 0,47,48
 1053 -121 1053 -121 1169.5 -88 c 128,-1,49
 1286 -55 1286 -55 1371 -4 c 0,50,51
 1386 5 1386 5 1398 5 c 0,52,53
 1419 5 1419 5 1429 -19 c 2,54,-1
 1454 -85 l 1,55,56
 1347 -157 1347 -157 1210.5 -198 c 128,-1,57
 1074 -239 1074 -239 901 -239 c 256,58,59
 728 -239 728 -239 579 -184 c 128,-1,60
 430 -129 430 -129 320.5 -25.5 c 128,-1,61
 211 78 211 78 148.5 228 c 128,-1,62
 86 378 86 378 86 568 c 0,63,64
 86 677 86 677 113.5 778 c 128,-1,65
 141 879 141 879 191 966.5 c 128,-1,66
 241 1054 241 1054 311 1126.5 c 128,-1,67
 381 1199 381 1199 467 1250.5 c 128,-1,68
 553 1302 553 1302 652 1330.5 c 128,-1,69
 751 1359 751 1359 859 1359 c 0,70,71
 951 1359 951 1359 1039 1339 c 128,-1,72
 1127 1319 1127 1319 1205.5 1280 c 128,-1,73
 1284 1241 1284 1241 1350 1183.5 c 128,-1,74
 1416 1126 1416 1126 1463.5 1051.5 c 128,-1,75
 1511 977 1511 977 1537.5 885.5 c 128,-1,76
 1564 794 1564 794 1564 687 c 0,77,78
 1564 579 1564 579 1533.5 487.5 c 128,-1,79
 1503 396 1503 396 1449.5 329 c 128,-1,80
 1396 262 1396 262 1323.5 224 c 128,-1,81
 1251 186 1251 186 1167 186 c 0,0,1
741 306 m 0,82,83
 772 306 772 306 803.5 316 c 128,-1,84
 835 326 835 326 864.5 351 c 128,-1,85
 894 376 894 376 918.5 419 c 128,-1,86
 943 462 943 462 960 527 c 2,87,-1
 1036 822 l 1,88,89
 997 831 997 831 951 831 c 0,90,91
 876 831 876 831 813.5 799.5 c 128,-1,92
 751 768 751 768 706 717 c 128,-1,93
 661 666 661 666 635.5 600 c 128,-1,94
 610 534 610 534 610 465 c 0,95,96
 610 393 610 393 643 349.5 c 128,-1,97
 676 306 676 306 741 306 c 0,82,83
EndSplineSet
EndChar

StartChar: A
Encoding: 65 65 35
Width: 1009
Flags: W
LayerCount: 2
Fore
SplineSet
104.958984375 166.65234375 m 0,0,1
 104.958984375 204.53125 104.958984375 204.53125 135.389648438 237.885742188 c 128,-1,2
 165.8203125 271.241210938 165.8203125 271.241210938 219.376953125 295.833007812 c 128,-1,3
 272.935546875 320.426757812 272.935546875 320.426757812 345.360351562 334.560546875 c 128,-1,4
 417.784179688 348.693359375 417.784179688 348.693359375 501.772460938 348.693359375 c 256,5,6
 585.759765625 348.693359375 585.759765625 348.693359375 658.18359375 334.560546875 c 128,-1,7
 730.608398438 320.426757812 730.608398438 320.426757812 784.166015625 295.833007812 c 128,-1,8
 837.723632812 271.241210938 837.723632812 271.241210938 868.154296875 237.885742188 c 128,-1,9
 898.583984375 204.53125 898.583984375 204.53125 898.583984375 166.65234375 c 0,10,11
 898.583984375 129.337890625 898.583984375 129.337890625 868.154296875 96.263671875 c 128,-1,12
 837.723632812 63.1923828125 837.723632812 63.1923828125 784.166015625 38.5986328125 c 128,-1,13
 730.608398438 14.0068359375 730.608398438 14.0068359375 658.18359375 -0.41015625 c 128,-1,14
 585.759765625 -14.826171875 585.759765625 -14.826171875 501.772460938 -14.826171875 c 256,15,16
 417.784179688 -14.826171875 417.784179688 -14.826171875 345.360351562 -0.41015625 c 128,-1,17
 272.935546875 14.0068359375 272.935546875 14.0068359375 219.376953125 38.5986328125 c 128,-1,18
 165.8203125 63.1923828125 165.8203125 63.1923828125 135.389648438 96.263671875 c 128,-1,19
 104.958984375 129.337890625 104.958984375 129.337890625 104.958984375 166.65234375 c 0,0,1
259.545898438 166.084960938 m 256,20,21
 259.545898438 142.340820312 259.545898438 142.340820312 277.803710938 121.705078125 c 128,-1,22
 296.0625 101.0703125 296.0625 101.0703125 328.927734375 85.806640625 c 128,-1,23
 361.791015625 70.5419921875 361.791015625 70.5419921875 406.220703125 61.7783203125 c 128,-1,24
 450.6484375 53.015625 450.6484375 53.015625 501.772460938 53.015625 c 256,25,26
 552.89453125 53.015625 552.89453125 53.015625 596.713867188 61.7783203125 c 128,-1,27
 640.53515625 70.5419921875 640.53515625 70.5419921875 673.3984375 85.806640625 c 128,-1,28
 706.263671875 101.0703125 706.263671875 101.0703125 724.5234375 121.705078125 c 128,-1,29
 742.780273438 142.340820312 742.780273438 142.340820312 742.780273438 166.084960938 c 256,30,31
 742.780273438 189.831054688 742.780273438 189.831054688 724.5234375 210.748046875 c 128,-1,32
 706.263671875 231.666015625 706.263671875 231.666015625 673.3984375 247.213867188 c 128,-1,33
 640.53515625 262.760742188 640.53515625 262.760742188 596.713867188 271.5234375 c 128,-1,34
 552.89453125 280.287109375 552.89453125 280.287109375 501.772460938 280.287109375 c 256,35,36
 450.6484375 280.287109375 450.6484375 280.287109375 406.220703125 271.5234375 c 128,-1,37
 361.791015625 262.760742188 361.791015625 262.760742188 328.927734375 247.213867188 c 128,-1,38
 296.0625 231.666015625 296.0625 231.666015625 277.803710938 210.748046875 c 128,-1,39
 259.545898438 189.831054688 259.545898438 189.831054688 259.545898438 166.084960938 c 256,20,21
104.958984375 576.107421875 m 0,40,41
 104.958984375 613.986328125 104.958984375 613.986328125 135.389648438 647.341796875 c 128,-1,42
 165.8203125 680.698242188 165.8203125 680.698242188 219.376953125 705.291015625 c 128,-1,43
 272.935546875 729.8828125 272.935546875 729.8828125 345.360351562 744.016601562 c 128,-1,44
 417.784179688 758.150390625 417.784179688 758.150390625 501.772460938 758.150390625 c 256,45,46
 585.759765625 758.150390625 585.759765625 758.150390625 658.18359375 744.016601562 c 128,-1,47
 730.608398438 729.8828125 730.608398438 729.8828125 784.166015625 705.291015625 c 128,-1,48
 837.723632812 680.698242188 837.723632812 680.698242188 868.154296875 647.341796875 c 128,-1,49
 898.583984375 613.986328125 898.583984375 613.986328125 898.583984375 576.107421875 c 0,50,51
 898.583984375 538.793945312 898.583984375 538.793945312 868.154296875 505.721679688 c 128,-1,52
 837.723632812 472.6484375 837.723632812 472.6484375 784.166015625 448.055664062 c 128,-1,53
 730.608398438 423.462890625 730.608398438 423.462890625 658.18359375 409.046875 c 128,-1,54
 585.759765625 394.630859375 585.759765625 394.630859375 501.772460938 394.630859375 c 256,55,56
 417.784179688 394.630859375 417.784179688 394.630859375 345.360351562 409.046875 c 128,-1,57
 272.935546875 423.462890625 272.935546875 423.462890625 219.376953125 448.055664062 c 128,-1,58
 165.8203125 472.6484375 165.8203125 472.6484375 135.389648438 505.721679688 c 128,-1,59
 104.958984375 538.793945312 104.958984375 538.793945312 104.958984375 576.107421875 c 0,40,41
104.958984375 989.3203125 m 0,60,61
 104.958984375 1027.19921875 104.958984375 1027.19921875 135.389648438 1060.55566406 c 128,-1,62
 165.8203125 1093.91015625 165.8203125 1093.91015625 219.376953125 1118.50292969 c 128,-1,63
 272.935546875 1143.09570312 272.935546875 1143.09570312 345.360351562 1157.22949219 c 128,-1,64
 417.784179688 1171.36328125 417.784179688 1171.36328125 501.772460938 1171.36328125 c 256,65,66
 585.759765625 1171.36328125 585.759765625 1171.36328125 658.18359375 1157.22949219 c 128,-1,67
 730.608398438 1143.09570312 730.608398438 1143.09570312 784.166015625 1118.50292969 c 128,-1,68
 837.723632812 1093.91015625 837.723632812 1093.91015625 868.154296875 1060.55566406 c 128,-1,69
 898.583984375 1027.19921875 898.583984375 1027.19921875 898.583984375 989.3203125 c 0,70,71
 898.583984375 952.0078125 898.583984375 952.0078125 868.154296875 918.934570312 c 128,-1,72
 837.723632812 885.861328125 837.723632812 885.861328125 784.166015625 861.268554688 c 128,-1,73
 730.608398438 836.674804688 730.608398438 836.674804688 658.18359375 822.260742188 c 128,-1,74
 585.759765625 807.842773438 585.759765625 807.842773438 501.772460938 807.842773438 c 256,75,76
 417.784179688 807.842773438 417.784179688 807.842773438 345.360351562 822.260742188 c 128,-1,77
 272.935546875 836.674804688 272.935546875 836.674804688 219.376953125 861.268554688 c 128,-1,78
 165.8203125 885.861328125 165.8203125 885.861328125 135.389648438 918.934570312 c 128,-1,79
 104.958984375 952.0078125 104.958984375 952.0078125 104.958984375 989.3203125 c 0,60,61
259.545898438 988.754882812 m 256,80,81
 259.545898438 965.009765625 259.545898438 965.009765625 277.803710938 944.375 c 128,-1,82
 296.0625 923.740234375 296.0625 923.740234375 328.927734375 908.475585938 c 128,-1,83
 361.791015625 893.2109375 361.791015625 893.2109375 406.220703125 884.448242188 c 128,-1,84
 450.6484375 875.684570312 450.6484375 875.684570312 501.772460938 875.684570312 c 256,85,86
 552.89453125 875.684570312 552.89453125 875.684570312 596.713867188 884.448242188 c 128,-1,87
 640.53515625 893.2109375 640.53515625 893.2109375 673.3984375 908.475585938 c 128,-1,88
 706.263671875 923.740234375 706.263671875 923.740234375 724.5234375 944.375 c 128,-1,89
 742.780273438 965.009765625 742.780273438 965.009765625 742.780273438 988.754882812 c 256,90,91
 742.780273438 1012.49902344 742.780273438 1012.49902344 724.5234375 1033.41796875 c 128,-1,92
 706.263671875 1054.3359375 706.263671875 1054.3359375 673.3984375 1069.8828125 c 128,-1,93
 640.53515625 1085.42871094 640.53515625 1085.42871094 596.713867188 1094.19335938 c 128,-1,94
 552.89453125 1102.95605469 552.89453125 1102.95605469 501.772460938 1102.95605469 c 256,95,96
 450.6484375 1102.95605469 450.6484375 1102.95605469 406.220703125 1094.19335938 c 128,-1,97
 361.791015625 1085.42871094 361.791015625 1085.42871094 328.927734375 1069.8828125 c 128,-1,98
 296.0625 1054.3359375 296.0625 1054.3359375 277.803710938 1033.41796875 c 128,-1,99
 259.545898438 1012.49902344 259.545898438 1012.49902344 259.545898438 988.754882812 c 256,80,81
104.958984375 1398.77636719 m 0,100,101
 104.958984375 1436.65527344 104.958984375 1436.65527344 135.389648438 1470.01074219 c 128,-1,102
 165.8203125 1503.3671875 165.8203125 1503.3671875 219.376953125 1527.95898438 c 128,-1,103
 272.935546875 1552.55175781 272.935546875 1552.55175781 345.360351562 1566.68457031 c 128,-1,104
 417.784179688 1580.81835938 417.784179688 1580.81835938 501.772460938 1580.81835938 c 256,105,106
 585.759765625 1580.81835938 585.759765625 1580.81835938 658.18359375 1566.68457031 c 128,-1,107
 730.608398438 1552.55175781 730.608398438 1552.55175781 784.166015625 1527.95898438 c 128,-1,108
 837.723632812 1503.3671875 837.723632812 1503.3671875 868.154296875 1470.01074219 c 128,-1,109
 898.583984375 1436.65527344 898.583984375 1436.65527344 898.583984375 1398.77636719 c 0,110,111
 898.583984375 1361.46386719 898.583984375 1361.46386719 868.154296875 1328.390625 c 128,-1,112
 837.723632812 1295.31738281 837.723632812 1295.31738281 784.166015625 1270.72460938 c 128,-1,113
 730.608398438 1246.1328125 730.608398438 1246.1328125 658.18359375 1231.71679688 c 128,-1,114
 585.759765625 1217.29882812 585.759765625 1217.29882812 501.772460938 1217.29882812 c 256,115,116
 417.784179688 1217.29882812 417.784179688 1217.29882812 345.360351562 1231.71679688 c 128,-1,117
 272.935546875 1246.1328125 272.935546875 1246.1328125 219.376953125 1270.72460938 c 128,-1,118
 165.8203125 1295.31738281 165.8203125 1295.31738281 135.389648438 1328.390625 c 128,-1,119
 104.958984375 1361.46386719 104.958984375 1361.46386719 104.958984375 1398.77636719 c 0,100,101
EndSplineSet
EndChar

StartChar: B
Encoding: 66 66 36
Width: 1009
Flags: W
LayerCount: 2
Fore
SplineSet
104.958984375 166.65234375 m 0,0,1
 104.958984375 204.53125 104.958984375 204.53125 135.389648438 237.885742188 c 128,-1,2
 165.8203125 271.241210938 165.8203125 271.241210938 219.376953125 295.833007812 c 128,-1,3
 272.935546875 320.426757812 272.935546875 320.426757812 345.360351562 334.560546875 c 128,-1,4
 417.784179688 348.693359375 417.784179688 348.693359375 501.772460938 348.693359375 c 256,5,6
 585.759765625 348.693359375 585.759765625 348.693359375 658.18359375 334.560546875 c 128,-1,7
 730.608398438 320.426757812 730.608398438 320.426757812 784.166015625 295.833007812 c 128,-1,8
 837.723632812 271.241210938 837.723632812 271.241210938 868.154296875 237.885742188 c 128,-1,9
 898.583984375 204.53125 898.583984375 204.53125 898.583984375 166.65234375 c 0,10,11
 898.583984375 129.337890625 898.583984375 129.337890625 868.154296875 96.263671875 c 128,-1,12
 837.723632812 63.1923828125 837.723632812 63.1923828125 784.166015625 38.5986328125 c 128,-1,13
 730.608398438 14.0068359375 730.608398438 14.0068359375 658.18359375 -0.41015625 c 128,-1,14
 585.759765625 -14.826171875 585.759765625 -14.826171875 501.772460938 -14.826171875 c 256,15,16
 417.784179688 -14.826171875 417.784179688 -14.826171875 345.360351562 -0.41015625 c 128,-1,17
 272.935546875 14.0068359375 272.935546875 14.0068359375 219.376953125 38.5986328125 c 128,-1,18
 165.8203125 63.1923828125 165.8203125 63.1923828125 135.389648438 96.263671875 c 128,-1,19
 104.958984375 129.337890625 104.958984375 129.337890625 104.958984375 166.65234375 c 0,0,1
104.958984375 576.107421875 m 0,20,21
 104.958984375 613.986328125 104.958984375 613.986328125 135.389648438 647.341796875 c 128,-1,22
 165.8203125 680.698242188 165.8203125 680.698242188 219.376953125 705.291015625 c 128,-1,23
 272.935546875 729.8828125 272.935546875 729.8828125 345.360351562 744.016601562 c 128,-1,24
 417.784179688 758.150390625 417.784179688 758.150390625 501.772460938 758.150390625 c 256,25,26
 585.759765625 758.150390625 585.759765625 758.150390625 658.18359375 744.016601562 c 128,-1,27
 730.608398438 729.8828125 730.608398438 729.8828125 784.166015625 705.291015625 c 128,-1,28
 837.723632812 680.698242188 837.723632812 680.698242188 868.154296875 647.341796875 c 128,-1,29
 898.583984375 613.986328125 898.583984375 613.986328125 898.583984375 576.107421875 c 0,30,31
 898.583984375 538.793945312 898.583984375 538.793945312 868.154296875 505.721679688 c 128,-1,32
 837.723632812 472.6484375 837.723632812 472.6484375 784.166015625 448.055664062 c 128,-1,33
 730.608398438 423.462890625 730.608398438 423.462890625 658.18359375 409.046875 c 128,-1,34
 585.759765625 394.630859375 585.759765625 394.630859375 501.772460938 394.630859375 c 256,35,36
 417.784179688 394.630859375 417.784179688 394.630859375 345.360351562 409.046875 c 128,-1,37
 272.935546875 423.462890625 272.935546875 423.462890625 219.376953125 448.055664062 c 128,-1,38
 165.8203125 472.6484375 165.8203125 472.6484375 135.389648438 505.721679688 c 128,-1,39
 104.958984375 538.793945312 104.958984375 538.793945312 104.958984375 576.107421875 c 0,20,21
104.958984375 989.3203125 m 0,40,41
 104.958984375 1027.19921875 104.958984375 1027.19921875 135.389648438 1060.55566406 c 128,-1,42
 165.8203125 1093.91015625 165.8203125 1093.91015625 219.376953125 1118.50292969 c 128,-1,43
 272.935546875 1143.09570312 272.935546875 1143.09570312 345.360351562 1157.22949219 c 128,-1,44
 417.784179688 1171.36328125 417.784179688 1171.36328125 501.772460938 1171.36328125 c 256,45,46
 585.759765625 1171.36328125 585.759765625 1171.36328125 658.18359375 1157.22949219 c 128,-1,47
 730.608398438 1143.09570312 730.608398438 1143.09570312 784.166015625 1118.50292969 c 128,-1,48
 837.723632812 1093.91015625 837.723632812 1093.91015625 868.154296875 1060.55566406 c 128,-1,49
 898.583984375 1027.19921875 898.583984375 1027.19921875 898.583984375 989.3203125 c 0,50,51
 898.583984375 952.0078125 898.583984375 952.0078125 868.154296875 918.934570312 c 128,-1,52
 837.723632812 885.861328125 837.723632812 885.861328125 784.166015625 861.268554688 c 128,-1,53
 730.608398438 836.674804688 730.608398438 836.674804688 658.18359375 822.260742188 c 128,-1,54
 585.759765625 807.842773438 585.759765625 807.842773438 501.772460938 807.842773438 c 256,55,56
 417.784179688 807.842773438 417.784179688 807.842773438 345.360351562 822.260742188 c 128,-1,57
 272.935546875 836.674804688 272.935546875 836.674804688 219.376953125 861.268554688 c 128,-1,58
 165.8203125 885.861328125 165.8203125 885.861328125 135.389648438 918.934570312 c 128,-1,59
 104.958984375 952.0078125 104.958984375 952.0078125 104.958984375 989.3203125 c 0,40,41
259.545898438 988.754882812 m 256,60,61
 259.545898438 965.009765625 259.545898438 965.009765625 277.803710938 944.375 c 128,-1,62
 296.0625 923.740234375 296.0625 923.740234375 328.927734375 908.475585938 c 128,-1,63
 361.791015625 893.2109375 361.791015625 893.2109375 406.220703125 884.448242188 c 128,-1,64
 450.6484375 875.684570312 450.6484375 875.684570312 501.772460938 875.684570312 c 256,65,66
 552.89453125 875.684570312 552.89453125 875.684570312 596.713867188 884.448242188 c 128,-1,67
 640.53515625 893.2109375 640.53515625 893.2109375 673.3984375 908.475585938 c 128,-1,68
 706.263671875 923.740234375 706.263671875 923.740234375 724.5234375 944.375 c 128,-1,69
 742.780273438 965.009765625 742.780273438 965.009765625 742.780273438 988.754882812 c 256,70,71
 742.780273438 1012.49902344 742.780273438 1012.49902344 724.5234375 1033.41796875 c 128,-1,72
 706.263671875 1054.3359375 706.263671875 1054.3359375 673.3984375 1069.8828125 c 128,-1,73
 640.53515625 1085.42871094 640.53515625 1085.42871094 596.713867188 1094.19335938 c 128,-1,74
 552.89453125 1102.95605469 552.89453125 1102.95605469 501.772460938 1102.95605469 c 256,75,76
 450.6484375 1102.95605469 450.6484375 1102.95605469 406.220703125 1094.19335938 c 128,-1,77
 361.791015625 1085.42871094 361.791015625 1085.42871094 328.927734375 1069.8828125 c 128,-1,78
 296.0625 1054.3359375 296.0625 1054.3359375 277.803710938 1033.41796875 c 128,-1,79
 259.545898438 1012.49902344 259.545898438 1012.49902344 259.545898438 988.754882812 c 256,60,61
104.958984375 1398.77636719 m 0,80,81
 104.958984375 1436.65527344 104.958984375 1436.65527344 135.389648438 1470.01074219 c 128,-1,82
 165.8203125 1503.3671875 165.8203125 1503.3671875 219.376953125 1527.95898438 c 128,-1,83
 272.935546875 1552.55175781 272.935546875 1552.55175781 345.360351562 1566.68457031 c 128,-1,84
 417.784179688 1580.81835938 417.784179688 1580.81835938 501.772460938 1580.81835938 c 256,85,86
 585.759765625 1580.81835938 585.759765625 1580.81835938 658.18359375 1566.68457031 c 128,-1,87
 730.608398438 1552.55175781 730.608398438 1552.55175781 784.166015625 1527.95898438 c 128,-1,88
 837.723632812 1503.3671875 837.723632812 1503.3671875 868.154296875 1470.01074219 c 128,-1,89
 898.583984375 1436.65527344 898.583984375 1436.65527344 898.583984375 1398.77636719 c 0,90,91
 898.583984375 1361.46386719 898.583984375 1361.46386719 868.154296875 1328.390625 c 128,-1,92
 837.723632812 1295.31738281 837.723632812 1295.31738281 784.166015625 1270.72460938 c 128,-1,93
 730.608398438 1246.1328125 730.608398438 1246.1328125 658.18359375 1231.71679688 c 128,-1,94
 585.759765625 1217.29882812 585.759765625 1217.29882812 501.772460938 1217.29882812 c 256,95,96
 417.784179688 1217.29882812 417.784179688 1217.29882812 345.360351562 1231.71679688 c 128,-1,97
 272.935546875 1246.1328125 272.935546875 1246.1328125 219.376953125 1270.72460938 c 128,-1,98
 165.8203125 1295.31738281 165.8203125 1295.31738281 135.389648438 1328.390625 c 128,-1,99
 104.958984375 1361.46386719 104.958984375 1361.46386719 104.958984375 1398.77636719 c 0,80,81
EndSplineSet
EndChar

StartChar: C
Encoding: 67 67 37
Width: 1009
Flags: W
LayerCount: 2
Fore
SplineSet
104.958984375 166.65234375 m 0,0,1
 104.958984375 204.53125 104.958984375 204.53125 135.389648438 237.885742188 c 128,-1,2
 165.8203125 271.241210938 165.8203125 271.241210938 219.376953125 295.833007812 c 128,-1,3
 272.935546875 320.426757812 272.935546875 320.426757812 345.360351562 334.560546875 c 128,-1,4
 417.784179688 348.693359375 417.784179688 348.693359375 501.772460938 348.693359375 c 256,5,6
 585.759765625 348.693359375 585.759765625 348.693359375 658.18359375 334.560546875 c 128,-1,7
 730.608398438 320.426757812 730.608398438 320.426757812 784.166015625 295.833007812 c 128,-1,8
 837.723632812 271.241210938 837.723632812 271.241210938 868.154296875 237.885742188 c 128,-1,9
 898.583984375 204.53125 898.583984375 204.53125 898.583984375 166.65234375 c 0,10,11
 898.583984375 129.337890625 898.583984375 129.337890625 868.154296875 96.263671875 c 128,-1,12
 837.723632812 63.1923828125 837.723632812 63.1923828125 784.166015625 38.5986328125 c 128,-1,13
 730.608398438 14.0068359375 730.608398438 14.0068359375 658.18359375 -0.41015625 c 128,-1,14
 585.759765625 -14.826171875 585.759765625 -14.826171875 501.772460938 -14.826171875 c 256,15,16
 417.784179688 -14.826171875 417.784179688 -14.826171875 345.360351562 -0.41015625 c 128,-1,17
 272.935546875 14.0068359375 272.935546875 14.0068359375 219.376953125 38.5986328125 c 128,-1,18
 165.8203125 63.1923828125 165.8203125 63.1923828125 135.389648438 96.263671875 c 128,-1,19
 104.958984375 129.337890625 104.958984375 129.337890625 104.958984375 166.65234375 c 0,0,1
259.545898438 166.084960938 m 256,20,21
 259.545898438 142.340820312 259.545898438 142.340820312 277.803710938 121.705078125 c 128,-1,22
 296.0625 101.0703125 296.0625 101.0703125 328.927734375 85.806640625 c 128,-1,23
 361.791015625 70.5419921875 361.791015625 70.5419921875 406.220703125 61.7783203125 c 128,-1,24
 450.6484375 53.015625 450.6484375 53.015625 501.772460938 53.015625 c 256,25,26
 552.89453125 53.015625 552.89453125 53.015625 596.713867188 61.7783203125 c 128,-1,27
 640.53515625 70.5419921875 640.53515625 70.5419921875 673.3984375 85.806640625 c 128,-1,28
 706.263671875 101.0703125 706.263671875 101.0703125 724.5234375 121.705078125 c 128,-1,29
 742.780273438 142.340820312 742.780273438 142.340820312 742.780273438 166.084960938 c 256,30,31
 742.780273438 189.831054688 742.780273438 189.831054688 724.5234375 210.748046875 c 128,-1,32
 706.263671875 231.666015625 706.263671875 231.666015625 673.3984375 247.213867188 c 128,-1,33
 640.53515625 262.760742188 640.53515625 262.760742188 596.713867188 271.5234375 c 128,-1,34
 552.89453125 280.287109375 552.89453125 280.287109375 501.772460938 280.287109375 c 256,35,36
 450.6484375 280.287109375 450.6484375 280.287109375 406.220703125 271.5234375 c 128,-1,37
 361.791015625 262.760742188 361.791015625 262.760742188 328.927734375 247.213867188 c 128,-1,38
 296.0625 231.666015625 296.0625 231.666015625 277.803710938 210.748046875 c 128,-1,39
 259.545898438 189.831054688 259.545898438 189.831054688 259.545898438 166.084960938 c 256,20,21
104.958984375 576.107421875 m 0,40,41
 104.958984375 613.986328125 104.958984375 613.986328125 135.389648438 647.341796875 c 128,-1,42
 165.8203125 680.698242188 165.8203125 680.698242188 219.376953125 705.291015625 c 128,-1,43
 272.935546875 729.8828125 272.935546875 729.8828125 345.360351562 744.016601562 c 128,-1,44
 417.784179688 758.150390625 417.784179688 758.150390625 501.772460938 758.150390625 c 256,45,46
 585.759765625 758.150390625 585.759765625 758.150390625 658.18359375 744.016601562 c 128,-1,47
 730.608398438 729.8828125 730.608398438 729.8828125 784.166015625 705.291015625 c 128,-1,48
 837.723632812 680.698242188 837.723632812 680.698242188 868.154296875 647.341796875 c 128,-1,49
 898.583984375 613.986328125 898.583984375 613.986328125 898.583984375 576.107421875 c 0,50,51
 898.583984375 538.793945312 898.583984375 538.793945312 868.154296875 505.721679688 c 128,-1,52
 837.723632812 472.6484375 837.723632812 472.6484375 784.166015625 448.055664062 c 128,-1,53
 730.608398438 423.462890625 730.608398438 423.462890625 658.18359375 409.046875 c 128,-1,54
 585.759765625 394.630859375 585.759765625 394.630859375 501.772460938 394.630859375 c 256,55,56
 417.784179688 394.630859375 417.784179688 394.630859375 345.360351562 409.046875 c 128,-1,57
 272.935546875 423.462890625 272.935546875 423.462890625 219.376953125 448.055664062 c 128,-1,58
 165.8203125 472.6484375 165.8203125 472.6484375 135.389648438 505.721679688 c 128,-1,59
 104.958984375 538.793945312 104.958984375 538.793945312 104.958984375 576.107421875 c 0,40,41
259.545898438 575.54296875 m 256,60,61
 259.545898438 551.796875 259.545898438 551.796875 277.803710938 531.162109375 c 128,-1,62
 296.0625 510.52734375 296.0625 510.52734375 328.927734375 495.262695312 c 128,-1,63
 361.791015625 479.998046875 361.791015625 479.998046875 406.220703125 471.235351562 c 128,-1,64
 450.6484375 462.470703125 450.6484375 462.470703125 501.772460938 462.470703125 c 256,65,66
 552.89453125 462.470703125 552.89453125 462.470703125 596.713867188 471.235351562 c 128,-1,67
 640.53515625 479.998046875 640.53515625 479.998046875 673.3984375 495.262695312 c 128,-1,68
 706.263671875 510.52734375 706.263671875 510.52734375 724.5234375 531.162109375 c 128,-1,69
 742.780273438 551.796875 742.780273438 551.796875 742.780273438 575.54296875 c 256,70,71
 742.780273438 599.286132812 742.780273438 599.286132812 724.5234375 620.205078125 c 128,-1,72
 706.263671875 641.123046875 706.263671875 641.123046875 673.3984375 656.669921875 c 128,-1,73
 640.53515625 672.215820312 640.53515625 672.215820312 596.713867188 680.979492188 c 128,-1,74
 552.89453125 689.7421875 552.89453125 689.7421875 501.772460938 689.7421875 c 256,75,76
 450.6484375 689.7421875 450.6484375 689.7421875 406.220703125 680.979492188 c 128,-1,77
 361.791015625 672.215820312 361.791015625 672.215820312 328.927734375 656.669921875 c 128,-1,78
 296.0625 641.123046875 296.0625 641.123046875 277.803710938 620.205078125 c 128,-1,79
 259.545898438 599.286132812 259.545898438 599.286132812 259.545898438 575.54296875 c 256,60,61
104.958984375 989.3203125 m 0,80,81
 104.958984375 1027.19921875 104.958984375 1027.19921875 135.389648438 1060.55566406 c 128,-1,82
 165.8203125 1093.91015625 165.8203125 1093.91015625 219.376953125 1118.50292969 c 128,-1,83
 272.935546875 1143.09570312 272.935546875 1143.09570312 345.360351562 1157.22949219 c 128,-1,84
 417.784179688 1171.36328125 417.784179688 1171.36328125 501.772460938 1171.36328125 c 256,85,86
 585.759765625 1171.36328125 585.759765625 1171.36328125 658.18359375 1157.22949219 c 128,-1,87
 730.608398438 1143.09570312 730.608398438 1143.09570312 784.166015625 1118.50292969 c 128,-1,88
 837.723632812 1093.91015625 837.723632812 1093.91015625 868.154296875 1060.55566406 c 128,-1,89
 898.583984375 1027.19921875 898.583984375 1027.19921875 898.583984375 989.3203125 c 0,90,91
 898.583984375 952.0078125 898.583984375 952.0078125 868.154296875 918.934570312 c 128,-1,92
 837.723632812 885.861328125 837.723632812 885.861328125 784.166015625 861.268554688 c 128,-1,93
 730.608398438 836.674804688 730.608398438 836.674804688 658.18359375 822.260742188 c 128,-1,94
 585.759765625 807.842773438 585.759765625 807.842773438 501.772460938 807.842773438 c 256,95,96
 417.784179688 807.842773438 417.784179688 807.842773438 345.360351562 822.260742188 c 128,-1,97
 272.935546875 836.674804688 272.935546875 836.674804688 219.376953125 861.268554688 c 128,-1,98
 165.8203125 885.861328125 165.8203125 885.861328125 135.389648438 918.934570312 c 128,-1,99
 104.958984375 952.0078125 104.958984375 952.0078125 104.958984375 989.3203125 c 0,80,81
104.958984375 1398.77636719 m 0,100,101
 104.958984375 1436.65527344 104.958984375 1436.65527344 135.389648438 1470.01074219 c 128,-1,102
 165.8203125 1503.3671875 165.8203125 1503.3671875 219.376953125 1527.95898438 c 128,-1,103
 272.935546875 1552.55175781 272.935546875 1552.55175781 345.360351562 1566.68457031 c 128,-1,104
 417.784179688 1580.81835938 417.784179688 1580.81835938 501.772460938 1580.81835938 c 256,105,106
 585.759765625 1580.81835938 585.759765625 1580.81835938 658.18359375 1566.68457031 c 128,-1,107
 730.608398438 1552.55175781 730.608398438 1552.55175781 784.166015625 1527.95898438 c 128,-1,108
 837.723632812 1503.3671875 837.723632812 1503.3671875 868.154296875 1470.01074219 c 128,-1,109
 898.583984375 1436.65527344 898.583984375 1436.65527344 898.583984375 1398.77636719 c 0,110,111
 898.583984375 1361.46386719 898.583984375 1361.46386719 868.154296875 1328.390625 c 128,-1,112
 837.723632812 1295.31738281 837.723632812 1295.31738281 784.166015625 1270.72460938 c 128,-1,113
 730.608398438 1246.1328125 730.608398438 1246.1328125 658.18359375 1231.71679688 c 128,-1,114
 585.759765625 1217.29882812 585.759765625 1217.29882812 501.772460938 1217.29882812 c 256,115,116
 417.784179688 1217.29882812 417.784179688 1217.29882812 345.360351562 1231.71679688 c 128,-1,117
 272.935546875 1246.1328125 272.935546875 1246.1328125 219.376953125 1270.72460938 c 128,-1,118
 165.8203125 1295.31738281 165.8203125 1295.31738281 135.389648438 1328.390625 c 128,-1,119
 104.958984375 1361.46386719 104.958984375 1361.46386719 104.958984375 1398.77636719 c 0,100,101
EndSplineSet
EndChar

StartChar: D
Encoding: 68 68 38
Width: 1009
Flags: W
LayerCount: 2
Fore
SplineSet
104.958984375 166.65234375 m 0,0,1
 104.958984375 204.53125 104.958984375 204.53125 135.389648438 237.885742188 c 128,-1,2
 165.8203125 271.241210938 165.8203125 271.241210938 219.376953125 295.833007812 c 128,-1,3
 272.935546875 320.426757812 272.935546875 320.426757812 345.360351562 334.560546875 c 128,-1,4
 417.784179688 348.693359375 417.784179688 348.693359375 501.772460938 348.693359375 c 256,5,6
 585.759765625 348.693359375 585.759765625 348.693359375 658.18359375 334.560546875 c 128,-1,7
 730.608398438 320.426757812 730.608398438 320.426757812 784.166015625 295.833007812 c 128,-1,8
 837.723632812 271.241210938 837.723632812 271.241210938 868.154296875 237.885742188 c 128,-1,9
 898.583984375 204.53125 898.583984375 204.53125 898.583984375 166.65234375 c 0,10,11
 898.583984375 129.337890625 898.583984375 129.337890625 868.154296875 96.263671875 c 128,-1,12
 837.723632812 63.1923828125 837.723632812 63.1923828125 784.166015625 38.5986328125 c 128,-1,13
 730.608398438 14.0068359375 730.608398438 14.0068359375 658.18359375 -0.41015625 c 128,-1,14
 585.759765625 -14.826171875 585.759765625 -14.826171875 501.772460938 -14.826171875 c 256,15,16
 417.784179688 -14.826171875 417.784179688 -14.826171875 345.360351562 -0.41015625 c 128,-1,17
 272.935546875 14.0068359375 272.935546875 14.0068359375 219.376953125 38.5986328125 c 128,-1,18
 165.8203125 63.1923828125 165.8203125 63.1923828125 135.389648438 96.263671875 c 128,-1,19
 104.958984375 129.337890625 104.958984375 129.337890625 104.958984375 166.65234375 c 0,0,1
104.958984375 576.107421875 m 0,20,21
 104.958984375 613.986328125 104.958984375 613.986328125 135.389648438 647.341796875 c 128,-1,22
 165.8203125 680.698242188 165.8203125 680.698242188 219.376953125 705.291015625 c 128,-1,23
 272.935546875 729.8828125 272.935546875 729.8828125 345.360351562 744.016601562 c 128,-1,24
 417.784179688 758.150390625 417.784179688 758.150390625 501.772460938 758.150390625 c 256,25,26
 585.759765625 758.150390625 585.759765625 758.150390625 658.18359375 744.016601562 c 128,-1,27
 730.608398438 729.8828125 730.608398438 729.8828125 784.166015625 705.291015625 c 128,-1,28
 837.723632812 680.698242188 837.723632812 680.698242188 868.154296875 647.341796875 c 128,-1,29
 898.583984375 613.986328125 898.583984375 613.986328125 898.583984375 576.107421875 c 0,30,31
 898.583984375 538.793945312 898.583984375 538.793945312 868.154296875 505.721679688 c 128,-1,32
 837.723632812 472.6484375 837.723632812 472.6484375 784.166015625 448.055664062 c 128,-1,33
 730.608398438 423.462890625 730.608398438 423.462890625 658.18359375 409.046875 c 128,-1,34
 585.759765625 394.630859375 585.759765625 394.630859375 501.772460938 394.630859375 c 256,35,36
 417.784179688 394.630859375 417.784179688 394.630859375 345.360351562 409.046875 c 128,-1,37
 272.935546875 423.462890625 272.935546875 423.462890625 219.376953125 448.055664062 c 128,-1,38
 165.8203125 472.6484375 165.8203125 472.6484375 135.389648438 505.721679688 c 128,-1,39
 104.958984375 538.793945312 104.958984375 538.793945312 104.958984375 576.107421875 c 0,20,21
259.545898438 575.54296875 m 256,40,41
 259.545898438 551.796875 259.545898438 551.796875 277.803710938 531.162109375 c 128,-1,42
 296.0625 510.52734375 296.0625 510.52734375 328.927734375 495.262695312 c 128,-1,43
 361.791015625 479.998046875 361.791015625 479.998046875 406.220703125 471.235351562 c 128,-1,44
 450.6484375 462.470703125 450.6484375 462.470703125 501.772460938 462.470703125 c 256,45,46
 552.89453125 462.470703125 552.89453125 462.470703125 596.713867188 471.235351562 c 128,-1,47
 640.53515625 479.998046875 640.53515625 479.998046875 673.3984375 495.262695312 c 128,-1,48
 706.263671875 510.52734375 706.263671875 510.52734375 724.5234375 531.162109375 c 128,-1,49
 742.780273438 551.796875 742.780273438 551.796875 742.780273438 575.54296875 c 256,50,51
 742.780273438 599.286132812 742.780273438 599.286132812 724.5234375 620.205078125 c 128,-1,52
 706.263671875 641.123046875 706.263671875 641.123046875 673.3984375 656.669921875 c 128,-1,53
 640.53515625 672.215820312 640.53515625 672.215820312 596.713867188 680.979492188 c 128,-1,54
 552.89453125 689.7421875 552.89453125 689.7421875 501.772460938 689.7421875 c 256,55,56
 450.6484375 689.7421875 450.6484375 689.7421875 406.220703125 680.979492188 c 128,-1,57
 361.791015625 672.215820312 361.791015625 672.215820312 328.927734375 656.669921875 c 128,-1,58
 296.0625 641.123046875 296.0625 641.123046875 277.803710938 620.205078125 c 128,-1,59
 259.545898438 599.286132812 259.545898438 599.286132812 259.545898438 575.54296875 c 256,40,41
104.958984375 989.3203125 m 0,60,61
 104.958984375 1027.19921875 104.958984375 1027.19921875 135.389648438 1060.55566406 c 128,-1,62
 165.8203125 1093.91015625 165.8203125 1093.91015625 219.376953125 1118.50292969 c 128,-1,63
 272.935546875 1143.09570312 272.935546875 1143.09570312 345.360351562 1157.22949219 c 128,-1,64
 417.784179688 1171.36328125 417.784179688 1171.36328125 501.772460938 1171.36328125 c 256,65,66
 585.759765625 1171.36328125 585.759765625 1171.36328125 658.18359375 1157.22949219 c 128,-1,67
 730.608398438 1143.09570312 730.608398438 1143.09570312 784.166015625 1118.50292969 c 128,-1,68
 837.723632812 1093.91015625 837.723632812 1093.91015625 868.154296875 1060.55566406 c 128,-1,69
 898.583984375 1027.19921875 898.583984375 1027.19921875 898.583984375 989.3203125 c 0,70,71
 898.583984375 952.0078125 898.583984375 952.0078125 868.154296875 918.934570312 c 128,-1,72
 837.723632812 885.861328125 837.723632812 885.861328125 784.166015625 861.268554688 c 128,-1,73
 730.608398438 836.674804688 730.608398438 836.674804688 658.18359375 822.260742188 c 128,-1,74
 585.759765625 807.842773438 585.759765625 807.842773438 501.772460938 807.842773438 c 256,75,76
 417.784179688 807.842773438 417.784179688 807.842773438 345.360351562 822.260742188 c 128,-1,77
 272.935546875 836.674804688 272.935546875 836.674804688 219.376953125 861.268554688 c 128,-1,78
 165.8203125 885.861328125 165.8203125 885.861328125 135.389648438 918.934570312 c 128,-1,79
 104.958984375 952.0078125 104.958984375 952.0078125 104.958984375 989.3203125 c 0,60,61
104.958984375 1398.77636719 m 0,80,81
 104.958984375 1436.65527344 104.958984375 1436.65527344 135.389648438 1470.01074219 c 128,-1,82
 165.8203125 1503.3671875 165.8203125 1503.3671875 219.376953125 1527.95898438 c 128,-1,83
 272.935546875 1552.55175781 272.935546875 1552.55175781 345.360351562 1566.68457031 c 128,-1,84
 417.784179688 1580.81835938 417.784179688 1580.81835938 501.772460938 1580.81835938 c 256,85,86
 585.759765625 1580.81835938 585.759765625 1580.81835938 658.18359375 1566.68457031 c 128,-1,87
 730.608398438 1552.55175781 730.608398438 1552.55175781 784.166015625 1527.95898438 c 128,-1,88
 837.723632812 1503.3671875 837.723632812 1503.3671875 868.154296875 1470.01074219 c 128,-1,89
 898.583984375 1436.65527344 898.583984375 1436.65527344 898.583984375 1398.77636719 c 0,90,91
 898.583984375 1361.46386719 898.583984375 1361.46386719 868.154296875 1328.390625 c 128,-1,92
 837.723632812 1295.31738281 837.723632812 1295.31738281 784.166015625 1270.72460938 c 128,-1,93
 730.608398438 1246.1328125 730.608398438 1246.1328125 658.18359375 1231.71679688 c 128,-1,94
 585.759765625 1217.29882812 585.759765625 1217.29882812 501.772460938 1217.29882812 c 256,95,96
 417.784179688 1217.29882812 417.784179688 1217.29882812 345.360351562 1231.71679688 c 128,-1,97
 272.935546875 1246.1328125 272.935546875 1246.1328125 219.376953125 1270.72460938 c 128,-1,98
 165.8203125 1295.31738281 165.8203125 1295.31738281 135.389648438 1328.390625 c 128,-1,99
 104.958984375 1361.46386719 104.958984375 1361.46386719 104.958984375 1398.77636719 c 0,80,81
EndSplineSet
EndChar

StartChar: E
Encoding: 69 69 39
Width: 1009
Flags: W
LayerCount: 2
Fore
SplineSet
104.958984375 166.65234375 m 0,0,1
 104.958984375 204.53125 104.958984375 204.53125 135.389648438 237.885742188 c 128,-1,2
 165.8203125 271.241210938 165.8203125 271.241210938 219.376953125 295.833007812 c 128,-1,3
 272.935546875 320.426757812 272.935546875 320.426757812 345.360351562 334.560546875 c 128,-1,4
 417.784179688 348.693359375 417.784179688 348.693359375 501.772460938 348.693359375 c 256,5,6
 585.759765625 348.693359375 585.759765625 348.693359375 658.18359375 334.560546875 c 128,-1,7
 730.608398438 320.426757812 730.608398438 320.426757812 784.166015625 295.833007812 c 128,-1,8
 837.723632812 271.241210938 837.723632812 271.241210938 868.154296875 237.885742188 c 128,-1,9
 898.583984375 204.53125 898.583984375 204.53125 898.583984375 166.65234375 c 0,10,11
 898.583984375 129.337890625 898.583984375 129.337890625 868.154296875 96.263671875 c 128,-1,12
 837.723632812 63.1923828125 837.723632812 63.1923828125 784.166015625 38.5986328125 c 128,-1,13
 730.608398438 14.0068359375 730.608398438 14.0068359375 658.18359375 -0.41015625 c 128,-1,14
 585.759765625 -14.826171875 585.759765625 -14.826171875 501.772460938 -14.826171875 c 256,15,16
 417.784179688 -14.826171875 417.784179688 -14.826171875 345.360351562 -0.41015625 c 128,-1,17
 272.935546875 14.0068359375 272.935546875 14.0068359375 219.376953125 38.5986328125 c 128,-1,18
 165.8203125 63.1923828125 165.8203125 63.1923828125 135.389648438 96.263671875 c 128,-1,19
 104.958984375 129.337890625 104.958984375 129.337890625 104.958984375 166.65234375 c 0,0,1
259.545898438 166.084960938 m 256,20,21
 259.545898438 142.340820312 259.545898438 142.340820312 277.803710938 121.705078125 c 128,-1,22
 296.0625 101.0703125 296.0625 101.0703125 328.927734375 85.806640625 c 128,-1,23
 361.791015625 70.5419921875 361.791015625 70.5419921875 406.220703125 61.7783203125 c 128,-1,24
 450.6484375 53.015625 450.6484375 53.015625 501.772460938 53.015625 c 256,25,26
 552.89453125 53.015625 552.89453125 53.015625 596.713867188 61.7783203125 c 128,-1,27
 640.53515625 70.5419921875 640.53515625 70.5419921875 673.3984375 85.806640625 c 128,-1,28
 706.263671875 101.0703125 706.263671875 101.0703125 724.5234375 121.705078125 c 128,-1,29
 742.780273438 142.340820312 742.780273438 142.340820312 742.780273438 166.084960938 c 256,30,31
 742.780273438 189.831054688 742.780273438 189.831054688 724.5234375 210.748046875 c 128,-1,32
 706.263671875 231.666015625 706.263671875 231.666015625 673.3984375 247.213867188 c 128,-1,33
 640.53515625 262.760742188 640.53515625 262.760742188 596.713867188 271.5234375 c 128,-1,34
 552.89453125 280.287109375 552.89453125 280.287109375 501.772460938 280.287109375 c 256,35,36
 450.6484375 280.287109375 450.6484375 280.287109375 406.220703125 271.5234375 c 128,-1,37
 361.791015625 262.760742188 361.791015625 262.760742188 328.927734375 247.213867188 c 128,-1,38
 296.0625 231.666015625 296.0625 231.666015625 277.803710938 210.748046875 c 128,-1,39
 259.545898438 189.831054688 259.545898438 189.831054688 259.545898438 166.084960938 c 256,20,21
104.958984375 576.107421875 m 0,40,41
 104.958984375 613.986328125 104.958984375 613.986328125 135.389648438 647.341796875 c 128,-1,42
 165.8203125 680.698242188 165.8203125 680.698242188 219.376953125 705.291015625 c 128,-1,43
 272.935546875 729.8828125 272.935546875 729.8828125 345.360351562 744.016601562 c 128,-1,44
 417.784179688 758.150390625 417.784179688 758.150390625 501.772460938 758.150390625 c 256,45,46
 585.759765625 758.150390625 585.759765625 758.150390625 658.18359375 744.016601562 c 128,-1,47
 730.608398438 729.8828125 730.608398438 729.8828125 784.166015625 705.291015625 c 128,-1,48
 837.723632812 680.698242188 837.723632812 680.698242188 868.154296875 647.341796875 c 128,-1,49
 898.583984375 613.986328125 898.583984375 613.986328125 898.583984375 576.107421875 c 0,50,51
 898.583984375 538.793945312 898.583984375 538.793945312 868.154296875 505.721679688 c 128,-1,52
 837.723632812 472.6484375 837.723632812 472.6484375 784.166015625 448.055664062 c 128,-1,53
 730.608398438 423.462890625 730.608398438 423.462890625 658.18359375 409.046875 c 128,-1,54
 585.759765625 394.630859375 585.759765625 394.630859375 501.772460938 394.630859375 c 256,55,56
 417.784179688 394.630859375 417.784179688 394.630859375 345.360351562 409.046875 c 128,-1,57
 272.935546875 423.462890625 272.935546875 423.462890625 219.376953125 448.055664062 c 128,-1,58
 165.8203125 472.6484375 165.8203125 472.6484375 135.389648438 505.721679688 c 128,-1,59
 104.958984375 538.793945312 104.958984375 538.793945312 104.958984375 576.107421875 c 0,40,41
104.958984375 989.3203125 m 0,60,61
 104.958984375 1027.19921875 104.958984375 1027.19921875 135.389648438 1060.55566406 c 128,-1,62
 165.8203125 1093.91015625 165.8203125 1093.91015625 219.376953125 1118.50292969 c 128,-1,63
 272.935546875 1143.09570312 272.935546875 1143.09570312 345.360351562 1157.22949219 c 128,-1,64
 417.784179688 1171.36328125 417.784179688 1171.36328125 501.772460938 1171.36328125 c 256,65,66
 585.759765625 1171.36328125 585.759765625 1171.36328125 658.18359375 1157.22949219 c 128,-1,67
 730.608398438 1143.09570312 730.608398438 1143.09570312 784.166015625 1118.50292969 c 128,-1,68
 837.723632812 1093.91015625 837.723632812 1093.91015625 868.154296875 1060.55566406 c 128,-1,69
 898.583984375 1027.19921875 898.583984375 1027.19921875 898.583984375 989.3203125 c 0,70,71
 898.583984375 952.0078125 898.583984375 952.0078125 868.154296875 918.934570312 c 128,-1,72
 837.723632812 885.861328125 837.723632812 885.861328125 784.166015625 861.268554688 c 128,-1,73
 730.608398438 836.674804688 730.608398438 836.674804688 658.18359375 822.260742188 c 128,-1,74
 585.759765625 807.842773438 585.759765625 807.842773438 501.772460938 807.842773438 c 256,75,76
 417.784179688 807.842773438 417.784179688 807.842773438 345.360351562 822.260742188 c 128,-1,77
 272.935546875 836.674804688 272.935546875 836.674804688 219.376953125 861.268554688 c 128,-1,78
 165.8203125 885.861328125 165.8203125 885.861328125 135.389648438 918.934570312 c 128,-1,79
 104.958984375 952.0078125 104.958984375 952.0078125 104.958984375 989.3203125 c 0,60,61
104.958984375 1398.77636719 m 0,80,81
 104.958984375 1436.65527344 104.958984375 1436.65527344 135.389648438 1470.01074219 c 128,-1,82
 165.8203125 1503.3671875 165.8203125 1503.3671875 219.376953125 1527.95898438 c 128,-1,83
 272.935546875 1552.55175781 272.935546875 1552.55175781 345.360351562 1566.68457031 c 128,-1,84
 417.784179688 1580.81835938 417.784179688 1580.81835938 501.772460938 1580.81835938 c 256,85,86
 585.759765625 1580.81835938 585.759765625 1580.81835938 658.18359375 1566.68457031 c 128,-1,87
 730.608398438 1552.55175781 730.608398438 1552.55175781 784.166015625 1527.95898438 c 128,-1,88
 837.723632812 1503.3671875 837.723632812 1503.3671875 868.154296875 1470.01074219 c 128,-1,89
 898.583984375 1436.65527344 898.583984375 1436.65527344 898.583984375 1398.77636719 c 0,90,91
 898.583984375 1361.46386719 898.583984375 1361.46386719 868.154296875 1328.390625 c 128,-1,92
 837.723632812 1295.31738281 837.723632812 1295.31738281 784.166015625 1270.72460938 c 128,-1,93
 730.608398438 1246.1328125 730.608398438 1246.1328125 658.18359375 1231.71679688 c 128,-1,94
 585.759765625 1217.29882812 585.759765625 1217.29882812 501.772460938 1217.29882812 c 256,95,96
 417.784179688 1217.29882812 417.784179688 1217.29882812 345.360351562 1231.71679688 c 128,-1,97
 272.935546875 1246.1328125 272.935546875 1246.1328125 219.376953125 1270.72460938 c 128,-1,98
 165.8203125 1295.31738281 165.8203125 1295.31738281 135.389648438 1328.390625 c 128,-1,99
 104.958984375 1361.46386719 104.958984375 1361.46386719 104.958984375 1398.77636719 c 0,80,81
EndSplineSet
EndChar

StartChar: F
Encoding: 70 70 40
Width: 1009
Flags: W
LayerCount: 2
Fore
SplineSet
104.958984375 166.65234375 m 0,0,1
 104.958984375 204.53125 104.958984375 204.53125 135.389648438 237.885742188 c 128,-1,2
 165.8203125 271.241210938 165.8203125 271.241210938 219.376953125 295.833007812 c 128,-1,3
 272.935546875 320.426757812 272.935546875 320.426757812 345.360351562 334.560546875 c 128,-1,4
 417.784179688 348.693359375 417.784179688 348.693359375 501.772460938 348.693359375 c 256,5,6
 585.759765625 348.693359375 585.759765625 348.693359375 658.18359375 334.560546875 c 128,-1,7
 730.608398438 320.426757812 730.608398438 320.426757812 784.166015625 295.833007812 c 128,-1,8
 837.723632812 271.241210938 837.723632812 271.241210938 868.154296875 237.885742188 c 128,-1,9
 898.583984375 204.53125 898.583984375 204.53125 898.583984375 166.65234375 c 0,10,11
 898.583984375 129.337890625 898.583984375 129.337890625 868.154296875 96.263671875 c 128,-1,12
 837.723632812 63.1923828125 837.723632812 63.1923828125 784.166015625 38.5986328125 c 128,-1,13
 730.608398438 14.0068359375 730.608398438 14.0068359375 658.18359375 -0.41015625 c 128,-1,14
 585.759765625 -14.826171875 585.759765625 -14.826171875 501.772460938 -14.826171875 c 256,15,16
 417.784179688 -14.826171875 417.784179688 -14.826171875 345.360351562 -0.41015625 c 128,-1,17
 272.935546875 14.0068359375 272.935546875 14.0068359375 219.376953125 38.5986328125 c 128,-1,18
 165.8203125 63.1923828125 165.8203125 63.1923828125 135.389648438 96.263671875 c 128,-1,19
 104.958984375 129.337890625 104.958984375 129.337890625 104.958984375 166.65234375 c 0,0,1
104.958984375 576.107421875 m 0,20,21
 104.958984375 613.986328125 104.958984375 613.986328125 135.389648438 647.341796875 c 128,-1,22
 165.8203125 680.698242188 165.8203125 680.698242188 219.376953125 705.291015625 c 128,-1,23
 272.935546875 729.8828125 272.935546875 729.8828125 345.360351562 744.016601562 c 128,-1,24
 417.784179688 758.150390625 417.784179688 758.150390625 501.772460938 758.150390625 c 256,25,26
 585.759765625 758.150390625 585.759765625 758.150390625 658.18359375 744.016601562 c 128,-1,27
 730.608398438 729.8828125 730.608398438 729.8828125 784.166015625 705.291015625 c 128,-1,28
 837.723632812 680.698242188 837.723632812 680.698242188 868.154296875 647.341796875 c 128,-1,29
 898.583984375 613.986328125 898.583984375 613.986328125 898.583984375 576.107421875 c 0,30,31
 898.583984375 538.793945312 898.583984375 538.793945312 868.154296875 505.721679688 c 128,-1,32
 837.723632812 472.6484375 837.723632812 472.6484375 784.166015625 448.055664062 c 128,-1,33
 730.608398438 423.462890625 730.608398438 423.462890625 658.18359375 409.046875 c 128,-1,34
 585.759765625 394.630859375 585.759765625 394.630859375 501.772460938 394.630859375 c 256,35,36
 417.784179688 394.630859375 417.784179688 394.630859375 345.360351562 409.046875 c 128,-1,37
 272.935546875 423.462890625 272.935546875 423.462890625 219.376953125 448.055664062 c 128,-1,38
 165.8203125 472.6484375 165.8203125 472.6484375 135.389648438 505.721679688 c 128,-1,39
 104.958984375 538.793945312 104.958984375 538.793945312 104.958984375 576.107421875 c 0,20,21
104.958984375 989.3203125 m 0,40,41
 104.958984375 1027.19921875 104.958984375 1027.19921875 135.389648438 1060.55566406 c 128,-1,42
 165.8203125 1093.91015625 165.8203125 1093.91015625 219.376953125 1118.50292969 c 128,-1,43
 272.935546875 1143.09570312 272.935546875 1143.09570312 345.360351562 1157.22949219 c 128,-1,44
 417.784179688 1171.36328125 417.784179688 1171.36328125 501.772460938 1171.36328125 c 256,45,46
 585.759765625 1171.36328125 585.759765625 1171.36328125 658.18359375 1157.22949219 c 128,-1,47
 730.608398438 1143.09570312 730.608398438 1143.09570312 784.166015625 1118.50292969 c 128,-1,48
 837.723632812 1093.91015625 837.723632812 1093.91015625 868.154296875 1060.55566406 c 128,-1,49
 898.583984375 1027.19921875 898.583984375 1027.19921875 898.583984375 989.3203125 c 0,50,51
 898.583984375 952.0078125 898.583984375 952.0078125 868.154296875 918.934570312 c 128,-1,52
 837.723632812 885.861328125 837.723632812 885.861328125 784.166015625 861.268554688 c 128,-1,53
 730.608398438 836.674804688 730.608398438 836.674804688 658.18359375 822.260742188 c 128,-1,54
 585.759765625 807.842773438 585.759765625 807.842773438 501.772460938 807.842773438 c 256,55,56
 417.784179688 807.842773438 417.784179688 807.842773438 345.360351562 822.260742188 c 128,-1,57
 272.935546875 836.674804688 272.935546875 836.674804688 219.376953125 861.268554688 c 128,-1,58
 165.8203125 885.861328125 165.8203125 885.861328125 135.389648438 918.934570312 c 128,-1,59
 104.958984375 952.0078125 104.958984375 952.0078125 104.958984375 989.3203125 c 0,40,41
104.958984375 1398.77636719 m 0,60,61
 104.958984375 1436.65527344 104.958984375 1436.65527344 135.389648438 1470.01074219 c 128,-1,62
 165.8203125 1503.3671875 165.8203125 1503.3671875 219.376953125 1527.95898438 c 128,-1,63
 272.935546875 1552.55175781 272.935546875 1552.55175781 345.360351562 1566.68457031 c 128,-1,64
 417.784179688 1580.81835938 417.784179688 1580.81835938 501.772460938 1580.81835938 c 256,65,66
 585.759765625 1580.81835938 585.759765625 1580.81835938 658.18359375 1566.68457031 c 128,-1,67
 730.608398438 1552.55175781 730.608398438 1552.55175781 784.166015625 1527.95898438 c 128,-1,68
 837.723632812 1503.3671875 837.723632812 1503.3671875 868.154296875 1470.01074219 c 128,-1,69
 898.583984375 1436.65527344 898.583984375 1436.65527344 898.583984375 1398.77636719 c 0,70,71
 898.583984375 1361.46386719 898.583984375 1361.46386719 868.154296875 1328.390625 c 128,-1,72
 837.723632812 1295.31738281 837.723632812 1295.31738281 784.166015625 1270.72460938 c 128,-1,73
 730.608398438 1246.1328125 730.608398438 1246.1328125 658.18359375 1231.71679688 c 128,-1,74
 585.759765625 1217.29882812 585.759765625 1217.29882812 501.772460938 1217.29882812 c 256,75,76
 417.784179688 1217.29882812 417.784179688 1217.29882812 345.360351562 1231.71679688 c 128,-1,77
 272.935546875 1246.1328125 272.935546875 1246.1328125 219.376953125 1270.72460938 c 128,-1,78
 165.8203125 1295.31738281 165.8203125 1295.31738281 135.389648438 1328.390625 c 128,-1,79
 104.958984375 1361.46386719 104.958984375 1361.46386719 104.958984375 1398.77636719 c 0,60,61
EndSplineSet
EndChar

StartChar: G
Encoding: 71 71 41
Width: 1468
Flags: W
LayerCount: 2
Fore
SplineSet
813 141 m 0,0,1
 871 141 871 141 919.5 146.5 c 128,-1,2
 968 152 968 152 1011 163 c 128,-1,3
 1054 174 1054 174 1092 189.5 c 128,-1,4
 1130 205 1130 205 1168 225 c 1,5,-1
 1168 541 l 1,6,-1
 946 541 l 2,7,8
 927 541 927 541 915.5 552 c 128,-1,9
 904 563 904 563 904 579 c 2,10,-1
 904 689 l 1,11,-1
 1344 689 l 1,12,-1
 1344 139 l 1,13,14
 1290 100 1290 100 1231.5 71 c 128,-1,15
 1173 42 1173 42 1106.5 22.5 c 128,-1,16
 1040 3 1040 3 964 -6.5 c 128,-1,17
 888 -16 888 -16 799 -16 c 0,18,19
 643 -16 643 -16 513 37.5 c 128,-1,20
 383 91 383 91 289 187.5 c 128,-1,21
 195 284 195 284 142.5 419 c 128,-1,22
 90 554 90 554 90 716 c 0,23,24
 90 880 90 880 141.5 1015 c 128,-1,25
 193 1150 193 1150 288.5 1246.5 c 128,-1,26
 384 1343 384 1343 519.5 1396 c 128,-1,27
 655 1449 655 1449 823 1449 c 0,28,29
 908 1449 908 1449 981 1436.5 c 128,-1,30
 1054 1424 1054 1424 1116.5 1400.5 c 128,-1,31
 1179 1377 1179 1377 1232 1343.5 c 128,-1,32
 1285 1310 1285 1310 1331 1268 c 1,33,-1
 1276 1180 l 2,34,35
 1259 1153 1259 1153 1232 1153 c 0,36,37
 1216 1153 1216 1153 1197 1164 c 0,38,39
 1172 1178 1172 1178 1141 1198 c 128,-1,40
 1110 1218 1110 1218 1065.5 1236.5 c 128,-1,41
 1021 1255 1021 1255 960.5 1268 c 128,-1,42
 900 1281 900 1281 817 1281 c 0,43,44
 696 1281 696 1281 598 1241.5 c 128,-1,45
 500 1202 500 1202 431 1128.5 c 128,-1,46
 362 1055 362 1055 325 950.5 c 128,-1,47
 288 846 288 846 288 716 c 0,48,49
 288 580 288 580 326.5 473.5 c 128,-1,50
 365 367 365 367 435 293 c 128,-1,51
 505 219 505 219 601 180 c 128,-1,52
 697 141 697 141 813 141 c 0,0,1
EndSplineSet
EndChar

StartChar: H
Encoding: 72 72 42
Width: 1512
Flags: W
LayerCount: 2
Fore
SplineSet
1336 0 m 1,0,-1
 1141 0 l 1,1,-1
 1141 652 l 1,2,-1
 369 652 l 1,3,-1
 369 0 l 1,4,-1
 174 0 l 1,5,-1
 174 1433 l 1,6,-1
 369 1433 l 1,7,-1
 369 794 l 1,8,-1
 1141 794 l 1,9,-1
 1141 1433 l 1,10,-1
 1336 1433 l 1,11,-1
 1336 0 l 1,0,-1
EndSplineSet
EndChar

StartChar: I
Encoding: 73 73 43
Width: 614
Flags: W
LayerCount: 2
Fore
SplineSet
404 0 m 1,0,-1
 210 0 l 1,1,-1
 210 1433 l 1,2,-1
 404 1433 l 1,3,-1
 404 0 l 1,0,-1
EndSplineSet
EndChar

StartChar: J
Encoding: 74 74 44
Width: 1294
Flags: W
LayerCount: 2
Fore
SplineSet
174 0 m 1,0,-1
 174 1433 l 1,1,-1
 631 1433 l 2,2,3
 763 1433 763 1433 858.5 1407 c 128,-1,4
 954 1381 954 1381 1015.5 1333 c 128,-1,5
 1077 1285 1077 1285 1106.5 1215.5 c 128,-1,6
 1136 1146 1136 1146 1136 1059 c 0,7,8
 1136 1006 1136 1006 1119.5 957 c 128,-1,9
 1103 908 1103 908 1069.5 866 c 128,-1,10
 1036 824 1036 824 985.5 791 c 128,-1,11
 935 758 935 758 867 737 c 1,12,13
 1024 706 1024 706 1104 624 c 128,-1,14
 1184 542 1184 542 1184 408 c 0,15,16
 1184 317 1184 317 1150.5 242 c 128,-1,17
 1117 167 1117 167 1052.5 113 c 128,-1,18
 988 59 988 59 894.5 29.5 c 128,-1,19
 801 0 801 0 681 0 c 2,20,-1
 174 0 l 1,0,-1
368 653 m 1,21,-1
 368 154 l 1,22,-1
 678 154 l 2,23,24
 761 154 761 154 820.5 173 c 128,-1,25
 880 192 880 192 918.5 226.5 c 128,-1,26
 957 261 957 261 975 308.5 c 128,-1,27
 993 356 993 356 993 413 c 0,28,29
 993 524 993 524 914.5 588.5 c 128,-1,30
 836 653 836 653 677 653 c 2,31,-1
 368 653 l 1,21,-1
368 791 m 1,32,-1
 624 791 l 2,33,34
 706 791 706 791 766 809 c 128,-1,35
 826 827 826 827 865.5 859 c 128,-1,36
 905 891 905 891 924 936.5 c 128,-1,37
 943 982 943 982 943 1036 c 0,38,39
 943 1162 943 1162 867 1221 c 128,-1,40
 791 1280 791 1280 631 1280 c 2,41,-1
 368 1280 l 1,42,-1
 368 791 l 1,32,-1
EndSplineSet
EndChar

StartChar: K
Encoding: 75 75 45
Width: 1362
Flags: W
LayerCount: 2
Fore
SplineSet
387 805 m 1,0,-1
 460 805 l 2,1,2
 498 805 498 805 520.5 814.5 c 128,-1,3
 543 824 543 824 563 847 c 2,4,-1
 1040 1387 l 2,5,6
 1062 1412 1062 1412 1082.5 1422.5 c 128,-1,7
 1103 1433 1103 1433 1135 1433 c 2,8,-1
 1300 1433 l 1,9,-1
 754 816 l 2,10,11
 733 793 733 793 714.5 777 c 128,-1,12
 696 761 696 761 675 751 c 1,13,14
 703 742 703 742 724 724 c 128,-1,15
 745 706 745 706 768 679 c 2,16,-1
 1338 0 l 1,17,-1
 1170 0 l 2,18,19
 1151 0 1151 0 1138 3 c 128,-1,20
 1125 6 1125 6 1115.5 11 c 128,-1,21
 1106 16 1106 16 1098 24 c 128,-1,22
 1090 32 1090 32 1082 41 c 2,23,-1
 587 610 l 2,24,25
 576 622 576 622 566.5 630.5 c 128,-1,26
 557 639 557 639 544.5 645 c 128,-1,27
 532 651 532 651 515.5 653.5 c 128,-1,28
 499 656 499 656 475 656 c 2,29,-1
 387 656 l 1,30,-1
 387 0 l 1,31,-1
 194 0 l 1,32,-1
 194 1433 l 1,33,-1
 387 1433 l 1,34,-1
 387 805 l 1,0,-1
EndSplineSet
EndChar

StartChar: L
Encoding: 76 76 46
Width: 1360
Flags: W
LayerCount: 2
Fore
SplineSet
1353 0 m 1,0,-1
 1203 0 l 2,1,2
 1177 0 1177 0 1161 13 c 128,-1,3
 1145 26 1145 26 1137 46 c 2,4,-1
 1003 392 l 1,5,-1
 360 392 l 1,6,-1
 226 46 l 2,7,8
 219 28 219 28 202 14 c 128,-1,9
 185 0 185 0 160 0 c 2,10,-1
 10 0 l 1,11,-1
 583 1433 l 1,12,-1
 780 1433 l 1,13,-1
 1353 0 l 1,0,-1
414 532 m 1,14,-1
 949 532 l 1,15,-1
 724 1115 l 2,16,17
 702 1169 702 1169 681 1250 c 1,18,19
 670 1209 670 1209 659.5 1174.5 c 128,-1,20
 649 1140 649 1140 639 1114 c 2,21,-1
 414 532 l 1,14,-1
EndSplineSet
EndChar

StartChar: M
Encoding: 77 77 47
Width: 1840
Flags: W
LayerCount: 2
Fore
SplineSet
879 518 m 1,0,1
 893 494 893 494 903.5 467.5 c 128,-1,2
 914 441 914 441 924 414 c 1,3,4
 934 442 934 442 945 467.5 c 128,-1,5
 956 493 956 493 970 519 c 2,6,-1
 1455 1400 l 2,7,8
 1468 1423 1468 1423 1482 1428 c 128,-1,9
 1496 1433 1496 1433 1522 1433 c 2,10,-1
 1665 1433 l 1,11,-1
 1665 0 l 1,12,-1
 1495 0 l 1,13,-1
 1495 1053 l 2,14,15
 1495 1074 1495 1074 1496 1098 c 128,-1,16
 1497 1122 1497 1122 1499 1147 c 1,17,-1
 1008 251 l 2,18,19
 983 206 983 206 938 206 c 2,20,-1
 910 206 l 2,21,22
 865 206 865 206 840 251 c 2,23,-1
 338 1150 l 1,24,25
 341 1124 341 1124 342.5 1099 c 128,-1,26
 344 1074 344 1074 344 1053 c 2,27,-1
 344 0 l 1,28,-1
 174 0 l 1,29,-1
 174 1433 l 1,30,-1
 317 1433 l 2,31,32
 343 1433 343 1433 357 1428 c 128,-1,33
 371 1423 371 1423 384 1400 c 2,34,-1
 879 518 l 1,35,-1
 879 518 l 1,0,1
EndSplineSet
EndChar

StartChar: N
Encoding: 78 78 48
Width: 1512
Flags: W
LayerCount: 2
Fore
SplineSet
274 1433 m 1,0,1
 300 1433 300 1433 312.5 1426.5 c 128,-1,2
 325 1420 325 1420 341 1400 c 2,3,-1
 1171 320 l 1,4,5
 1168 346 1168 346 1167 370.5 c 128,-1,6
 1166 395 1166 395 1166 418 c 2,7,-1
 1166 1433 l 1,8,-1
 1336 1433 l 1,9,-1
 1336 0 l 1,10,-1
 1238 0 l 2,11,12
 1215 0 1215 0 1199.5 8 c 128,-1,13
 1184 16 1184 16 1169 35 c 2,14,-1
 340 1114 l 1,15,16
 342 1089 342 1089 343 1065 c 128,-1,17
 344 1041 344 1041 344 1021 c 2,18,-1
 344 0 l 1,19,-1
 174 0 l 1,20,-1
 174 1433 l 1,21,-1
 274 1433 l 1,22,-1
 274 1433 l 1,0,1
EndSplineSet
EndChar

StartChar: O
Encoding: 79 79 49
Width: 1596
Flags: W
LayerCount: 2
Fore
SplineSet
599 708.5 m 4,0,1
 599 750.5 599 750.5 615 784.5 c 132,-1,2
 631 818.5 631 818.5 658.5 843.5 c 132,-1,3
 686 868.5 686 868.5 722 882 c 132,-1,4
 758 895.5 758 895.5 798 895.5 c 4,5,6
 839 895.5 839 895.5 875.5 882 c 132,-1,7
 912 868.5 912 868.5 940 843.5 c 132,-1,8
 968 818.5 968 818.5 984 784.5 c 132,-1,9
 1000 750.5 1000 750.5 1000 708.5 c 4,10,11
 1000 667.5 1000 667.5 984 633.5 c 132,-1,12
 968 599.5 968 599.5 940 575.5 c 132,-1,13
 912 551.5 912 551.5 875.5 538 c 132,-1,14
 839 524.5 839 524.5 798 524.5 c 4,15,16
 758 524.5 758 524.5 722 538 c 132,-1,17
 686 551.5 686 551.5 658.5 575.5 c 132,-1,18
 631 599.5 631 599.5 615 633.5 c 132,-1,19
 599 667.5 599 667.5 599 708.5 c 4,0,1
699 708.5 m 4,20,21
 699 664.5 699 664.5 726 636.5 c 132,-1,22
 753 608.5 753 608.5 800 608.5 c 4,23,24
 845 608.5 845 608.5 872.5 636.5 c 132,-1,25
 900 664.5 900 664.5 900 708.5 c 4,26,27
 900 753.5 900 753.5 872.5 781.5 c 132,-1,28
 845 809.5 845 809.5 800 809.5 c 4,29,30
 753 809.5 753 809.5 726 781.5 c 132,-1,31
 699 753.5 699 753.5 699 708.5 c 4,20,21
1505 716 m 256,32,33
 1505 555 1505 555 1454 420.5 c 128,-1,34
 1403 286 1403 286 1310 189 c 128,-1,35
 1217 92 1217 92 1086.5 38.5 c 128,-1,36
 956 -15 956 -15 798 -15 c 256,37,38
 640 -15 640 -15 510 38.5 c 128,-1,39
 380 92 380 92 287 189 c 128,-1,40
 194 286 194 286 143 420.5 c 128,-1,41
 92 555 92 555 92 716 c 256,42,43
 92 877 92 877 143 1011.5 c 128,-1,44
 194 1146 194 1146 287 1243.5 c 128,-1,45
 380 1341 380 1341 510 1395 c 128,-1,46
 640 1449 640 1449 798 1449 c 256,47,48
 956 1449 956 1449 1086.5 1395 c 128,-1,49
 1217 1341 1217 1341 1310 1243.5 c 128,-1,50
 1403 1146 1403 1146 1454 1011.5 c 128,-1,51
 1505 877 1505 877 1505 716 c 256,32,33
1306 716 m 256,52,53
 1306 848 1306 848 1270 953 c 128,-1,54
 1234 1058 1234 1058 1168 1130.5 c 128,-1,55
 1102 1203 1102 1203 1008 1242 c 128,-1,56
 914 1281 914 1281 798 1281 c 0,57,58
 683 1281 683 1281 589 1242 c 128,-1,59
 495 1203 495 1203 428.5 1130.5 c 128,-1,60
 362 1058 362 1058 326 953 c 128,-1,61
 290 848 290 848 290 716 c 256,62,63
 290 584 290 584 326 479.5 c 128,-1,64
 362 375 362 375 428.5 302.5 c 128,-1,65
 495 230 495 230 589 191.5 c 128,-1,66
 683 153 683 153 798 153 c 0,67,68
 914 153 914 153 1008 191.5 c 128,-1,69
 1102 230 1102 230 1168 302.5 c 128,-1,70
 1234 375 1234 375 1270 479.5 c 128,-1,71
 1306 584 1306 584 1306 716 c 256,52,53
EndSplineSet
EndChar

StartChar: P
Encoding: 80 80 50
Width: 1222
Flags: W
LayerCount: 2
Fore
SplineSet
387 536 m 1,0,-1
 387 0 l 1,1,-1
 194 0 l 1,2,-1
 194 1433 l 1,3,-1
 617 1433 l 2,4,5
 753 1433 753 1433 853.5 1401.5 c 128,-1,6
 954 1370 954 1370 1020 1312 c 128,-1,7
 1086 1254 1086 1254 1118.5 1172 c 128,-1,8
 1151 1090 1151 1090 1151 989 c 0,9,10
 1151 889 1151 889 1116 806 c 128,-1,11
 1081 723 1081 723 1013.5 663 c 128,-1,12
 946 603 946 603 846 569.5 c 128,-1,13
 746 536 746 536 617 536 c 2,14,-1
 387 536 l 1,0,-1
387 690 m 1,15,-1
 617 690 l 2,16,17
 700 690 700 690 763.5 712 c 128,-1,18
 827 734 827 734 870 773.5 c 128,-1,19
 913 813 913 813 935 868 c 128,-1,20
 957 923 957 923 957 989 c 0,21,22
 957 1126 957 1126 872.5 1203 c 128,-1,23
 788 1280 788 1280 617 1280 c 2,24,-1
 387 1280 l 1,25,-1
 387 690 l 1,15,-1
EndSplineSet
EndChar

StartChar: Q
Encoding: 81 81 51
Width: 1370
Flags: W
LayerCount: 2
Fore
SplineSet
596.69921875 370.033203125 m 5,0,-1
 596.69921875 1159.49316406 l 5,1,-1
 702.126953125 1159.49316406 l 5,2,-1
 702.126953125 840.064453125 l 5,3,4
 740.625976562 877.045898438 740.625976562 877.045898438 787.416992188 899.2890625 c 132,-1,5
 834.20703125 921.529296875 834.20703125 921.529296875 895.212890625 921.529296875 c 4,6,7
 944.372070312 921.529296875 944.372070312 921.529296875 981.984375 906.791015625 c 132,-1,8
 1019.59472656 892.052734375 1019.59472656 892.052734375 1044.765625 864.987304688 c 132,-1,9
 1069.93847656 837.920898438 1069.93847656 837.920898438 1082.96875 799.868164062 c 132,-1,10
 1095.99902344 761.81640625 1095.99902344 761.81640625 1095.99902344 715.723632812 c 6,11,-1
 1095.99902344 370.033203125 l 5,12,-1
 990.571289062 370.033203125 l 5,13,-1
 990.571289062 715.723632812 l 6,14,15
 990.571289062 777.358398438 990.571289062 777.358398438 959.4765625 811.391601562 c 132,-1,16
 928.381835938 845.424804688 928.381835938 845.424804688 864.4140625 845.424804688 c 4,17,18
 817.624023438 845.424804688 817.624023438 845.424804688 777.051757812 825.05859375 c 132,-1,19
 736.479492188 804.69140625 736.479492188 804.69140625 702.126953125 769.85546875 c 5,20,-1
 702.126953125 370.033203125 l 5,21,-1
 596.69921875 370.033203125 l 5,0,-1
1184 296 m 256,22,23
 1200 296 1200 296 1213 283 c 2,24,-1
 1289 200 l 1,25,26
 1201 98 1201 98 1075.5 41 c 128,-1,27
 950 -16 950 -16 773 -16 c 0,28,29
 618 -16 618 -16 492 37.5 c 128,-1,30
 366 91 366 91 277 187.5 c 128,-1,31
 188 284 188 284 139 419 c 128,-1,32
 90 554 90 554 90 716 c 256,33,34
 90 878 90 878 142.5 1013 c 128,-1,35
 195 1148 195 1148 290 1245 c 128,-1,36
 385 1342 385 1342 517.5 1395.5 c 128,-1,37
 650 1449 650 1449 810 1449 c 0,38,39
 968 1449 968 1449 1082.5 1400 c 128,-1,40
 1197 1351 1197 1351 1286 1267 c 1,41,-1
 1223 1178 l 2,42,43
 1216 1168 1216 1168 1207 1161.5 c 128,-1,44
 1198 1155 1198 1155 1181 1155 c 0,45,46
 1168 1155 1168 1155 1153.5 1164.5 c 128,-1,47
 1139 1174 1139 1174 1119 1188 c 128,-1,48
 1099 1202 1099 1202 1072 1218 c 128,-1,49
 1045 1234 1045 1234 1008 1248 c 128,-1,50
 971 1262 971 1262 922 1271.5 c 128,-1,51
 873 1281 873 1281 809 1281 c 0,52,53
 694 1281 694 1281 598.5 1241.5 c 128,-1,54
 503 1202 503 1202 434 1129 c 128,-1,55
 365 1056 365 1056 326.5 951 c 128,-1,56
 288 846 288 846 288 716 c 0,57,58
 288 582 288 582 326.5 477 c 128,-1,59
 365 372 365 372 431.5 299.5 c 128,-1,60
 498 227 498 227 589 189 c 128,-1,61
 680 151 680 151 785 151 c 0,62,63
 849 151 849 151 900 158.5 c 128,-1,64
 951 166 951 166 994.5 182 c 128,-1,65
 1038 198 1038 198 1075.5 222.5 c 128,-1,66
 1113 247 1113 247 1151 281 c 0,67,68
 1168 296 1168 296 1184 296 c 256,22,23
EndSplineSet
EndChar

StartChar: R
Encoding: 82 82 52
Width: 1288
Flags: W
LayerCount: 2
Fore
SplineSet
387 598 m 1,0,-1
 387 0 l 1,1,-1
 194 0 l 1,2,-1
 194 1433 l 1,3,-1
 599 1433 l 2,4,5
 735 1433 735 1433 834 1405.5 c 128,-1,6
 933 1378 933 1378 997.5 1326 c 128,-1,7
 1062 1274 1062 1274 1093 1200.5 c 128,-1,8
 1124 1127 1124 1127 1124 1036 c 0,9,10
 1124 960 1124 960 1100 894 c 128,-1,11
 1076 828 1076 828 1030.5 775.5 c 128,-1,12
 985 723 985 723 919.5 686 c 128,-1,13
 854 649 854 649 771 630 c 1,14,15
 807 609 807 609 835 569 c 2,16,-1
 1253 0 l 1,17,-1
 1081 0 l 2,18,19
 1028 0 1028 0 1003 41 c 2,20,-1
 631 553 l 2,21,22
 614 577 614 577 594 587.5 c 128,-1,23
 574 598 574 598 534 598 c 2,24,-1
 387 598 l 1,0,-1
387 739 m 1,25,-1
 590 739 l 2,26,27
 675 739 675 739 739.5 759.5 c 128,-1,28
 804 780 804 780 847.5 817.5 c 128,-1,29
 891 855 891 855 913 907 c 128,-1,30
 935 959 935 959 935 1022 c 0,31,32
 935 1150 935 1150 850.5 1215 c 128,-1,33
 766 1280 766 1280 599 1280 c 2,34,-1
 387 1280 l 1,35,-1
 387 739 l 1,25,-1
EndSplineSet
EndChar

StartChar: S
Encoding: 83 83 53
Width: 1060
Flags: W
LayerCount: 2
Fore
SplineSet
908 1209 m 2,0,1
 899 1194 899 1194 889 1186.5 c 128,-1,2
 879 1179 879 1179 863 1179 c 0,3,4
 846 1179 846 1179 823.5 1196 c 128,-1,5
 801 1213 801 1213 766.5 1233.5 c 128,-1,6
 732 1254 732 1254 683.5 1271 c 128,-1,7
 635 1288 635 1288 566 1288 c 0,8,9
 501 1288 501 1288 451 1270.5 c 128,-1,10
 401 1253 401 1253 367.5 1223 c 128,-1,11
 334 1193 334 1193 317 1152.5 c 128,-1,12
 300 1112 300 1112 300 1065 c 0,13,14
 300 1005 300 1005 329.5 965.5 c 128,-1,15
 359 926 359 926 407.5 898 c 128,-1,16
 456 870 456 870 517.5 849.5 c 128,-1,17
 579 829 579 829 643.5 807 c 128,-1,18
 708 785 708 785 769.5 757.5 c 128,-1,19
 831 730 831 730 879.5 688 c 128,-1,20
 928 646 928 646 957.5 585 c 128,-1,21
 987 524 987 524 987 435 c 0,22,23
 987 341 987 341 955 258.5 c 128,-1,24
 923 176 923 176 861.5 115 c 128,-1,25
 800 54 800 54 710.5 19 c 128,-1,26
 621 -16 621 -16 507 -16 c 0,27,28
 368 -16 368 -16 253.5 34.5 c 128,-1,29
 139 85 139 85 58 171 c 1,30,-1
 114 263 l 2,31,32
 122 274 122 274 133.5 281.5 c 128,-1,33
 145 289 145 289 159 289 c 0,34,35
 180 289 180 289 207 266.5 c 128,-1,36
 234 244 234 244 274.5 217 c 128,-1,37
 315 190 315 190 372.5 167.5 c 128,-1,38
 430 145 430 145 513 145 c 0,39,40
 582 145 582 145 636 164 c 128,-1,41
 690 183 690 183 727.5 217.5 c 128,-1,42
 765 252 765 252 785 300 c 128,-1,43
 805 348 805 348 805 407 c 0,44,45
 805 472 805 472 775.5 513.5 c 128,-1,46
 746 555 746 555 698 583 c 128,-1,47
 650 611 650 611 588.5 630.5 c 128,-1,48
 527 650 527 650 462.5 670.5 c 128,-1,49
 398 691 398 691 336.5 718 c 128,-1,50
 275 745 275 745 227 788 c 128,-1,51
 179 831 179 831 149.5 895.5 c 128,-1,52
 120 960 120 960 120 1055 c 0,53,54
 120 1131 120 1131 149.5 1202 c 128,-1,55
 179 1273 179 1273 235 1328 c 128,-1,56
 291 1383 291 1383 373.5 1416 c 128,-1,57
 456 1449 456 1449 563 1449 c 0,58,59
 683 1449 683 1449 782 1411 c 128,-1,60
 881 1373 881 1373 955 1301 c 1,61,-1
 908 1209 l 2,0,1
EndSplineSet
EndChar

StartChar: T
Encoding: 84 84 54
Width: 1180
Flags: W
LayerCount: 2
Fore
SplineSet
1150 1433 m 1,0,-1
 1150 1270 l 1,1,-1
 687 1270 l 1,2,-1
 687 0 l 1,3,-1
 493 0 l 1,4,-1
 493 1270 l 1,5,-1
 28 1270 l 1,6,-1
 28 1433 l 1,7,-1
 1150 1433 l 1,0,-1
EndSplineSet
EndChar

StartChar: U
Encoding: 85 85 55
Width: 1460
Flags: W
LayerCount: 2
Fore
SplineSet
731 154 m 256,0,1
 820 154 820 154 890 184 c 128,-1,2
 960 214 960 214 1008.5 268 c 128,-1,3
 1057 322 1057 322 1082.5 397 c 128,-1,4
 1108 472 1108 472 1108 562 c 2,5,-1
 1108 1433 l 1,6,-1
 1301 1433 l 1,7,-1
 1301 562 l 2,8,9
 1301 438 1301 438 1261.5 332 c 128,-1,10
 1222 226 1222 226 1148.5 148.5 c 128,-1,11
 1075 71 1075 71 969 27 c 128,-1,12
 863 -17 863 -17 731 -17 c 256,13,14
 599 -17 599 -17 493 27 c 128,-1,15
 387 71 387 71 313 148.5 c 128,-1,16
 239 226 239 226 199.5 332 c 128,-1,17
 160 438 160 438 160 562 c 2,18,-1
 160 1433 l 1,19,-1
 353 1433 l 1,20,-1
 353 563 l 2,21,22
 353 473 353 473 378.5 398 c 128,-1,23
 404 323 404 323 452.5 269 c 128,-1,24
 501 215 501 215 571.5 184.5 c 128,-1,25
 642 154 642 154 731 154 c 256,0,1
EndSplineSet
EndChar

StartChar: V
Encoding: 86 86 56
Width: 1360
Flags: W
LayerCount: 2
Fore
SplineSet
8 1433 m 1,0,-1
 163 1433 l 2,1,2
 189 1433 189 1433 205 1420 c 128,-1,3
 221 1407 221 1407 229 1387 c 2,4,-1
 634 376 l 2,5,6
 648 342 648 342 659.5 302 c 128,-1,7
 671 262 671 262 682 219 c 1,8,9
 691 262 691 262 701.5 302 c 128,-1,10
 712 342 712 342 726 376 c 2,11,-1
 1129 1387 l 2,12,13
 1136 1404 1136 1404 1153 1418.5 c 128,-1,14
 1170 1433 1170 1433 1195 1433 c 2,15,-1
 1351 1433 l 1,16,-1
 767 0 l 1,17,-1
 592 0 l 1,18,-1
 8 1433 l 1,0,-1
EndSplineSet
EndChar

StartChar: W
Encoding: 87 87 57
Width: 1506
Flags: W
LayerCount: 2
Fore
SplineSet
1416 716 m 256,0,1
 1416 555 1416 555 1365 423 c 128,-1,2
 1314 291 1314 291 1221 197 c 128,-1,3
 1128 103 1128 103 998 51.5 c 128,-1,4
 868 0 868 0 710 0 c 2,5,-1
 174 0 l 1,6,-1
 174 1433 l 1,7,-1
 710 1433 l 2,8,9
 868 1433 868 1433 998 1381.5 c 128,-1,10
 1128 1330 1128 1330 1221 1235.5 c 128,-1,11
 1314 1141 1314 1141 1365 1009 c 128,-1,12
 1416 877 1416 877 1416 716 c 256,0,1
1217 716 m 256,13,14
 1217 848 1217 848 1181 952 c 128,-1,15
 1145 1056 1145 1056 1079 1128 c 128,-1,16
 1013 1200 1013 1200 919 1238 c 128,-1,17
 825 1276 825 1276 710 1276 c 2,18,-1
 369 1276 l 1,19,-1
 369 157 l 1,20,-1
 710 157 l 2,21,22
 825 157 825 157 919 195 c 128,-1,23
 1013 233 1013 233 1079 304.5 c 128,-1,24
 1145 376 1145 376 1181 480 c 128,-1,25
 1217 584 1217 584 1217 716 c 256,13,14
EndSplineSet
EndChar

StartChar: X
Encoding: 88 88 58
Width: 1162
Flags: W
LayerCount: 2
Fore
SplineSet
1057 1433 m 1,0,-1
 1057 1275 l 1,1,-1
 369 1275 l 1,2,-1
 369 799 l 1,3,-1
 926 799 l 1,4,-1
 926 647 l 1,5,-1
 369 647 l 1,6,-1
 369 158 l 1,7,-1
 1057 158 l 1,8,-1
 1057 0 l 1,9,-1
 174 0 l 1,10,-1
 174 1433 l 1,11,-1
 1057 1433 l 1,0,-1
EndSplineSet
EndChar

StartChar: Y
Encoding: 89 89 59
Width: 1258
Flags: W
LayerCount: 2
Fore
SplineSet
726 570 m 1,0,-1
 726 0 l 1,1,-1
 533 0 l 1,2,-1
 533 570 l 1,3,-1
 8 1433 l 1,4,-1
 178 1433 l 2,5,6
 204 1433 204 1433 219 1420 c 128,-1,7
 234 1407 234 1407 245 1388 c 2,8,-1
 573 831 l 2,9,10
 593 796 593 796 606.5 765 c 128,-1,11
 620 734 620 734 631 704 c 1,12,13
 642 735 642 735 655 766 c 128,-1,14
 668 797 668 797 688 831 c 2,15,-1
 1015 1388 l 2,16,17
 1024 1404 1024 1404 1039.5 1418.5 c 128,-1,18
 1055 1433 1055 1433 1080 1433 c 2,19,-1
 1252 1433 l 1,20,-1
 726 570 l 1,0,-1
EndSplineSet
EndChar

StartChar: Z
Encoding: 90 90 60
Width: 1248
Flags: W
LayerCount: 2
Fore
SplineSet
1172 1433 m 1,0,-1
 1172 1361 l 2,1,2
 1172 1327 1172 1327 1151 1297 c 2,3,-1
 340 158 l 1,4,-1
 1158 158 l 1,5,-1
 1158 0 l 1,6,-1
 86 0 l 1,7,-1
 86 76 l 2,8,9
 86 106 86 106 105 133 c 2,10,-1
 917 1275 l 1,11,-1
 124 1275 l 1,12,-1
 124 1433 l 1,13,-1
 1172 1433 l 1,0,-1
EndSplineSet
EndChar

StartChar: bracketleft
Encoding: 91 91 61
Width: 600
Flags: W
LayerCount: 2
Fore
SplineSet
142 -289 m 1,0,-1
 142 1533 l 1,1,-1
 510 1533 l 1,2,-1
 510 1463 l 2,3,4
 510 1441 510 1441 496.5 1428.5 c 128,-1,5
 483 1416 483 1416 461 1416 c 2,6,-1
 292 1416 l 1,7,-1
 292 -171 l 1,8,-1
 461 -171 l 2,9,10
 483 -171 483 -171 496.5 -183.5 c 128,-1,11
 510 -196 510 -196 510 -219 c 2,12,-1
 510 -289 l 1,13,-1
 142 -289 l 1,0,-1
EndSplineSet
EndChar

StartChar: backslash
Encoding: 92 92 62
Width: 750
Flags: W
LayerCount: 2
Fore
SplineSet
-20 1473 m 1,0,-1
 56 1473 l 2,1,2
 89 1473 89 1473 113 1456 c 128,-1,3
 137 1439 137 1439 150 1407 c 2,4,-1
 751 -90 l 1,5,-1
 676 -90 l 2,6,7
 647 -90 647 -90 619 -73 c 128,-1,8
 591 -56 591 -56 578 -21 c 2,9,-1
 -20 1473 l 1,0,-1
EndSplineSet
EndChar

StartChar: bracketright
Encoding: 93 93 63
Width: 600
Flags: W
LayerCount: 2
Fore
SplineSet
90 -219 m 2,0,1
 90 -199 90 -199 103.5 -185 c 128,-1,2
 117 -171 117 -171 139 -171 c 2,3,-1
 308 -171 l 1,4,-1
 308 1416 l 1,5,-1
 139 1416 l 2,6,7
 117 1416 117 1416 103.5 1429.5 c 128,-1,8
 90 1443 90 1443 90 1463 c 2,9,-1
 90 1533 l 1,10,-1
 458 1533 l 1,11,-1
 458 -289 l 1,12,-1
 90 -289 l 1,13,-1
 90 -219 l 2,0,1
EndSplineSet
EndChar

